<svg xmlns="http://www.w3.org/2000/svg" xmlns:xlink="http://www.w3.org/1999/xlink" width="100" zoomAndPan="magnify" viewBox="0 0 75 74.999997" height="100" preserveAspectRatio="xMidYMid meet" version="1.0"><defs><clipPath id="d89fc3a55d"><path d="M 0.285156 11.992188 L 74.535156 11.992188 L 74.535156 62.992188 L 0.285156 62.992188 Z M 0.285156 11.992188 " clip-rule="nonzero"/></clipPath><clipPath id="8725426e55"><path d="M 0.285156 18 L 68 18 L 68 39 L 0.285156 39 Z M 0.285156 18 " clip-rule="nonzero"/></clipPath><clipPath id="60b3820a72"><path d="M 2 11.992188 L 74.535156 11.992188 L 74.535156 62.992188 L 2 62.992188 Z M 2 11.992188 " clip-rule="nonzero"/></clipPath></defs><g clip-path="url(#d89fc3a55d)"><path fill="#fac172" d="M 68.257812 36.863281 L 68.257812 62.988281 L 4.609375 62.105469 L 4.171875 38.214844 L 0.308594 38.296875 L 3.925781 26.195312 L 3.949219 26.195312 L 3.75 15.371094 L 2.554688 15.371094 L 2.554688 11.992188 L 70.457031 11.992188 L 70.457031 15.371094 L 68.257812 15.371094 L 68.257812 26.792969 L 74.511719 36.730469 Z M 68.257812 36.863281 " fill-opacity="1" fill-rule="nonzero"/></g><g clip-path="url(#8725426e55)"><path fill="#e15c45" d="M 23.523438 26.332031 L 30.101562 26.375 L 29.972656 37.671875 L 23.78125 37.800781 Z M 11.878906 38.050781 L 18.058594 37.921875 C 18.125 34.566406 18.230469 29.234375 18.3125 26.296875 L 12.738281 26.257812 Z M 0.308594 38.296875 L 6.246094 38.171875 L 8.4375 26.226562 L 3.925781 26.195312 Z M 35.398438 26.414062 L 35.839844 37.546875 L 41.730469 37.421875 L 40.628906 26.449219 Z M 63.539062 26.605469 L 58.046875 26.570312 L 61.730469 37 L 67.015625 36.886719 Z M 45.988281 26.484375 L 48.117188 37.289062 L 55.375 37.132812 L 51.613281 26.523438 Z M 20.875 19.546875 C 21.125 19.546875 21.320312 19.605469 21.472656 19.730469 C 21.605469 19.832031 21.675781 19.945312 21.742188 20.160156 L 22.953125 19.878906 C 22.859375 19.59375 22.765625 19.417969 22.601562 19.230469 C 22.210938 18.753906 21.644531 18.523438 20.902344 18.523438 C 19.40625 18.523438 18.460938 19.515625 18.460938 21.082031 C 18.460938 21.898438 18.710938 22.609375 19.160156 23.0625 C 19.585938 23.488281 20.171875 23.699219 20.925781 23.699219 C 21.367188 23.699219 21.800781 23.628906 22.1875 23.496094 C 22.453125 23.40625 22.613281 23.328125 22.941406 23.121094 C 22.90625 22.847656 22.902344 22.65625 22.902344 22.234375 L 22.902344 21.566406 C 22.902344 21.179688 22.914062 20.984375 22.941406 20.757812 C 22.679688 20.78125 22.460938 20.785156 22.15625 20.785156 L 21.683594 20.785156 C 21.265625 20.785156 21.125 20.78125 20.902344 20.75 L 20.902344 21.804688 C 21.085938 21.78125 21.1875 21.773438 21.492188 21.773438 L 21.777344 21.773438 L 21.777344 22.453125 C 21.484375 22.601562 21.230469 22.667969 20.914062 22.667969 C 20.539062 22.667969 20.25 22.554688 20.058594 22.347656 C 19.820312 22.085938 19.695312 21.65625 19.695312 21.101562 C 19.695312 20.101562 20.113281 19.546875 20.875 19.546875 Z M 24.433594 19.542969 C 24.402344 19.230469 24.371094 19.046875 24.316406 18.804688 C 24.539062 18.792969 24.726562 18.777344 25.066406 18.742188 L 26.378906 18.605469 C 27.195312 18.519531 27.714844 18.894531 27.789062 19.621094 C 27.828125 19.980469 27.753906 20.273438 27.578125 20.480469 C 27.464844 20.609375 27.363281 20.675781 27.125 20.785156 C 27.390625 20.835938 27.519531 20.941406 27.71875 21.28125 C 27.8125 21.4375 27.898438 21.601562 28.183594 22.121094 C 28.253906 22.257812 28.328125 22.378906 28.480469 22.632812 L 27.300781 22.757812 C 27.253906 22.597656 27.171875 22.398438 26.972656 21.996094 C 26.765625 21.570312 26.691406 21.460938 26.554688 21.363281 C 26.4375 21.28125 26.308594 21.253906 26.148438 21.269531 L 25.632812 21.324219 L 25.71875 22.152344 C 25.757812 22.496094 25.785156 22.679688 25.839844 22.910156 L 24.757812 23.023438 C 24.761719 22.789062 24.757812 22.636719 24.71875 22.261719 Z M 25.449219 19.558594 L 25.542969 20.460938 L 26.328125 20.375 C 26.628906 20.34375 26.789062 20.144531 26.757812 19.855469 C 26.730469 19.574219 26.554688 19.445312 26.242188 19.476562 Z M 33.785156 20.644531 C 33.785156 22.023438 32.945312 22.9375 31.679688 22.9375 C 30.402344 22.9375 29.578125 22.042969 29.578125 20.660156 C 29.578125 19.28125 30.402344 18.398438 31.683594 18.398438 C 32.96875 18.398438 33.785156 19.273438 33.785156 20.644531 Z M 32.703125 20.652344 C 32.703125 19.808594 32.316406 19.296875 31.683594 19.296875 C 31.050781 19.296875 30.660156 19.8125 30.660156 20.652344 C 30.660156 21.503906 31.050781 22.03125 31.683594 22.03125 C 32.316406 22.03125 32.703125 21.511719 32.703125 20.652344 Z M 37.257812 23.191406 C 37.921875 23.234375 38.46875 23.0625 38.832031 22.695312 C 39.082031 22.441406 39.21875 22.179688 39.355469 21.71875 L 38.226562 21.472656 C 38.175781 21.699219 38.128906 21.808594 38.027344 21.933594 C 37.855469 22.144531 37.589844 22.253906 37.285156 22.234375 C 36.605469 22.1875 36.234375 21.617188 36.296875 20.71875 C 36.355469 19.8125 36.78125 19.308594 37.449219 19.355469 C 37.921875 19.386719 38.195312 19.652344 38.265625 20.160156 L 39.414062 20.015625 C 39.363281 19.683594 39.28125 19.476562 39.121094 19.238281 C 38.796875 18.734375 38.257812 18.457031 37.550781 18.410156 C 36.90625 18.367188 36.339844 18.535156 35.9375 18.878906 C 35.476562 19.277344 35.203125 19.894531 35.152344 20.644531 C 35.105469 21.382812 35.292969 22.039062 35.671875 22.480469 C 36.035156 22.902344 36.585938 23.148438 37.257812 23.191406 Z M 43.390625 22.039062 L 42.089844 22.183594 L 41.996094 21.335938 L 43.085938 21.214844 C 43.433594 21.175781 43.605469 21.164062 43.84375 21.164062 L 43.742188 20.230469 C 43.441406 20.292969 43.320312 20.3125 42.988281 20.351562 L 41.902344 20.472656 L 41.820312 19.730469 L 43.128906 19.582031 C 43.464844 19.546875 43.648438 19.535156 43.882812 19.535156 L 43.777344 18.589844 C 43.542969 18.644531 43.375 18.671875 43.03125 18.710938 L 41.425781 18.886719 C 41.03125 18.933594 40.890625 18.941406 40.683594 18.957031 C 40.742188 19.199219 40.769531 19.375 40.804688 19.6875 L 41.109375 22.445312 C 41.148438 22.792969 41.160156 22.980469 41.152344 23.1875 C 41.367188 23.152344 41.507812 23.128906 41.890625 23.089844 L 43.476562 22.910156 C 43.910156 22.863281 44.09375 22.855469 44.3125 22.855469 L 44.207031 21.910156 C 43.992188 21.960938 43.773438 21.996094 43.390625 22.039062 Z M 46.679688 22.730469 L 45.53125 22.585938 C 45.59375 22.34375 45.625 22.183594 45.675781 21.789062 L 46.042969 18.90625 C 46.085938 18.574219 46.101562 18.375 46.101562 18.113281 C 46.335938 18.15625 46.53125 18.183594 46.894531 18.230469 L 48.285156 18.410156 C 49.148438 18.519531 49.59375 19.035156 49.496094 19.804688 C 49.449219 20.1875 49.300781 20.472656 49.070312 20.644531 C 48.917969 20.75 48.800781 20.792969 48.527344 20.847656 C 48.789062 20.964844 48.894531 21.105469 49.019531 21.507812 C 49.078125 21.6875 49.128906 21.878906 49.296875 22.488281 C 49.335938 22.648438 49.382812 22.789062 49.480469 23.089844 L 48.230469 22.929688 C 48.21875 22.753906 48.183594 22.527344 48.074219 22.0625 C 47.960938 21.574219 47.914062 21.441406 47.796875 21.308594 C 47.695312 21.191406 47.566406 21.132812 47.398438 21.109375 L 46.851562 21.039062 L 46.738281 21.917969 C 46.695312 22.28125 46.679688 22.480469 46.679688 22.730469 Z M 46.96875 20.125 L 47.800781 20.230469 C 48.117188 20.269531 48.335938 20.101562 48.375 19.796875 C 48.410156 19.496094 48.261719 19.320312 47.929688 19.277344 L 47.089844 19.171875 Z M 51.917969 21.148438 L 51.917969 22.089844 C 51.917969 22.371094 51.902344 22.605469 51.878906 22.839844 L 52.984375 22.839844 C 52.953125 22.574219 52.941406 22.351562 52.941406 22.089844 L 52.941406 21.148438 L 54.105469 19.230469 C 54.167969 19.117188 54.363281 18.828125 54.507812 18.613281 L 53.226562 18.613281 C 53.191406 18.761719 53.121094 18.917969 52.992188 19.152344 L 52.429688 20.179688 L 51.867188 19.148438 C 51.742188 18.921875 51.6875 18.792969 51.628906 18.613281 L 50.347656 18.613281 C 50.550781 18.902344 50.664062 19.070312 50.753906 19.226562 Z M 51.917969 21.148438 " fill-opacity="1" fill-rule="nonzero"/></g><g clip-path="url(#60b3820a72)"><path fill="#f9efe8" d="M 70.457031 15.371094 L 2.554688 15.371094 L 2.554688 11.992188 L 70.457031 11.992188 Z M 18.34375 26.296875 L 18.3125 26.296875 C 18.230469 29.234375 18.125 34.566406 18.058594 37.921875 L 18.074219 37.921875 L 23.78125 37.800781 L 23.523438 26.332031 Z M 6.246094 38.171875 L 11.878906 38.050781 L 12.738281 26.257812 L 8.4375 26.226562 Z M 29.972656 37.671875 L 35.839844 37.546875 L 35.398438 26.414062 L 30.101562 26.375 Z M 68.160156 26.636719 L 63.539062 26.605469 L 67.015625 36.886719 L 74.511719 36.730469 Z M 51.613281 26.523438 L 55.375 37.132812 L 61.730469 37 L 58.046875 26.570312 Z M 40.628906 26.449219 L 41.730469 37.421875 L 48.117188 37.289062 L 45.988281 26.484375 Z M 30.027344 62.457031 L 45.824219 62.675781 L 46.257812 41.792969 L 29.394531 42.085938 Z M 30.027344 62.457031 " fill-opacity="1" fill-rule="nonzero"/></g><path fill="#303d36" d="M 36.714844 58.203125 L 36.726562 58.191406 L 36.742188 58.195312 C 36.738281 58.199219 36.730469 58.203125 36.726562 58.207031 Z M 36.128906 58.398438 C 36.121094 58.515625 36.105469 58.628906 36.101562 58.746094 C 36.09375 58.863281 36.136719 58.972656 36.226562 59.085938 C 36.355469 59.253906 36.386719 59.425781 36.246094 59.597656 C 36.226562 59.621094 36.234375 59.652344 36.257812 59.679688 C 36.328125 59.75 36.355469 59.820312 36.269531 59.886719 C 36.179688 59.953125 36.160156 60.023438 36.167969 60.097656 C 36.175781 60.214844 36.144531 60.332031 36.191406 60.449219 C 36.121094 60.453125 36.050781 60.460938 35.984375 60.457031 C 35.851562 60.453125 35.726562 60.480469 35.605469 60.625 C 35.527344 60.714844 35.433594 60.707031 35.351562 60.613281 C 35.253906 60.503906 35.15625 60.476562 35.054688 60.488281 C 34.953125 60.496094 34.851562 60.503906 34.753906 60.507812 C 34.523438 60.519531 34.292969 60.542969 34.0625 60.539062 C 33.832031 60.535156 33.601562 60.589844 33.371094 60.414062 C 33.332031 60.382812 33.285156 60.410156 33.242188 60.410156 L 32.984375 60.417969 C 32.882812 60.421875 32.78125 60.445312 32.683594 60.429688 C 32.59375 60.414062 32.523438 60.582031 32.433594 60.5 C 32.332031 60.402344 32.234375 60.492188 32.136719 60.53125 C 32.082031 60.554688 32.023438 60.515625 31.96875 60.558594 C 31.867188 60.46875 31.765625 60.503906 31.664062 60.527344 C 31.714844 60.460938 31.679688 60.386719 31.648438 60.320312 C 31.585938 60.195312 31.515625 60.070312 31.40625 59.949219 C 31.34375 59.882812 31.363281 59.847656 31.515625 59.816406 C 31.566406 59.804688 31.617188 59.765625 31.605469 59.746094 C 31.503906 59.574219 31.652344 59.410156 31.609375 59.242188 C 31.566406 59.070312 31.59375 58.902344 31.582031 58.730469 C 31.5625 58.503906 31.535156 58.277344 31.511719 58.050781 C 31.503906 57.976562 31.414062 57.902344 31.390625 57.832031 C 31.367188 57.765625 31.480469 57.707031 31.484375 57.640625 C 31.5 57.457031 31.5 57.273438 31.484375 57.089844 C 31.464844 56.832031 31.425781 56.574219 31.386719 56.3125 C 31.371094 56.195312 31.386719 56.089844 31.457031 55.992188 C 31.507812 55.921875 31.464844 55.828125 31.496094 55.753906 C 31.523438 55.6875 31.449219 55.605469 31.398438 55.527344 C 31.359375 55.46875 31.339844 55.402344 31.371094 55.359375 C 31.417969 55.296875 31.433594 55.238281 31.335938 55.148438 C 31.285156 55.101562 31.246094 55.050781 31.214844 55.003906 C 31.160156 54.921875 31.402344 54.976562 31.390625 54.914062 C 31.363281 54.742188 31.53125 54.621094 31.332031 54.40625 C 31.410156 54.359375 31.425781 54.296875 31.347656 54.207031 C 31.203125 54.046875 31.195312 53.921875 31.328125 53.835938 C 31.367188 53.8125 31.367188 53.765625 31.367188 53.726562 L 31.257812 52.015625 L 31.234375 51.632812 L 31.195312 51.199219 L 31.171875 50.8125 L 31.136719 50.378906 L 31.109375 49.992188 C 31.289062 49.953125 31.027344 49.679688 31.074219 49.566406 C 31.097656 49.511719 31.082031 49.433594 31.109375 49.382812 C 31.128906 49.335938 31.113281 49.277344 31.074219 49.199219 C 31.050781 49.148438 31.03125 49.089844 31.058594 49.070312 C 31.195312 48.972656 31.136719 48.761719 31.125 48.578125 L 30.894531 45.417969 L 30.875 44.949219 C 30.867188 44.792969 30.867188 44.640625 30.832031 44.460938 C 30.800781 44.28125 30.882812 44.214844 30.882812 44.066406 C 30.882812 44.054688 30.855469 44.015625 30.832031 43.988281 C 30.808594 43.964844 30.769531 43.925781 30.753906 43.917969 C 30.542969 43.816406 30.476562 43.886719 30.496094 44.050781 C 30.539062 44.394531 30.5625 44.722656 30.566406 45.03125 C 30.566406 45.15625 30.574219 45.289062 30.585938 45.425781 C 30.605469 45.582031 30.648438 45.753906 30.527344 45.792969 C 30.542969 45.886719 30.546875 45.972656 30.570312 46.070312 C 30.578125 46.121094 30.632812 46.203125 30.632812 46.242188 C 30.632812 46.566406 30.757812 46.972656 30.570312 47.164062 C 30.546875 47.1875 30.550781 47.234375 30.554688 47.277344 C 30.578125 47.574219 30.535156 47.832031 30.605469 48.160156 C 30.636719 48.308594 30.628906 48.429688 30.632812 48.558594 C 30.640625 48.792969 30.636719 49.019531 30.652344 49.253906 C 30.664062 49.445312 30.722656 49.660156 30.609375 49.785156 C 30.59375 49.800781 30.652344 49.863281 30.636719 49.882812 C 30.589844 49.945312 30.71875 50.09375 30.6875 50.15625 C 30.648438 50.222656 30.707031 50.332031 30.722656 50.421875 C 30.75 50.585938 30.863281 50.796875 30.671875 50.859375 C 30.660156 50.863281 30.679688 50.890625 30.691406 50.910156 C 30.761719 51.023438 30.585938 51.03125 30.714844 51.167969 C 30.878906 51.34375 30.691406 51.351562 30.679688 51.441406 C 30.675781 51.46875 30.667969 51.496094 30.695312 51.53125 C 30.839844 51.746094 30.902344 51.917969 30.734375 52.007812 C 30.722656 52.015625 30.722656 52.035156 30.730469 52.050781 C 30.808594 52.175781 30.703125 52.242188 30.765625 52.359375 C 30.839844 52.492188 30.707031 52.535156 30.726562 52.640625 C 30.78125 52.976562 30.785156 53.292969 30.753906 53.601562 C 30.75 53.652344 30.8125 53.726562 30.84375 53.792969 C 30.859375 53.824219 30.90625 53.871094 30.886719 53.882812 C 30.769531 53.960938 30.804688 54.085938 30.8125 54.203125 C 30.824219 54.390625 30.898438 54.597656 30.714844 54.734375 C 30.6875 54.75 30.691406 54.785156 30.695312 54.8125 C 30.742188 55.097656 30.660156 55.359375 30.832031 55.667969 C 30.746094 55.746094 30.976562 55.890625 30.796875 55.949219 C 30.796875 56.023438 30.761719 56.089844 30.800781 56.167969 C 30.839844 56.246094 30.855469 56.3125 30.808594 56.378906 C 30.773438 56.425781 30.78125 56.488281 30.785156 56.546875 L 30.839844 57.5625 C 30.84375 57.691406 30.828125 57.824219 31.007812 57.957031 C 30.910156 58.019531 31.046875 58.101562 31 58.167969 C 30.9375 58.257812 30.851562 58.347656 30.796875 58.445312 C 30.742188 58.539062 30.71875 58.644531 30.824219 58.75 C 30.957031 58.882812 30.972656 59.007812 30.878906 59.136719 C 30.859375 59.160156 30.871094 59.195312 30.894531 59.222656 C 30.976562 59.3125 30.976562 59.394531 30.898438 59.480469 C 30.835938 59.546875 30.964844 59.621094 30.875 59.691406 C 30.773438 59.773438 30.972656 59.859375 30.898438 59.949219 C 30.84375 60.015625 30.851562 60.09375 30.855469 60.164062 L 30.914062 60.945312 L 30.941406 61.335938 L 31.308594 61.320312 L 31.617188 61.304688 C 31.675781 61.300781 31.734375 61.285156 31.78125 61.203125 C 31.808594 61.160156 31.832031 61.164062 31.863281 61.199219 C 31.960938 61.308594 32.0625 61.300781 32.160156 61.285156 C 32.304688 61.265625 32.453125 61.3125 32.589844 61.203125 C 32.734375 61.085938 32.871094 61.300781 33.015625 61.25 C 33.242188 61.167969 33.472656 61.191406 33.703125 61.3125 C 33.75 61.335938 33.761719 61.15625 33.792969 61.132812 C 33.828125 61.109375 33.875 61.164062 33.914062 61.1875 C 33.984375 61.226562 34.058594 61.304688 34.125 61.292969 C 34.210938 61.28125 34.296875 61.296875 34.378906 61.339844 C 34.421875 61.363281 34.464844 61.359375 34.507812 61.347656 C 34.578125 61.328125 34.648438 61.292969 34.71875 61.269531 C 34.746094 61.257812 34.777344 61.257812 34.804688 61.273438 C 35.019531 61.394531 35.234375 61.304688 35.449219 61.261719 C 35.488281 61.253906 35.527344 61.175781 35.570312 61.226562 C 35.671875 61.335938 35.773438 61.285156 35.871094 61.289062 C 35.957031 61.292969 36.046875 61.285156 36.132812 61.28125 C 36.21875 61.273438 36.300781 61.222656 36.382812 61.175781 C 36.449219 61.144531 36.519531 61.238281 36.585938 61.242188 L 36.964844 61.253906 L 36.988281 60.835938 C 36.988281 60.816406 36.984375 60.800781 36.96875 60.78125 C 36.910156 60.710938 36.878906 60.648438 36.960938 60.574219 C 37 60.539062 37 60.492188 37 60.449219 C 36.996094 60.085938 36.988281 59.726562 36.976562 59.367188 C 36.976562 59.308594 36.953125 59.25 36.90625 59.195312 C 36.863281 59.136719 36.871094 59.085938 36.902344 59.027344 C 37.03125 58.773438 36.988281 58.511719 36.875 58.257812 C 36.867188 58.238281 36.78125 58.222656 36.726562 58.207031 C 36.65625 58.253906 36.542969 58.28125 36.40625 58.292969 C 36.246094 58.304688 36.136719 58.328125 36.128906 58.398438 Z M 30.769531 43.914062 C 30.894531 44.058594 30.960938 44.109375 31.03125 44.113281 L 32.011719 44.136719 L 32.414062 44.136719 C 32.5625 44.136719 32.722656 44.164062 32.792969 44.050781 C 33 44.171875 33.105469 44.125 33.242188 44.132812 C 33.378906 44.140625 33.515625 44.140625 33.628906 44.097656 C 33.707031 44.070312 33.769531 44 33.910156 44.125 C 34.140625 44.085938 34.414062 44.183594 34.601562 44.015625 C 34.636719 43.984375 34.683594 44.027344 34.726562 44.042969 C 34.800781 44.066406 34.875 44.085938 34.9375 44.078125 C 34.988281 44.070312 35.015625 43.980469 35.070312 43.980469 C 35.125 43.980469 35.195312 44.066406 35.25 44.078125 C 35.335938 44.101562 35.417969 44.101562 35.5 44.097656 C 35.582031 44.097656 35.664062 44.113281 35.75 44.171875 C 35.828125 44.050781 35.9375 44.183594 36.027344 44.1875 C 36.105469 44.191406 36.171875 44.105469 36.25 44.070312 C 36.246094 44.085938 36.238281 44.101562 36.226562 44.117188 C 36.171875 44.175781 36.199219 44.226562 36.257812 44.28125 C 36.316406 44.335938 36.3125 44.398438 36.25 44.449219 C 36.167969 44.515625 36.132812 44.585938 36.15625 44.660156 C 36.179688 44.730469 36.273438 44.792969 36.207031 44.871094 C 36.167969 44.917969 36.285156 44.976562 36.21875 45.035156 C 36.132812 45.105469 36.273438 45.175781 36.257812 45.242188 C 36.242188 45.300781 36.289062 45.363281 36.25 45.414062 C 36.097656 45.597656 36.167969 45.785156 36.171875 45.972656 C 36.171875 46.101562 36.191406 46.230469 36.195312 46.363281 L 36.195312 47.574219 C 36.195312 47.632812 36.207031 47.691406 36.238281 47.746094 C 36.308594 47.859375 36.308594 47.964844 36.257812 48.082031 C 36.175781 48.265625 36.15625 48.457031 36.324219 48.640625 C 36.367188 48.683594 36.335938 48.722656 36.296875 48.761719 C 36.222656 48.847656 36.242188 48.933594 36.285156 49.019531 C 36.300781 49.054688 36.363281 49.0625 36.457031 49.046875 C 36.488281 49.042969 36.550781 49.039062 36.5625 49.042969 C 36.601562 49.066406 36.644531 49.089844 36.652344 49.117188 C 36.664062 49.144531 36.664062 49.179688 36.621094 49.199219 C 36.332031 49.335938 36.210938 49.503906 36.117188 49.671875 C 36.070312 49.753906 36.070312 49.84375 36.324219 49.894531 C 36.433594 49.917969 36.332031 49.976562 36.390625 50.007812 C 36.453125 50.042969 36.5625 50.058594 36.636719 50.089844 C 36.699219 50.117188 36.636719 50.1875 36.550781 50.195312 C 36.480469 50.203125 36.410156 50.210938 36.339844 50.21875 C 36.183594 50.238281 36.109375 50.28125 36.121094 50.347656 C 36.128906 50.40625 36.199219 50.449219 36.320312 50.492188 C 36.53125 50.566406 36.550781 50.636719 36.421875 50.71875 C 36.367188 50.757812 36.292969 50.789062 36.230469 50.824219 C 36.148438 50.875 36.109375 50.929688 36.183594 50.988281 C 36.269531 51.054688 36.308594 51.125 36.289062 51.195312 C 36.273438 51.238281 36.265625 51.285156 36.226562 51.324219 C 36.164062 51.386719 36.238281 51.429688 36.339844 51.476562 C 36.414062 51.507812 36.476562 51.542969 36.433594 51.589844 C 36.382812 51.644531 36.335938 51.703125 36.414062 51.757812 C 36.511719 51.828125 36.351562 51.898438 36.4375 51.96875 C 36.496094 52.011719 36.394531 52.046875 36.378906 52.089844 C 36.351562 52.160156 36.316406 52.230469 36.351562 52.308594 C 36.359375 52.359375 36.367188 52.417969 36.375 52.476562 C 36.382812 52.507812 36.507812 52.546875 36.617188 52.550781 C 36.820312 52.558594 36.90625 52.542969 36.980469 52.484375 C 37.117188 52.378906 37.199219 52.273438 37.089844 52.15625 C 37.160156 52.082031 36.992188 52.011719 37.039062 51.945312 C 37.097656 51.859375 37.035156 51.773438 37.089844 51.691406 C 37.164062 51.589844 37.167969 51.496094 37.050781 51.398438 C 36.972656 51.328125 36.972656 51.257812 37.039062 51.1875 C 37.085938 51.132812 37.140625 51.078125 37.148438 51.023438 C 37.167969 50.878906 37.164062 50.734375 37.164062 50.589844 C 37.164062 50.546875 37.160156 50.5 37.113281 50.460938 C 36.984375 50.363281 36.980469 50.273438 37.101562 50.175781 C 37.164062 50.125 37.160156 50.0625 37.15625 50.003906 C 37.15625 49.933594 37.121094 49.859375 37.109375 49.789062 C 37.09375 49.71875 37.050781 49.648438 37.015625 49.578125 C 36.984375 49.511719 37.058594 49.4375 37.085938 49.367188 C 37.089844 49.355469 37.085938 49.335938 37.066406 49.324219 C 36.917969 49.230469 37.097656 49.128906 37.003906 49.03125 C 37.167969 48.832031 37.101562 48.636719 36.988281 48.4375 C 36.957031 48.382812 36.992188 48.324219 36.945312 48.265625 C 37.082031 48.203125 36.945312 48.125 37 48.0625 C 37.085938 47.964844 37.085938 47.867188 37.082031 47.765625 C 37.054688 47.289062 37.042969 46.8125 37.03125 46.335938 C 37.027344 46.265625 37 46.183594 37.070312 46.125 C 37.167969 46.039062 37.0625 45.953125 37.132812 45.875 C 37.183594 45.816406 37.046875 45.769531 37.101562 45.707031 C 37.15625 45.640625 37.144531 45.570312 37.164062 45.5 C 37.183594 45.433594 37.117188 45.390625 36.980469 45.355469 C 36.839844 45.320312 36.808594 45.265625 36.890625 45.207031 C 36.988281 45.140625 37.011719 45.070312 36.960938 44.996094 C 36.910156 44.929688 36.890625 44.863281 36.917969 44.789062 C 36.976562 44.632812 36.976562 44.472656 37.023438 44.316406 C 37.042969 44.246094 37.1875 44.175781 37.113281 44.105469 C 37.023438 44.023438 37.101562 43.9375 37.050781 43.855469 C 37.007812 43.78125 36.976562 43.710938 36.960938 43.640625 L 36.890625 43.304688 L 36.671875 43.351562 C 36.570312 43.375 36.46875 43.367188 36.359375 43.300781 C 36.269531 43.242188 36.222656 43.292969 36.195312 43.472656 C 36.144531 43.503906 36.125 43.355469 36.089844 43.320312 C 36.023438 43.257812 35.984375 43.390625 35.925781 43.386719 C 35.792969 43.378906 35.65625 43.378906 35.527344 43.40625 C 35.390625 43.4375 35.191406 43.148438 35.082031 43.363281 C 35.019531 43.328125 34.949219 43.265625 34.886719 43.257812 C 34.730469 43.238281 34.5625 43.210938 34.449219 43.324219 C 34.332031 43.441406 34.117188 43.21875 33.992188 43.300781 C 33.921875 43.347656 33.839844 43.371094 33.777344 43.433594 C 33.710938 43.5 33.636719 43.519531 33.511719 43.425781 C 33.363281 43.320312 33.257812 43.332031 33.171875 43.375 C 33.125 43.394531 33.109375 43.476562 33.054688 43.480469 C 32.996094 43.480469 32.902344 43.410156 32.828125 43.382812 C 32.734375 43.347656 32.667969 43.367188 32.640625 43.445312 C 32.628906 43.472656 32.617188 43.507812 32.582031 43.488281 C 32.449219 43.421875 32.417969 43.507812 32.355469 43.542969 C 32.25 43.605469 32.160156 43.695312 31.921875 43.550781 C 31.671875 43.40625 31.683594 43.585938 31.523438 43.542969 C 31.511719 43.609375 31.457031 43.636719 31.398438 43.652344 C 31.351562 43.667969 31.28125 43.65625 31.179688 43.597656 C 31.097656 43.554688 31.035156 43.53125 31.019531 43.5625 C 30.996094 43.601562 30.945312 43.605469 30.839844 43.554688 C 30.742188 43.507812 30.652344 43.480469 30.566406 43.453125 C 30.5 43.433594 30.5 43.476562 30.523438 43.53125 C 30.570312 43.640625 30.644531 43.765625 30.769531 43.914062 Z M 36.976562 53.242188 C 36.878906 53.226562 36.859375 53.207031 36.929688 53.175781 C 37.09375 53.113281 37.199219 53.046875 37.070312 52.949219 C 37.027344 52.917969 37.078125 52.867188 37.089844 52.824219 C 37.109375 52.753906 37.109375 52.75 36.964844 52.726562 C 36.828125 52.699219 36.695312 52.675781 36.554688 52.660156 C 36.488281 52.652344 36.402344 52.652344 36.339844 52.664062 C 36.285156 52.671875 36.210938 52.703125 36.214844 52.722656 C 36.261719 52.851562 36.351562 52.972656 36.488281 53.09375 C 36.539062 53.132812 36.582031 53.179688 36.523438 53.214844 C 36.394531 53.292969 36.359375 53.371094 36.496094 53.453125 C 36.511719 53.464844 36.507812 53.484375 36.492188 53.492188 C 36.390625 53.5625 36.398438 53.625 36.488281 53.695312 C 36.5625 53.753906 36.4375 53.765625 36.34375 53.785156 C 36.253906 53.804688 36.273438 53.824219 36.351562 53.851562 C 36.523438 53.914062 36.515625 53.914062 36.398438 53.988281 C 36.363281 54.011719 36.316406 54.035156 36.289062 54.058594 C 36.277344 54.066406 36.289062 54.089844 36.304688 54.09375 C 36.527344 54.144531 36.503906 54.191406 36.296875 54.234375 C 36.292969 54.285156 36.308594 54.34375 36.28125 54.394531 C 36.25 54.453125 36.242188 54.507812 36.304688 54.5625 C 36.429688 54.671875 36.46875 54.78125 36.308594 54.894531 C 36.257812 54.929688 36.253906 54.976562 36.242188 55.019531 C 36.214844 55.160156 36.21875 55.304688 36.089844 55.445312 C 36.054688 55.480469 36.066406 55.53125 36.101562 55.570312 C 36.191406 55.667969 36.21875 55.765625 36.222656 55.867188 C 36.230469 55.996094 36.246094 56.125 36.257812 56.257812 C 36.269531 56.359375 36.25 56.457031 36.160156 56.554688 C 36.109375 56.601562 36.15625 56.636719 36.226562 56.671875 C 36.359375 56.734375 36.394531 56.792969 36.289062 56.867188 C 36.21875 56.914062 36.164062 56.96875 36.125 57.023438 C 36.09375 57.066406 36.109375 57.117188 36.207031 57.140625 C 36.351562 57.179688 36.457031 57.222656 36.296875 57.269531 C 36.074219 57.339844 36.246094 57.433594 36.15625 57.507812 C 36.050781 57.59375 36.210938 57.675781 36.167969 57.757812 C 36.132812 57.820312 36.214844 57.871094 36.273438 57.921875 C 36.363281 58 36.453125 58.078125 36.558594 58.15625 C 36.585938 58.175781 36.667969 58.179688 36.730469 58.191406 C 36.8125 58.117188 36.921875 58.042969 36.957031 57.964844 C 37.019531 57.828125 37.042969 57.683594 37.074219 57.542969 C 37.105469 57.398438 37.105469 57.253906 37.101562 57.109375 C 37.09375 56.96875 37.0625 56.824219 37.042969 56.679688 C 36.929688 56.609375 37.039062 56.542969 37.058594 56.472656 C 37.074219 56.433594 37.078125 56.433594 36.855469 56.421875 C 36.824219 56.417969 36.765625 56.414062 36.765625 56.410156 C 36.761719 56.382812 36.746094 56.347656 36.78125 56.335938 C 36.910156 56.285156 37.066406 56.242188 37.058594 56.160156 C 37.054688 56.089844 37.054688 56.019531 37.046875 55.945312 C 37.039062 55.90625 36.984375 55.894531 36.898438 55.90625 C 36.8125 55.917969 36.734375 55.914062 36.714844 55.882812 C 36.699219 55.859375 36.703125 55.820312 36.742188 55.808594 C 36.871094 55.761719 37.0625 55.730469 36.9375 55.636719 C 36.976562 55.523438 36.980469 55.414062 36.902344 55.300781 C 36.878906 55.265625 36.921875 55.210938 36.988281 55.183594 C 37.1875 55.097656 37.214844 55.019531 37.097656 54.910156 C 37.019531 54.835938 37.050781 54.738281 37.042969 54.652344 C 37.027344 54.480469 37.054688 54.304688 36.996094 54.136719 C 36.960938 54.035156 36.949219 53.941406 37.019531 53.84375 C 37.058594 53.789062 36.996094 53.730469 36.933594 53.679688 C 36.902344 53.652344 36.921875 53.628906 37 53.609375 C 37.230469 53.554688 37.199219 53.464844 37.199219 53.378906 C 37.199219 53.316406 37.125 53.269531 36.976562 53.242188 Z M 44.492188 58.859375 L 44.480469 58.871094 L 44.492188 58.871094 C 44.496094 58.867188 44.503906 58.863281 44.507812 58.859375 Z M 44.777344 59.988281 C 44.773438 59.933594 44.746094 59.878906 44.703125 59.824219 C 44.652344 59.769531 44.664062 59.722656 44.691406 59.664062 C 44.8125 59.410156 44.765625 59.164062 44.644531 58.914062 C 44.632812 58.898438 44.546875 58.886719 44.492188 58.871094 C 44.425781 58.921875 44.3125 58.949219 44.175781 58.964844 C 44.015625 58.980469 43.90625 59.007812 43.902344 59.078125 C 43.894531 59.1875 43.882812 59.300781 43.882812 59.414062 C 43.878906 59.527344 43.925781 59.632812 44.015625 59.742188 C 44.148438 59.898438 44.183594 60.0625 44.054688 60.226562 C 43.988281 60.238281 43.925781 60.265625 43.863281 60.339844 C 43.792969 60.285156 43.722656 60.371094 43.660156 60.332031 C 43.453125 60.207031 43.242188 60.28125 43.035156 60.273438 C 42.910156 60.269531 42.785156 60.296875 42.667969 60.441406 C 42.59375 60.53125 42.503906 60.523438 42.421875 60.429688 C 42.328125 60.320312 42.234375 60.292969 42.132812 60.304688 C 42.035156 60.3125 41.9375 60.320312 41.839844 60.324219 C 41.617188 60.335938 41.394531 60.359375 41.167969 60.355469 C 40.945312 60.347656 40.722656 60.402344 40.5 60.230469 C 40.460938 60.199219 40.417969 60.222656 40.375 60.226562 L 40.125 60.230469 C 40.027344 60.234375 39.929688 60.257812 39.832031 60.242188 C 39.746094 60.226562 39.675781 60.394531 39.589844 60.3125 C 39.488281 60.214844 39.398438 60.304688 39.300781 60.34375 C 39.277344 60.355469 39.25 60.351562 39.222656 60.351562 C 39.15625 60.242188 39.117188 60.140625 39.21875 60.035156 C 39.277344 59.976562 39.246094 59.898438 39.21875 59.828125 C 39.160156 59.703125 39.097656 59.578125 38.996094 59.453125 C 38.9375 59.382812 38.960938 59.351562 39.113281 59.332031 C 39.164062 59.324219 39.21875 59.292969 39.207031 59.269531 C 39.117188 59.097656 39.273438 58.949219 39.242188 58.78125 C 39.210938 58.613281 39.246094 58.453125 39.242188 58.285156 C 39.238281 58.0625 39.222656 57.839844 39.214844 57.617188 C 39.210938 57.546875 39.125 57.46875 39.105469 57.398438 C 39.089844 57.332031 39.203125 57.285156 39.210938 57.222656 C 39.238281 57.046875 39.25 56.867188 39.246094 56.6875 C 39.238281 56.4375 39.21875 56.183594 39.195312 55.929688 C 39.183594 55.8125 39.207031 55.710938 39.28125 55.621094 C 39.335938 55.558594 39.300781 55.464844 39.335938 55.394531 C 39.363281 55.332031 39.300781 55.25 39.253906 55.167969 C 39.21875 55.105469 39.199219 55.042969 39.234375 55 C 39.285156 54.945312 39.304688 54.890625 39.214844 54.796875 C 39.164062 54.746094 39.125 54.695312 39.097656 54.644531 C 39.050781 54.566406 39.289062 54.632812 39.28125 54.574219 C 39.265625 54.40625 39.441406 54.296875 39.253906 54.078125 C 39.332031 54.039062 39.355469 53.980469 39.277344 53.886719 C 39.144531 53.71875 39.144531 53.597656 39.28125 53.523438 C 39.324219 53.503906 39.328125 53.460938 39.328125 53.417969 L 39.320312 51.753906 L 39.320312 51.378906 L 39.308594 50.960938 L 39.304688 50.582031 L 39.296875 50.160156 L 39.292969 49.785156 C 39.476562 49.757812 39.230469 49.476562 39.285156 49.371094 C 39.3125 49.320312 39.300781 49.242188 39.328125 49.191406 C 39.355469 49.148438 39.339844 49.089844 39.308594 49.015625 C 39.285156 48.960938 39.269531 48.902344 39.296875 48.886719 C 39.441406 48.804688 39.394531 48.59375 39.394531 48.414062 L 39.355469 45.335938 L 39.363281 44.882812 C 39.363281 44.730469 39.371094 44.582031 39.347656 44.410156 C 39.328125 44.230469 39.414062 44.171875 39.421875 44.027344 C 39.421875 44.015625 39.398438 43.976562 39.378906 43.949219 C 39.355469 43.925781 39.316406 43.882812 39.300781 43.875 C 39.09375 43.765625 39.019531 43.828125 39.03125 43.984375 C 39.054688 44.324219 39.058594 44.640625 39.042969 44.941406 C 39.035156 45.0625 39.035156 45.191406 39.039062 45.328125 C 39.046875 45.476562 39.082031 45.648438 38.957031 45.679688 C 38.964844 45.769531 38.96875 45.855469 38.984375 45.949219 C 38.992188 46 39.039062 46.082031 39.039062 46.121094 C 39.019531 46.433594 39.117188 46.835938 38.921875 47.007812 C 38.894531 47.027344 38.894531 47.074219 38.894531 47.117188 C 38.902344 47.40625 38.84375 47.652344 38.894531 47.976562 C 38.917969 48.121094 38.902344 48.238281 38.898438 48.367188 C 38.894531 48.589844 38.878906 48.808594 38.878906 49.039062 C 38.882812 49.226562 38.921875 49.4375 38.804688 49.550781 C 38.789062 49.566406 38.84375 49.628906 38.828125 49.644531 C 38.777344 49.703125 38.898438 49.859375 38.859375 49.914062 C 38.816406 49.980469 38.871094 50.085938 38.878906 50.171875 C 38.894531 50.335938 39 50.546875 38.804688 50.59375 C 38.792969 50.597656 38.808594 50.625 38.820312 50.644531 C 38.886719 50.761719 38.707031 50.757812 38.828125 50.898438 C 38.984375 51.078125 38.796875 51.074219 38.777344 51.160156 C 38.769531 51.183594 38.765625 51.214844 38.785156 51.25 C 38.917969 51.464844 38.972656 51.636719 38.796875 51.710938 C 38.785156 51.71875 38.785156 51.734375 38.792969 51.753906 C 38.859375 51.882812 38.75 51.9375 38.808594 52.054688 C 38.875 52.1875 38.742188 52.21875 38.753906 52.324219 C 38.789062 52.652344 38.773438 52.960938 38.722656 53.253906 C 38.714844 53.308594 38.773438 53.382812 38.800781 53.449219 C 38.816406 53.480469 38.859375 53.527344 38.839844 53.539062 C 38.714844 53.605469 38.746094 53.730469 38.746094 53.84375 C 38.746094 54.027344 38.808594 54.230469 38.617188 54.351562 C 38.589844 54.367188 38.589844 54.398438 38.59375 54.429688 C 38.625 54.707031 38.523438 54.953125 38.679688 55.261719 C 38.589844 55.332031 38.808594 55.488281 38.628906 55.535156 C 38.621094 55.605469 38.585938 55.667969 38.617188 55.746094 C 38.652344 55.824219 38.664062 55.890625 38.613281 55.949219 C 38.574219 55.996094 38.582031 56.054688 38.578125 56.113281 L 38.574219 57.097656 C 38.570312 57.226562 38.546875 57.351562 38.71875 57.492188 C 38.617188 57.546875 38.75 57.636719 38.699219 57.695312 C 38.628906 57.78125 38.542969 57.859375 38.480469 57.949219 C 38.417969 58.039062 38.390625 58.136719 38.488281 58.246094 C 38.613281 58.386719 38.621094 58.507812 38.519531 58.625 C 38.5 58.648438 38.507812 58.683594 38.53125 58.710938 C 38.609375 58.800781 38.605469 58.882812 38.519531 58.957031 C 38.453125 59.019531 38.574219 59.101562 38.484375 59.164062 C 38.375 59.238281 38.570312 59.332031 38.492188 59.414062 C 38.433594 59.472656 38.4375 59.550781 38.4375 59.621094 L 38.449219 60.691406 C 38.449219 60.703125 38.449219 60.714844 38.453125 60.726562 L 38.523438 61.171875 L 38.835938 61.109375 C 38.878906 61.101562 38.917969 61.078125 38.957031 61.011719 C 38.980469 60.96875 39.003906 60.972656 39.035156 61.007812 C 39.128906 61.117188 39.226562 61.109375 39.324219 61.097656 C 39.464844 61.078125 39.605469 61.125 39.742188 61.011719 C 39.878906 60.898438 40.015625 61.113281 40.152344 61.0625 C 40.375 60.980469 40.597656 61.003906 40.820312 61.125 C 40.867188 61.148438 40.875 60.96875 40.910156 60.945312 C 40.945312 60.921875 40.988281 60.980469 41.027344 61 C 41.09375 61.039062 41.164062 61.117188 41.234375 61.109375 C 41.316406 61.097656 41.394531 61.109375 41.476562 61.15625 C 41.519531 61.175781 41.5625 61.175781 41.605469 61.164062 C 41.671875 61.144531 41.742188 61.105469 41.808594 61.082031 C 41.835938 61.074219 41.863281 61.074219 41.890625 61.085938 C 42.101562 61.210938 42.308594 61.117188 42.515625 61.078125 C 42.554688 61.070312 42.589844 60.992188 42.636719 61.042969 C 42.730469 61.152344 42.832031 61.101562 42.929688 61.105469 C 43.011719 61.109375 43.09375 61.101562 43.179688 61.097656 C 43.261719 61.089844 43.34375 61.039062 43.425781 60.996094 C 43.503906 60.953125 43.589844 61.113281 43.671875 61.039062 C 43.738281 60.976562 43.800781 60.945312 43.871094 61.023438 C 43.910156 61.066406 43.953125 61.0625 43.996094 61.0625 L 44.40625 61.046875 L 44.832031 61.03125 L 44.808594 60.625 Z M 39.316406 43.871094 C 39.4375 44.023438 39.5 44.074219 39.570312 44.078125 L 40.507812 44.125 L 40.890625 44.136719 C 41.03125 44.136719 41.183594 44.167969 41.257812 44.050781 C 41.449219 44.179688 41.550781 44.132812 41.683594 44.144531 C 41.8125 44.152344 41.941406 44.15625 42.054688 44.117188 C 42.132812 44.085938 42.199219 44.011719 42.320312 44.144531 C 42.542969 44.109375 42.796875 44.214844 42.996094 44.039062 C 43.035156 44.007812 43.074219 44.054688 43.113281 44.070312 C 43.179688 44.097656 43.25 44.117188 43.3125 44.105469 C 43.359375 44.097656 43.402344 44.011719 43.453125 44.011719 C 43.460938 44.011719 43.472656 44.015625 43.484375 44.023438 C 43.480469 44.035156 43.476562 44.046875 43.476562 44.058594 C 43.476562 44.140625 43.566406 44.222656 43.597656 44.304688 C 43.613281 44.34375 43.613281 44.386719 43.585938 44.429688 C 43.417969 44.667969 43.398438 44.898438 43.609375 45.128906 C 43.632812 45.152344 43.621094 45.1875 43.597656 45.210938 C 43.542969 45.269531 43.574219 45.320312 43.632812 45.371094 C 43.691406 45.421875 43.691406 45.480469 43.628906 45.535156 C 43.550781 45.601562 43.515625 45.667969 43.542969 45.742188 C 43.566406 45.808594 43.660156 45.867188 43.601562 45.941406 C 43.5625 45.992188 43.679688 46.046875 43.613281 46.101562 C 43.53125 46.175781 43.675781 46.238281 43.660156 46.304688 C 43.644531 46.363281 43.695312 46.421875 43.65625 46.46875 C 43.507812 46.652344 43.585938 46.832031 43.59375 47.011719 C 43.601562 47.140625 43.625 47.265625 43.628906 47.390625 L 43.664062 48.570312 C 43.664062 48.625 43.675781 48.679688 43.710938 48.734375 C 43.785156 48.839844 43.789062 48.945312 43.742188 49.0625 C 43.664062 49.242188 43.648438 49.425781 43.824219 49.597656 C 43.867188 49.640625 43.835938 49.679688 43.800781 49.71875 C 43.726562 49.800781 43.746094 49.886719 43.792969 49.96875 C 43.8125 50 43.875 50.007812 43.964844 49.992188 C 43.996094 49.984375 44.058594 49.976562 44.070312 49.984375 C 44.113281 50.003906 44.152344 50.027344 44.164062 50.050781 C 44.175781 50.078125 44.175781 50.113281 44.136719 50.132812 C 43.851562 50.273438 43.730469 50.4375 43.644531 50.605469 C 43.597656 50.6875 43.601562 50.773438 43.859375 50.816406 C 43.964844 50.835938 43.867188 50.894531 43.925781 50.925781 C 43.988281 50.953125 44.101562 50.96875 44.175781 50.996094 C 44.238281 51.019531 44.179688 51.089844 44.09375 51.101562 C 44.023438 51.113281 43.953125 51.121094 43.882812 51.128906 C 43.726562 51.152344 43.65625 51.199219 43.664062 51.261719 C 43.675781 51.320312 43.746094 51.359375 43.871094 51.394531 C 44.085938 51.460938 44.101562 51.53125 43.980469 51.613281 C 43.921875 51.652344 43.847656 51.683594 43.789062 51.722656 C 43.710938 51.773438 43.671875 51.828125 43.746094 51.882812 C 43.835938 51.945312 43.878906 52.007812 43.859375 52.082031 C 43.847656 52.125 43.835938 52.167969 43.800781 52.207031 C 43.738281 52.269531 43.8125 52.308594 43.917969 52.351562 C 43.992188 52.378906 44.054688 52.414062 44.011719 52.460938 C 43.964844 52.515625 43.921875 52.570312 44 52.621094 C 44.097656 52.6875 43.941406 52.761719 44.03125 52.824219 C 44.089844 52.867188 43.988281 52.902344 43.972656 52.945312 C 43.945312 53.015625 43.914062 53.082031 43.953125 53.15625 C 43.960938 53.207031 43.972656 53.265625 43.980469 53.320312 C 43.988281 53.351562 44.117188 53.382812 44.222656 53.386719 C 44.429688 53.386719 44.511719 53.371094 44.585938 53.3125 C 44.71875 53.207031 44.796875 53.101562 44.6875 52.988281 C 44.753906 52.914062 44.585938 52.851562 44.628906 52.785156 C 44.6875 52.703125 44.617188 52.621094 44.675781 52.539062 C 44.742188 52.4375 44.746094 52.347656 44.628906 52.253906 C 44.546875 52.191406 44.542969 52.121094 44.605469 52.050781 C 44.65625 51.996094 44.703125 51.941406 44.710938 51.886719 C 44.726562 51.746094 44.722656 51.605469 44.714844 51.464844 C 44.714844 51.425781 44.710938 51.378906 44.664062 51.34375 C 44.53125 51.253906 44.523438 51.164062 44.644531 51.066406 C 44.703125 51.015625 44.695312 50.953125 44.691406 50.898438 C 44.6875 50.828125 44.652344 50.761719 44.636719 50.691406 C 44.625 50.621094 44.578125 50.554688 44.539062 50.488281 C 44.507812 50.425781 44.578125 50.351562 44.601562 50.285156 C 44.605469 50.269531 44.601562 50.253906 44.585938 50.242188 C 44.433594 50.15625 44.609375 50.050781 44.511719 49.960938 C 44.671875 49.761719 44.597656 49.574219 44.476562 49.382812 C 44.449219 49.332031 44.480469 49.273438 44.433594 49.21875 C 44.566406 49.152344 44.425781 49.082031 44.480469 49.019531 C 44.566406 48.921875 44.5625 48.828125 44.554688 48.730469 C 44.515625 48.265625 44.488281 47.804688 44.460938 47.34375 C 44.457031 47.273438 44.425781 47.195312 44.496094 47.136719 C 44.589844 47.050781 44.484375 46.96875 44.550781 46.890625 C 44.601562 46.832031 44.464844 46.792969 44.515625 46.730469 C 44.570312 46.664062 44.554688 46.59375 44.574219 46.527344 C 44.589844 46.464844 44.523438 46.421875 44.382812 46.390625 C 44.242188 46.359375 44.210938 46.308594 44.292969 46.25 C 44.386719 46.183594 44.40625 46.113281 44.355469 46.046875 C 44.300781 45.980469 44.28125 45.917969 44.308594 45.84375 C 44.363281 45.691406 44.359375 45.535156 44.398438 45.382812 C 44.417969 45.3125 44.558594 45.242188 44.484375 45.175781 C 44.390625 45.097656 44.464844 45.011719 44.414062 44.933594 C 44.308594 44.773438 44.253906 44.601562 44.367188 44.433594 C 44.425781 44.351562 44.375 44.304688 44.195312 44.273438 C 44.164062 44.222656 44.3125 44.210938 44.347656 44.179688 C 44.410156 44.125 44.277344 44.078125 44.28125 44.023438 C 44.285156 43.910156 44.289062 43.792969 44.265625 43.679688 L 44.210938 43.390625 L 44.007812 43.429688 L 43.972656 43.433594 C 43.835938 43.464844 43.683594 43.167969 43.546875 43.382812 C 43.488281 43.34375 43.429688 43.28125 43.371094 43.269531 C 43.222656 43.246094 43.0625 43.214844 42.9375 43.328125 C 42.808594 43.445312 42.625 43.214844 42.492188 43.292969 C 42.417969 43.34375 42.332031 43.363281 42.265625 43.429688 C 42.195312 43.496094 42.121094 43.511719 42.007812 43.414062 C 41.875 43.304688 41.769531 43.3125 41.683594 43.355469 C 41.632812 43.375 41.609375 43.460938 41.554688 43.460938 C 41.5 43.464844 41.414062 43.386719 41.34375 43.359375 C 41.253906 43.320312 41.1875 43.339844 41.15625 43.417969 C 41.144531 43.445312 41.125 43.480469 41.097656 43.464844 C 40.96875 43.390625 40.933594 43.480469 40.871094 43.515625 C 40.761719 43.578125 40.667969 43.671875 40.445312 43.519531 C 40.210938 43.363281 40.210938 43.550781 40.058594 43.5 C 40.042969 43.574219 39.988281 43.597656 39.933594 43.613281 C 39.886719 43.628906 39.820312 43.613281 39.71875 43.554688 C 39.644531 43.507812 39.582031 43.484375 39.566406 43.515625 C 39.539062 43.554688 39.492188 43.558594 39.390625 43.503906 C 39.292969 43.457031 39.210938 43.425781 39.125 43.398438 C 39.058594 43.375 39.058594 43.421875 39.082031 43.476562 C 39.125 43.589844 39.195312 43.71875 39.316406 43.871094 Z M 44.714844 58.632812 C 44.773438 58.496094 44.792969 58.355469 44.820312 58.21875 C 44.851562 58.078125 44.84375 57.9375 44.835938 57.796875 C 44.824219 57.660156 44.789062 57.519531 44.765625 57.382812 C 44.648438 57.316406 44.757812 57.246094 44.777344 57.179688 C 44.789062 57.140625 44.792969 57.140625 44.570312 57.136719 C 44.539062 57.132812 44.484375 57.132812 44.480469 57.128906 C 44.476562 57.101562 44.457031 57.066406 44.492188 57.054688 C 44.621094 57 44.773438 56.957031 44.765625 56.875 C 44.761719 56.808594 44.757812 56.738281 44.746094 56.667969 C 44.742188 56.628906 44.683594 56.617188 44.601562 56.632812 C 44.515625 56.648438 44.4375 56.644531 44.417969 56.617188 C 44.398438 56.59375 44.402344 56.558594 44.441406 56.542969 C 44.570312 56.492188 44.757812 56.457031 44.632812 56.371094 C 44.664062 56.261719 44.667969 56.152344 44.585938 56.046875 C 44.5625 56.011719 44.605469 55.957031 44.667969 55.929688 C 44.863281 55.84375 44.890625 55.765625 44.769531 55.660156 C 44.6875 55.589844 44.71875 55.5 44.707031 55.414062 C 44.6875 55.246094 44.710938 55.078125 44.648438 54.914062 C 44.609375 54.816406 44.59375 54.726562 44.660156 54.628906 C 44.699219 54.574219 44.636719 54.523438 44.574219 54.472656 C 44.539062 54.445312 44.558594 54.421875 44.636719 54.402344 C 44.867188 54.34375 44.832031 54.253906 44.828125 54.171875 C 44.828125 54.113281 44.75 54.070312 44.601562 54.046875 C 44.503906 54.035156 44.484375 54.015625 44.554688 53.984375 C 44.714844 53.917969 44.820312 53.851562 44.6875 53.757812 C 44.644531 53.730469 44.695312 53.679688 44.703125 53.636719 C 44.722656 53.566406 44.722656 53.566406 44.574219 53.542969 C 44.441406 53.527344 44.304688 53.503906 44.164062 53.492188 C 44.101562 53.488281 44.011719 53.492188 43.953125 53.503906 C 43.898438 53.515625 43.820312 53.546875 43.828125 53.5625 C 43.875 53.6875 43.96875 53.804688 44.113281 53.914062 C 44.160156 53.953125 44.207031 53.996094 44.152344 54.03125 C 44.023438 54.113281 43.988281 54.1875 44.128906 54.265625 C 44.144531 54.273438 44.140625 54.292969 44.128906 54.304688 C 44.027344 54.371094 44.035156 54.4375 44.128906 54.5 C 44.203125 54.554688 44.078125 54.570312 43.984375 54.59375 C 43.898438 54.613281 43.917969 54.632812 43.996094 54.65625 C 44.167969 54.710938 44.164062 54.710938 44.046875 54.785156 C 44.007812 54.808594 43.964844 54.832031 43.9375 54.859375 C 43.925781 54.867188 43.9375 54.890625 43.957031 54.894531 C 44.179688 54.9375 44.160156 54.980469 43.949219 55.027344 C 43.949219 55.078125 43.96875 55.132812 43.941406 55.183594 C 43.910156 55.242188 43.90625 55.296875 43.96875 55.347656 C 44.09375 55.453125 44.140625 55.554688 43.980469 55.667969 C 43.933594 55.703125 43.929688 55.75 43.921875 55.789062 C 43.894531 55.929688 43.902344 56.070312 43.777344 56.207031 C 43.742188 56.246094 43.757812 56.292969 43.792969 56.328125 C 43.886719 56.421875 43.917969 56.515625 43.925781 56.617188 C 43.933594 56.742188 43.953125 56.867188 43.972656 56.992188 C 43.984375 57.089844 43.96875 57.1875 43.878906 57.28125 C 43.832031 57.332031 43.878906 57.367188 43.949219 57.394531 C 44.082031 57.453125 44.121094 57.507812 44.019531 57.582031 C 43.949219 57.632812 43.894531 57.6875 43.855469 57.742188 C 43.828125 57.78125 43.847656 57.832031 43.945312 57.851562 C 44.089844 57.882812 44.195312 57.921875 44.039062 57.976562 C 43.816406 58.046875 43.988281 58.136719 43.902344 58.207031 C 43.800781 58.296875 43.964844 58.371094 43.921875 58.453125 C 43.886719 58.515625 43.96875 58.558594 44.03125 58.609375 C 44.121094 58.683594 44.214844 58.757812 44.324219 58.828125 C 44.351562 58.84375 44.433594 58.847656 44.496094 58.859375 C 44.574219 58.78125 44.679688 58.707031 44.714844 58.632812 Z M 44.714844 58.632812 " fill-opacity="1" fill-rule="nonzero"/><path fill="#c5ded8" d="M 48.996094 42.019531 L 68.257812 42.019531 L 68.257812 56.902344 L 48.800781 56.816406 Z M 25.53125 42.414062 L 4.253906 42.675781 L 4.496094 55.886719 L 25.53125 56.816406 Z M 25.53125 42.414062 " fill-opacity="1" fill-rule="nonzero"/></svg>