<svg xmlns="http://www.w3.org/2000/svg" xmlns:xlink="http://www.w3.org/1999/xlink" width="100" zoomAndPan="magnify" viewBox="0 0 75 74.999997" height="100" preserveAspectRatio="xMidYMid meet" version="1.0"><defs><clipPath id="8a4a09728f"><path d="M 1.3125 67 L 74 67 L 74 75 L 1.3125 75 Z M 1.3125 67 " clip-rule="nonzero"/></clipPath><clipPath id="7f714d5559"><path d="M 1.3125 0 L 74 0 L 74 25 L 1.3125 25 Z M 1.3125 0 " clip-rule="nonzero"/></clipPath></defs><g clip-path="url(#8a4a09728f)"><path fill="#455fb5" d="M 73.816406 74.980469 L 1.59375 74.980469 L 1.59375 67.65625 L 73.816406 67.65625 L 73.816406 74.980469 " fill-opacity="1" fill-rule="nonzero"/></g><path fill="#363f4d" d="M 67.050781 31.621094 L 67.050781 60.582031 L 68.679688 60.582031 L 68.679688 62.773438 L 70.375 62.773438 L 70.375 64.53125 L 55.988281 64.53125 L 55.988281 62.773438 L 57.679688 62.773438 L 57.679688 60.582031 L 59.3125 60.582031 L 59.3125 31.621094 L 57.679688 31.621094 L 57.679688 29.429688 L 55.988281 29.429688 L 55.988281 27.371094 L 70.375 27.371094 L 70.375 29.429688 L 68.679688 29.429688 L 68.679688 31.621094 L 67.050781 31.621094 " fill-opacity="1" fill-rule="nonzero"/><path fill="#363f4d" d="M 16.101562 31.621094 L 16.101562 60.582031 L 17.734375 60.582031 L 17.734375 62.773438 L 19.425781 62.773438 L 19.425781 64.53125 L 5.039062 64.53125 L 5.039062 62.773438 L 6.730469 62.773438 L 6.730469 60.582031 L 8.359375 60.582031 L 8.359375 31.621094 L 6.730469 31.621094 L 6.730469 29.429688 L 5.039062 29.429688 L 5.039062 27.371094 L 19.425781 27.371094 L 19.425781 29.429688 L 17.734375 29.429688 L 17.734375 31.621094 L 16.101562 31.621094 " fill-opacity="1" fill-rule="nonzero"/><path fill="#363f4d" d="M 41.578125 31.621094 L 41.578125 60.582031 L 43.207031 60.582031 L 43.207031 62.773438 L 44.898438 62.773438 L 44.898438 64.53125 L 30.515625 64.53125 L 30.515625 62.773438 L 32.207031 62.773438 L 32.207031 60.582031 L 33.835938 60.582031 L 33.835938 31.621094 L 32.207031 31.621094 L 32.207031 29.429688 L 30.515625 29.429688 L 30.515625 27.371094 L 44.898438 27.371094 L 44.898438 29.429688 L 43.207031 29.429688 L 43.207031 31.621094 L 41.578125 31.621094 " fill-opacity="1" fill-rule="nonzero"/><g clip-path="url(#7f714d5559)"><path fill="#455fb5" d="M 55.195312 21.632812 C 51.144531 21.632812 48.777344 18.589844 48.777344 14.722656 C 48.777344 10.65625 51.386719 7.617188 55.417969 7.617188 C 59.605469 7.617188 61.890625 10.734375 61.890625 14.480469 C 61.890625 18.933594 59.179688 21.632812 55.195312 21.632812 Z M 42.9375 20.785156 C 41.988281 21.105469 40.1875 21.550781 38.386719 21.550781 C 35.894531 21.550781 34.09375 20.925781 32.839844 19.71875 C 31.582031 18.550781 30.894531 16.777344 30.917969 14.785156 C 30.9375 10.273438 34.238281 7.695312 38.710938 7.695312 C 40.46875 7.695312 41.824219 8.039062 42.492188 8.359375 L 41.847656 10.816406 C 41.097656 10.496094 40.167969 10.234375 38.667969 10.234375 C 36.097656 10.234375 34.15625 11.683594 34.15625 14.621094 C 34.15625 17.421875 35.917969 19.074219 38.445312 19.074219 C 39.152344 19.074219 39.722656 18.992188 39.964844 18.871094 L 39.964844 16.03125 L 37.859375 16.03125 L 37.859375 13.636719 L 42.9375 13.636719 Z M 24.8125 21.410156 L 21.578125 21.410156 L 16.355469 11.402344 L 16.355469 21.410156 L 13.519531 21.410156 L 13.519531 7.835938 L 17.121094 7.835938 L 21.980469 17.460938 L 21.980469 7.835938 L 24.8125 7.835938 Z M 68.996094 5 L 57.714844 5 C 52.117188 1.90625 45.203125 -0.0195312 37.707031 -0.0195312 C 30.210938 -0.0195312 23.296875 1.90625 17.699219 5 L 6.417969 5 C 3.660156 5 1.425781 7.222656 1.425781 9.960938 L 1.425781 24.246094 L 73.984375 24.246094 L 73.984375 9.960938 C 73.984375 7.222656 71.75 5 68.996094 5 " fill-opacity="1" fill-rule="nonzero"/></g><path fill="#455fb5" d="M 55.332031 10.050781 C 53.25 10.050781 52.035156 12.027344 52.035156 14.664062 C 52.035156 17.320312 53.289062 19.195312 55.355469 19.195312 C 57.441406 19.195312 58.632812 17.21875 58.632812 14.582031 C 58.632812 12.144531 57.460938 10.050781 55.332031 10.050781 " fill-opacity="1" fill-rule="nonzero"/></svg>