<svg xmlns="http://www.w3.org/2000/svg" xmlns:xlink="http://www.w3.org/1999/xlink" width="100" zoomAndPan="magnify" viewBox="0 0 75 74.999997" height="100" preserveAspectRatio="xMidYMid meet" version="1.0"><defs><clipPath id="c3ea5e7f35"><path d="M 4.210938 62 L 71.476562 62 L 71.476562 68.992188 L 4.210938 68.992188 Z M 4.210938 62 " clip-rule="nonzero"/></clipPath><clipPath id="c2aa35b831"><path d="M 4.210938 0 L 71.476562 0 L 71.476562 23 L 4.210938 23 Z M 4.210938 0 " clip-rule="nonzero"/></clipPath><clipPath id="b8d86e6d08"><path d="M 25 72 L 31 72 L 31 74.394531 L 25 74.394531 Z M 25 72 " clip-rule="nonzero"/></clipPath><clipPath id="0e91cb1dc0"><path d="M 17.261719 70 L 21 70 L 21 73 L 17.261719 73 Z M 17.261719 70 " clip-rule="nonzero"/></clipPath><clipPath id="09076d0027"><path d="M 17.261719 72 L 23 72 L 23 74.394531 L 17.261719 74.394531 Z M 17.261719 72 " clip-rule="nonzero"/></clipPath><clipPath id="d5591f48f1"><path d="M 17.261719 45 L 28 45 L 28 72 L 17.261719 72 Z M 17.261719 45 " clip-rule="nonzero"/></clipPath><clipPath id="ca7325998c"><path d="M 22 27.824219 L 26 27.824219 L 26 30 L 22 30 Z M 22 27.824219 " clip-rule="nonzero"/></clipPath><clipPath id="41872ee30b"><path d="M 35 35 L 41.410156 35 L 41.410156 37 L 35 37 Z M 35 35 " clip-rule="nonzero"/></clipPath></defs><g clip-path="url(#c3ea5e7f35)"><path fill="#455fb5" d="M 71.257812 68.972656 L 4.46875 68.972656 L 4.46875 62.234375 L 71.257812 62.234375 L 71.257812 68.972656 " fill-opacity="1" fill-rule="nonzero"/></g><path fill="#363f4d" d="M 65 29.085938 L 65 55.726562 L 66.507812 55.726562 L 66.507812 57.742188 L 68.070312 57.742188 L 68.070312 59.359375 L 54.769531 59.359375 L 54.769531 57.742188 L 56.332031 57.742188 L 56.332031 55.726562 L 57.839844 55.726562 L 57.839844 29.085938 L 56.332031 29.085938 L 56.332031 27.070312 L 54.769531 27.070312 L 54.769531 25.179688 L 68.070312 25.179688 L 68.070312 27.070312 L 66.507812 27.070312 L 66.507812 29.085938 L 65 29.085938 " fill-opacity="1" fill-rule="nonzero"/><path fill="#363f4d" d="M 17.882812 29.085938 L 17.882812 55.726562 L 19.390625 55.726562 L 19.390625 57.742188 L 20.957031 57.742188 L 20.957031 59.359375 L 7.652344 59.359375 L 7.652344 57.742188 L 9.21875 57.742188 L 9.21875 55.726562 L 10.726562 55.726562 L 10.726562 29.085938 L 9.21875 29.085938 L 9.21875 27.070312 L 7.652344 27.070312 L 7.652344 25.179688 L 20.957031 25.179688 L 20.957031 27.070312 L 19.390625 27.070312 L 19.390625 29.085938 L 17.882812 29.085938 " fill-opacity="1" fill-rule="nonzero"/><path fill="#363f4d" d="M 41.441406 29.085938 L 41.441406 55.726562 L 42.949219 55.726562 L 42.949219 57.742188 L 44.515625 57.742188 L 44.515625 59.359375 L 31.210938 59.359375 L 31.210938 57.742188 L 32.777344 57.742188 L 32.777344 55.726562 L 34.285156 55.726562 L 34.285156 29.085938 L 32.777344 29.085938 L 32.777344 27.070312 L 31.210938 27.070312 L 31.210938 25.179688 L 44.515625 25.179688 L 44.515625 27.070312 L 42.949219 27.070312 L 42.949219 29.085938 L 41.441406 29.085938 " fill-opacity="1" fill-rule="nonzero"/><g clip-path="url(#c2aa35b831)"><path fill="#455fb5" d="M 54.035156 19.898438 C 50.289062 19.898438 48.101562 17.097656 48.101562 13.542969 C 48.101562 9.800781 50.515625 7.003906 54.238281 7.003906 C 58.113281 7.003906 60.230469 9.875 60.230469 13.320312 C 60.230469 17.414062 57.71875 19.898438 54.035156 19.898438 Z M 42.699219 19.121094 C 41.824219 19.414062 40.15625 19.824219 38.492188 19.824219 C 36.1875 19.824219 34.523438 19.25 33.363281 18.136719 C 32.199219 17.0625 31.5625 15.433594 31.582031 13.601562 C 31.601562 9.449219 34.652344 7.078125 38.789062 7.078125 C 40.417969 7.078125 41.671875 7.394531 42.289062 7.691406 L 41.691406 9.949219 C 41 9.652344 40.136719 9.414062 38.753906 9.414062 C 36.375 9.414062 34.578125 10.746094 34.578125 13.449219 C 34.578125 16.027344 36.207031 17.542969 38.546875 17.542969 C 39.199219 17.542969 39.726562 17.46875 39.949219 17.359375 L 39.949219 14.75 L 38.003906 14.75 L 38.003906 12.542969 L 42.699219 12.542969 Z M 25.941406 19.691406 L 22.945312 19.691406 L 18.117188 10.488281 L 18.117188 19.691406 L 15.496094 19.691406 L 15.496094 7.210938 L 18.828125 7.210938 L 23.320312 16.0625 L 23.320312 7.210938 L 25.941406 7.210938 Z M 66.796875 4.597656 L 56.367188 4.597656 C 51.1875 1.753906 44.792969 -0.015625 37.863281 -0.015625 C 30.929688 -0.015625 24.539062 1.753906 19.359375 4.597656 L 8.925781 4.597656 C 6.378906 4.597656 4.3125 6.644531 4.3125 9.164062 L 4.3125 22.304688 L 71.414062 22.304688 L 71.414062 9.164062 C 71.414062 6.644531 69.347656 4.597656 66.796875 4.597656 " fill-opacity="1" fill-rule="nonzero"/></g><path fill="#455fb5" d="M 54.164062 9.246094 C 52.238281 9.246094 51.113281 11.0625 51.113281 13.488281 C 51.113281 15.933594 52.273438 17.65625 54.183594 17.65625 C 56.109375 17.65625 57.214844 15.839844 57.214844 13.414062 C 57.214844 11.171875 56.128906 9.246094 54.164062 9.246094 " fill-opacity="1" fill-rule="nonzero"/><path fill="#bfdde1" d="M 38.183594 32.683594 L 38.117188 32.851562 C 38.117188 32.851562 38.074219 32.902344 37.949219 32.964844 C 37.867188 33.007812 37.542969 33.332031 37.328125 33.558594 C 37.191406 33.703125 37.085938 33.867188 37.015625 34.050781 L 35.652344 37.648438 C 35.585938 37.785156 35.558594 37.914062 35.550781 38.019531 C 35.542969 38.148438 35.59375 38.277344 35.691406 38.367188 C 36.042969 38.695312 36.382812 38.808594 36.382812 38.808594 C 36.382812 38.808594 36.71875 38.933594 37.203125 38.90625 C 37.339844 38.898438 37.464844 38.832031 37.542969 38.726562 C 37.605469 38.640625 37.675781 38.527344 37.714844 38.382812 L 39.078125 34.785156 C 39.144531 34.601562 39.175781 34.40625 39.167969 34.214844 C 39.152344 33.90625 39.125 33.453125 39.089844 33.371094 C 39.035156 33.246094 39.035156 33.179688 39.035156 33.179688 L 39.101562 33.011719 L 38.175781 32.667969 C 38.179688 32.671875 38.183594 32.675781 38.183594 32.683594 " fill-opacity="1" fill-rule="nonzero"/><path fill="#51a1a7" d="M 39.320312 32.566406 C 39.320312 32.5625 39.316406 32.554688 39.3125 32.550781 L 38.820312 32.375 L 38.316406 32.199219 L 38.164062 32.59375 C 38.164062 32.601562 38.15625 32.605469 38.148438 32.601562 C 38.140625 32.601562 38.132812 32.605469 38.132812 32.609375 L 38.121094 32.636719 C 38.117188 32.640625 38.121094 32.648438 38.128906 32.652344 L 38.175781 32.667969 L 39.101562 33.011719 C 39.101562 33.003906 39.109375 33 39.117188 33.003906 L 39.160156 33.019531 C 39.167969 33.019531 39.175781 33.019531 39.179688 33.011719 L 39.1875 32.984375 C 39.191406 32.980469 39.1875 32.972656 39.179688 32.96875 C 39.171875 32.96875 39.171875 32.960938 39.171875 32.953125 L 39.320312 32.566406 " fill-opacity="1" fill-rule="nonzero"/><path fill="#558691" d="M 36.722656 34.820312 C 36.722656 34.820312 37.609375 35.402344 38.769531 35.59375 L 38.121094 37.304688 C 38.121094 37.304688 36.921875 37.242188 36.117188 36.425781 L 36.722656 34.820312 " fill-opacity="1" fill-rule="nonzero"/><path fill="#51a1a7" d="M 38.121094 37.304688 L 38.511719 36.269531 C 38.285156 36.277344 38.007812 36.273438 37.707031 36.238281 C 36.949219 36.144531 37.328125 36.042969 36.902344 35.957031 C 36.640625 35.902344 36.433594 35.90625 36.308594 35.917969 L 36.117188 36.425781 C 36.921875 37.242188 38.121094 37.304688 38.121094 37.304688 " fill-opacity="1" fill-rule="nonzero"/><path fill="#e6b78c" d="M 26.53125 35.058594 C 26.398438 36.6875 27.613281 44.84375 31.191406 45.390625 C 34.769531 45.9375 39.914062 41.640625 39.914062 41.640625 C 39.914062 41.640625 38.714844 40.929688 38.398438 41.121094 L 31.929688 41.457031 C 31.929688 41.457031 30.140625 36.328125 28.84375 34.199219 C 28.496094 33.625 26.65625 33.546875 26.53125 35.058594 " fill-opacity="1" fill-rule="nonzero"/><path fill="#3f434c" d="M 28.808594 42.472656 C 28.808594 42.472656 28.9375 43.128906 29.863281 43.269531 C 31.246094 43.472656 38.121094 42.757812 38.121094 42.757812 L 28.808594 42.472656 " fill-opacity="1" fill-rule="nonzero"/><path fill="#51a1a7" d="M 33.417969 39.199219 L 32.363281 39.4375 L 30.722656 32.589844 L 31.78125 32.355469 L 33.417969 39.199219 " fill-opacity="1" fill-rule="nonzero"/><path fill="#558691" d="M 36.085938 38.601562 L 33.421875 39.203125 L 31.78125 32.359375 L 34.445312 31.757812 L 36.085938 38.601562 " fill-opacity="1" fill-rule="nonzero"/><path fill="#da9b1d" d="M 34.421875 34.050781 L 32.878906 34.398438 L 32.558594 33.0625 L 34.101562 32.714844 L 34.421875 34.050781 " fill-opacity="1" fill-rule="nonzero"/><path fill="#fcf8eb" d="M 33.179688 38.898438 L 32.441406 39.0625 L 32.367188 38.746094 L 33.101562 38.578125 L 33.179688 38.898438 " fill-opacity="1" fill-rule="nonzero"/><path fill="#efe7d0" d="M 28.84375 34.199219 C 28.496094 33.625 26.65625 33.546875 26.53125 35.058594 C 26.460938 35.90625 26.757812 38.53125 27.566406 40.929688 C 28.980469 40.621094 30.191406 39.902344 31.097656 39.203125 C 30.464844 37.554688 29.574219 35.398438 28.84375 34.199219 " fill-opacity="1" fill-rule="nonzero"/><path fill="#e6b78c" d="M 25.972656 70.355469 C 26.101562 70.25 27.554688 70.359375 27.921875 70.480469 C 28.105469 70.539062 27.890625 71.105469 27.960938 71.671875 C 28.019531 72.15625 28.128906 72.511719 28.050781 72.589844 C 27.691406 72.964844 26.4375 72.96875 25.738281 72.78125 C 25.75 72.753906 25.960938 71.621094 25.960938 70.953125 C 25.957031 70.816406 25.925781 70.394531 25.972656 70.355469 " fill-opacity="1" fill-rule="nonzero"/><g clip-path="url(#b8d86e6d08)"><path fill="#3f434c" d="M 27.851562 72.289062 C 28.007812 72.113281 28.175781 72.160156 28.324219 72.402344 C 28.351562 72.433594 28.378906 72.464844 28.410156 72.488281 C 29.046875 72.984375 30.785156 73.09375 30.894531 73.398438 C 31.007812 73.707031 31.339844 74.257812 29.585938 74.34375 C 28.503906 74.394531 27.949219 74.382812 27.6875 74.363281 C 27.570312 74.359375 27.464844 74.300781 27.40625 74.207031 C 27.351562 74.128906 27.265625 74.042969 27.140625 74.054688 C 27.054688 74.0625 27.007812 74.117188 26.984375 74.175781 C 26.941406 74.277344 26.835938 74.34375 26.726562 74.34375 L 25.683594 74.34375 C 25.683594 74.34375 25.308594 72.742188 25.816406 72.355469 C 26.515625 72.542969 27.472656 72.714844 27.851562 72.289062 " fill-opacity="1" fill-rule="nonzero"/></g><g clip-path="url(#0e91cb1dc0)"><path fill="#e6b78c" d="M 18.097656 70.355469 C 18.234375 70.25 19.675781 70.359375 20.035156 70.480469 C 20.214844 70.539062 19.960938 71.105469 19.988281 71.671875 C 20.015625 72.15625 20.097656 72.511719 20.015625 72.589844 C 19.628906 72.964844 18.375 72.96875 17.6875 72.78125 C 17.703125 72.753906 17.996094 71.621094 18.039062 70.953125 C 18.050781 70.816406 18.046875 70.394531 18.097656 70.355469 " fill-opacity="1" fill-rule="nonzero"/></g><g clip-path="url(#09076d0027)"><path fill="#3f434c" d="M 19.835938 72.289062 C 20.007812 72.113281 20.167969 72.160156 20.300781 72.402344 C 20.324219 72.433594 20.351562 72.464844 20.378906 72.488281 C 20.980469 72.984375 22.710938 73.09375 22.800781 73.398438 C 22.890625 73.707031 23.183594 74.257812 21.425781 74.34375 C 20.335938 74.394531 19.785156 74.382812 19.523438 74.363281 C 19.410156 74.359375 19.308594 74.300781 19.25 74.207031 C 19.203125 74.128906 19.121094 74.042969 19 74.054688 C 18.910156 74.0625 18.859375 74.117188 18.832031 74.175781 C 18.785156 74.277344 18.675781 74.34375 18.5625 74.34375 L 17.519531 74.34375 C 17.519531 74.34375 17.261719 72.742188 17.796875 72.355469 C 18.484375 72.542969 19.425781 72.714844 19.835938 72.289062 " fill-opacity="1" fill-rule="nonzero"/></g><g clip-path="url(#d5591f48f1)"><path fill="#ab5f44" d="M 18.746094 45.316406 L 18.652344 46.902344 L 18.324219 53.53125 L 18.425781 59.140625 L 17.457031 70.929688 C 17.457031 70.929688 18.714844 71.320312 19.140625 71.359375 C 20.085938 71.445312 21.011719 71.125 21.011719 71.125 C 21.011719 71.125 21.734375 66.328125 22.730469 61.25 C 22.855469 60.605469 23.5 59.828125 23.570312 59.1875 C 24.226562 53.03125 25.46875 50.828125 25.496094 50.789062 C 26.292969 49.578125 27.621094 46.007812 27.257812 45.648438 C 26.894531 45.289062 18.746094 45.316406 18.746094 45.316406 " fill-opacity="1" fill-rule="nonzero"/></g><path fill="#ab5f44" d="M 24.078125 46.527344 C 24.078125 46.527344 24.15625 54.253906 24.429688 56.816406 C 24.503906 57.507812 24.925781 59.5625 24.925781 59.5625 C 24.925781 59.5625 24.632812 65.855469 24.679688 66.429688 C 24.871094 68.703125 25.320312 71.226562 25.320312 71.226562 C 25.320312 71.226562 26.296875 71.5625 27.144531 71.53125 C 28.269531 71.488281 28.757812 71.269531 28.757812 71.269531 C 28.757812 71.269531 28.757812 70.207031 28.730469 69.5 C 28.71875 69.191406 28.757812 67.589844 28.824219 65.359375 C 28.859375 64.09375 29.273438 61.769531 29.320312 60.21875 C 29.363281 58.722656 29.042969 58.007812 29.089844 56.46875 C 29.25 51.164062 29.390625 46.246094 29.320312 46.171875 C 28.988281 45.792969 24.078125 46.527344 24.078125 46.527344 " fill-opacity="1" fill-rule="nonzero"/><path fill="#efe7d0" d="M 22.871094 32.609375 C 22.871094 32.609375 26.890625 32.257812 28.53125 33.625 C 29.707031 34.605469 29.238281 44.546875 29.625 46.535156 C 29.679688 46.804688 28.085938 47.246094 25.675781 47.667969 C 23.507812 48.050781 20.917969 48 19.699219 47.949219 C 19.140625 47.921875 18.679688 47.53125 18.582031 47 C 18.570312 46.945312 18.558594 46.882812 18.550781 46.820312 C 18.410156 45.882812 18.90625 44.101562 18.816406 42.125 C 18.699219 39.535156 18.773438 36.683594 19.109375 35.6875 C 19.535156 34.425781 20.007812 33.0625 22.871094 32.609375 " fill-opacity="1" fill-rule="nonzero"/><path fill="#3f434c" d="M 24.949219 29.203125 C 24.949219 29.203125 25.046875 29.273438 25.117188 29.386719 C 25.1875 29.503906 25.332031 29.824219 25.371094 30.070312 C 25.40625 30.320312 25.375 30.433594 25.433594 30.433594 C 25.488281 30.4375 25.472656 29.707031 25.476562 29.417969 C 25.476562 29.132812 24.785156 28.617188 24.769531 28.707031 C 24.757812 28.796875 24.949219 29.203125 24.949219 29.203125 " fill-opacity="1" fill-rule="nonzero"/><path fill="#e6b78c" d="M 23.765625 28.902344 C 23.28125 29.015625 22.945312 29.4375 22.957031 29.921875 C 22.96875 30.636719 23.085938 31.296875 23.234375 31.488281 C 23.542969 31.898438 24.089844 32.128906 24.910156 31.9375 C 25.226562 31.867188 25.5 31.394531 25.464844 30.914062 C 25.441406 30.59375 25.429688 30.335938 25.414062 30.203125 C 25.371094 29.863281 25.351562 28.730469 24.683594 28.769531 C 24.402344 28.785156 24.066406 28.832031 23.765625 28.902344 " fill-opacity="1" fill-rule="nonzero"/><path fill="#3f434c" d="M 23.699219 29.117188 C 23.785156 29.257812 23.714844 29.4375 23.554688 29.496094 C 23.441406 29.535156 23.304688 29.605469 23.226562 29.71875 C 23.105469 29.898438 23.414062 30.421875 23.316406 30.609375 C 23.21875 30.796875 22.902344 30.851562 22.789062 30.761719 C 22.503906 30.539062 22.601562 29.613281 22.605469 29.417969 C 22.613281 28.746094 23.503906 28.796875 23.699219 29.117188 " fill-opacity="1" fill-rule="nonzero"/><path fill="#e6b78c" d="M 23.183594 30.941406 C 23.183594 30.941406 23.25 31.472656 23.269531 31.980469 C 23.28125 32.375 23.234375 32.757812 23.347656 32.871094 C 23.457031 32.976562 24.542969 33.019531 24.703125 32.867188 C 24.863281 32.71875 24.449219 31.417969 24.449219 31.417969 L 23.183594 30.941406 " fill-opacity="1" fill-rule="nonzero"/><path fill="#3f434c" d="M 23.753906 30.210938 C 23.742188 30.210938 23.730469 30.203125 23.722656 30.195312 C 23.710938 30.179688 23.714844 30.15625 23.730469 30.148438 C 23.738281 30.144531 23.855469 30.066406 24.011719 30.046875 C 24.132812 30.035156 24.21875 30.125 24.222656 30.128906 C 24.234375 30.144531 24.234375 30.164062 24.21875 30.175781 C 24.203125 30.191406 24.183594 30.1875 24.167969 30.175781 C 24.167969 30.175781 24.101562 30.105469 24.023438 30.117188 C 23.878906 30.132812 23.773438 30.203125 23.773438 30.203125 C 23.765625 30.207031 23.757812 30.210938 23.753906 30.210938 " fill-opacity="1" fill-rule="nonzero"/><path fill="#3f434c" d="M 23.960938 30.082031 C 24.082031 30.042969 24.191406 30.191406 24.125 30.289062 C 24.105469 30.316406 24.074219 30.335938 24.027344 30.335938 C 23.871094 30.339844 23.828125 30.121094 23.960938 30.082031 " fill-opacity="1" fill-rule="nonzero"/><path fill="#3f434c" d="M 25.230469 30.160156 C 25.21875 30.160156 25.210938 30.15625 25.203125 30.148438 C 25.199219 30.144531 25.136719 30.074219 25.054688 30.074219 C 25.054688 30.074219 25.054688 30.074219 25.050781 30.074219 C 24.921875 30.074219 24.847656 30.140625 24.84375 30.140625 C 24.832031 30.15625 24.808594 30.152344 24.796875 30.140625 C 24.78125 30.125 24.78125 30.105469 24.796875 30.089844 C 24.800781 30.089844 24.894531 30.003906 25.050781 30.003906 C 25.054688 30.003906 25.054688 30.003906 25.054688 30.003906 C 25.171875 30.003906 25.253906 30.097656 25.257812 30.105469 C 25.269531 30.117188 25.265625 30.140625 25.253906 30.152344 C 25.246094 30.15625 25.238281 30.160156 25.230469 30.160156 " fill-opacity="1" fill-rule="nonzero"/><path fill="#3f434c" d="M 25.085938 30.035156 C 24.964844 30 24.855469 30.144531 24.921875 30.242188 C 24.9375 30.269531 24.96875 30.289062 25.015625 30.289062 C 25.175781 30.296875 25.21875 30.078125 25.085938 30.035156 " fill-opacity="1" fill-rule="nonzero"/><path fill="#3f434c" d="M 23.5625 29.949219 C 23.546875 29.949219 23.53125 29.941406 23.527344 29.925781 C 23.519531 29.90625 23.53125 29.886719 23.550781 29.882812 C 23.855469 29.789062 24.136719 29.796875 24.148438 29.796875 C 24.167969 29.800781 24.183594 29.816406 24.183594 29.835938 C 24.183594 29.851562 24.167969 29.867188 24.148438 29.867188 C 24.144531 29.867188 23.863281 29.859375 23.570312 29.949219 C 23.566406 29.949219 23.5625 29.949219 23.5625 29.949219 " fill-opacity="1" fill-rule="nonzero"/><path fill="#3f434c" d="M 25.269531 29.894531 C 25.269531 29.894531 25.265625 29.894531 25.261719 29.894531 C 24.964844 29.828125 24.683594 29.859375 24.683594 29.859375 C 24.664062 29.859375 24.644531 29.847656 24.644531 29.828125 C 24.640625 29.808594 24.65625 29.792969 24.675781 29.789062 C 24.6875 29.789062 24.96875 29.757812 25.277344 29.828125 C 25.296875 29.832031 25.308594 29.851562 25.304688 29.867188 C 25.300781 29.882812 25.289062 29.894531 25.269531 29.894531 " fill-opacity="1" fill-rule="nonzero"/><path fill="#c99163" d="M 24.585938 30.085938 C 24.671875 30.09375 24.632812 30.269531 24.769531 30.378906 C 24.90625 30.492188 25.003906 30.523438 24.953125 30.628906 C 24.90625 30.730469 24.648438 30.785156 24.496094 30.695312 C 24.34375 30.605469 24.425781 30.074219 24.585938 30.085938 " fill-opacity="1" fill-rule="nonzero"/><path fill="#e6b78c" d="M 23.128906 30.492188 C 23.09375 30.402344 23.039062 30.335938 22.964844 30.304688 C 22.886719 30.273438 22.785156 30.285156 22.722656 30.472656 C 22.597656 30.824219 23.015625 31.351562 23.15625 31.085938 C 23.253906 30.902344 23.179688 30.632812 23.128906 30.492188 " fill-opacity="1" fill-rule="nonzero"/><path fill="#c99163" d="M 23.050781 31.039062 C 23.046875 31.039062 23.042969 31.039062 23.039062 31.035156 C 23.019531 31.03125 23.011719 31.011719 23.015625 30.992188 C 23.027344 30.957031 23.035156 30.894531 23.019531 30.878906 C 23.007812 30.871094 22.988281 30.871094 22.964844 30.875 C 22.929688 30.878906 22.878906 30.882812 22.851562 30.835938 C 22.824219 30.785156 22.789062 30.667969 22.800781 30.5625 C 22.816406 30.445312 22.894531 30.417969 22.898438 30.417969 C 22.917969 30.410156 22.9375 30.417969 22.945312 30.4375 C 22.949219 30.457031 22.941406 30.476562 22.921875 30.480469 C 22.921875 30.480469 22.882812 30.5 22.871094 30.570312 C 22.859375 30.660156 22.890625 30.761719 22.914062 30.804688 C 22.917969 30.808594 22.929688 30.808594 22.957031 30.804688 C 22.988281 30.800781 23.035156 30.796875 23.066406 30.828125 C 23.125 30.882812 23.089844 30.992188 23.082031 31.015625 C 23.078125 31.027344 23.066406 31.039062 23.050781 31.039062 " fill-opacity="1" fill-rule="nonzero"/><path fill="#c99163" d="M 24.34375 32.042969 C 23.960938 32.042969 23.757812 31.933594 23.746094 31.925781 C 23.730469 31.917969 23.722656 31.898438 23.734375 31.878906 C 23.742188 31.863281 23.765625 31.859375 23.78125 31.867188 C 23.785156 31.871094 24.074219 32.023438 24.609375 31.957031 C 24.625 31.953125 24.644531 31.96875 24.648438 31.988281 C 24.648438 32.007812 24.636719 32.023438 24.617188 32.027344 C 24.515625 32.039062 24.425781 32.042969 24.34375 32.042969 " fill-opacity="1" fill-rule="nonzero"/><path fill="#fcf8eb" d="M 24.347656 30.992188 C 24.347656 30.992188 24.71875 31.300781 25.046875 30.9375 L 24.347656 30.992188 " fill-opacity="1" fill-rule="nonzero"/><path fill="#3f434c" d="M 25.011719 29.730469 C 25.859375 29.707031 26.625 29.613281 26.488281 29.433594 C 26.398438 29.324219 25.464844 29.347656 25.464844 29.347656 L 23.203125 29.78125 C 23.203125 29.78125 24.152344 29.753906 25.011719 29.730469 " fill-opacity="1" fill-rule="nonzero"/><g clip-path="url(#ca7325998c)"><path fill="#d06a47" d="M 25.464844 29.347656 C 25.464844 29.347656 25.386719 28.109375 24.664062 27.996094 C 23.59375 27.824219 22.828125 28.382812 22.636719 28.941406 C 22.445312 29.5 22.566406 29.96875 22.566406 29.96875 L 23.203125 29.78125 L 25.464844 29.347656 " fill-opacity="1" fill-rule="nonzero"/></g><path fill="#fcb271" d="M 30.207031 33.175781 C 30.207031 33.175781 29.230469 32.878906 28.652344 33.523438 C 28.078125 34.164062 29.964844 37.464844 30.863281 38.191406 C 31.765625 38.917969 33.039062 37.953125 33.054688 37.425781 C 33.074219 36.898438 32.707031 36.546875 32.707031 36.546875 C 32.707031 36.546875 32.472656 36.5625 32.359375 36.402344 C 32.246094 36.242188 32.347656 35.941406 32.347656 35.941406 L 31.933594 35.335938 C 31.933594 35.335938 31.738281 35.394531 31.621094 35.257812 C 31.503906 35.117188 31.640625 34.832031 31.640625 34.832031 L 31.101562 34.082031 C 31.101562 34.082031 30.953125 34.28125 30.789062 34.097656 C 30.621094 33.910156 30.855469 33.699219 30.855469 33.699219 C 30.855469 33.699219 30.597656 33.386719 30.207031 33.175781 " fill-opacity="1" fill-rule="nonzero"/><path fill="#d88a59" d="M 31.726562 36.804688 C 31.832031 37.132812 32.550781 36.667969 32.550781 36.667969 L 32.707031 36.546875 C 32.699219 36.546875 32.46875 36.5625 32.359375 36.402344 C 32.246094 36.242188 32.347656 35.941406 32.347656 35.941406 L 32.339844 35.925781 L 32.230469 36.003906 C 32.230469 36.003906 31.621094 36.472656 31.726562 36.804688 " fill-opacity="1" fill-rule="nonzero"/><path fill="#d88a59" d="M 30.671875 35.882812 C 30.671875 35.882812 30.660156 36.261719 31.242188 35.980469 C 31.828125 35.695312 31.863281 35.527344 31.863281 35.527344 L 31.957031 35.367188 L 31.933594 35.335938 C 31.933594 35.335938 31.738281 35.394531 31.621094 35.257812 C 31.523438 35.140625 31.601562 34.921875 31.628906 34.851562 L 31.519531 34.933594 C 31.519531 34.933594 30.671875 35.507812 30.671875 35.882812 " fill-opacity="1" fill-rule="nonzero"/><path fill="#d88a59" d="M 30.628906 33.738281 C 30.628906 33.738281 29.613281 34.484375 29.921875 34.824219 C 30.234375 35.160156 31.058594 34.207031 31.058594 34.207031 L 31.113281 34.09375 L 31.101562 34.082031 C 31.101562 34.082031 30.953125 34.28125 30.789062 34.097656 C 30.632812 33.921875 30.824219 33.726562 30.851562 33.703125 C 30.777344 33.699219 30.679688 33.699219 30.628906 33.738281 " fill-opacity="1" fill-rule="nonzero"/><path fill="#d88a59" d="M 29.648438 36.023438 C 29.617188 36.039062 29.582031 36.027344 29.566406 36 C 29.546875 35.972656 29.558594 35.9375 29.589844 35.921875 C 29.617188 35.90625 29.65625 35.914062 29.671875 35.941406 C 29.6875 35.972656 29.675781 36.007812 29.648438 36.023438 " fill-opacity="1" fill-rule="nonzero"/><path fill="#d88a59" d="M 30.554688 35.347656 C 30.523438 35.363281 30.488281 35.351562 30.46875 35.324219 C 30.453125 35.296875 30.464844 35.261719 30.492188 35.246094 C 30.523438 35.230469 30.558594 35.238281 30.578125 35.265625 C 30.59375 35.296875 30.582031 35.332031 30.554688 35.347656 " fill-opacity="1" fill-rule="nonzero"/><path fill="#d88a59" d="M 30.277344 36.480469 C 30.246094 36.496094 30.207031 36.488281 30.191406 36.457031 C 30.171875 36.425781 30.183594 36.390625 30.214844 36.371094 C 30.246094 36.355469 30.285156 36.367188 30.300781 36.398438 C 30.316406 36.425781 30.308594 36.464844 30.277344 36.480469 " fill-opacity="1" fill-rule="nonzero"/><path fill="#d88a59" d="M 30.652344 37.214844 C 30.601562 37.246094 30.535156 37.226562 30.503906 37.175781 C 30.476562 37.125 30.496094 37.0625 30.546875 37.035156 C 30.597656 37.007812 30.664062 37.023438 30.691406 37.074219 C 30.722656 37.125 30.703125 37.1875 30.652344 37.214844 " fill-opacity="1" fill-rule="nonzero"/><path fill="#d88a59" d="M 30.878906 37.734375 C 30.855469 37.746094 30.828125 37.738281 30.816406 37.714844 C 30.804688 37.695312 30.8125 37.671875 30.835938 37.660156 C 30.855469 37.648438 30.882812 37.652344 30.894531 37.675781 C 30.90625 37.695312 30.898438 37.722656 30.878906 37.734375 " fill-opacity="1" fill-rule="nonzero"/><path fill="#d88a59" d="M 29.292969 34.464844 C 29.261719 34.480469 29.226562 34.472656 29.207031 34.441406 C 29.191406 34.414062 29.203125 34.378906 29.230469 34.363281 C 29.261719 34.347656 29.296875 34.355469 29.316406 34.386719 C 29.332031 34.414062 29.320312 34.449219 29.292969 34.464844 " fill-opacity="1" fill-rule="nonzero"/><path fill="#d88a59" d="M 29.332031 35.039062 C 29.316406 35.046875 29.296875 35.042969 29.285156 35.027344 C 29.277344 35.011719 29.285156 34.992188 29.300781 34.984375 C 29.316406 34.976562 29.335938 34.980469 29.34375 34.996094 C 29.355469 35.011719 29.347656 35.03125 29.332031 35.039062 " fill-opacity="1" fill-rule="nonzero"/><path fill="#d88a59" d="M 31.292969 36.628906 C 31.277344 36.636719 31.257812 36.632812 31.25 36.617188 C 31.238281 36.601562 31.246094 36.582031 31.261719 36.574219 C 31.277344 36.5625 31.296875 36.570312 31.308594 36.585938 C 31.316406 36.601562 31.308594 36.621094 31.292969 36.628906 " fill-opacity="1" fill-rule="nonzero"/><path fill="#3f434c" d="M 20.613281 43.101562 C 20.613281 43.101562 21.011719 45.945312 23.0625 46.496094 C 25.117188 47.046875 26.9375 46.359375 27.796875 45.246094 C 28.527344 44.300781 30.007812 41.777344 30.007812 41.777344 C 30.007812 41.777344 26.6875 44 25.464844 44.207031 C 24.242188 44.414062 20.613281 43.101562 20.613281 43.101562 " fill-opacity="1" fill-rule="nonzero"/><path fill="#d06a47" d="M 33.59375 36.171875 L 34.980469 33.8125 L 35.09375 33.261719 L 38.398438 34.550781 L 38.21875 34.675781 L 36.871094 37.421875 L 33.59375 36.171875 " fill-opacity="1" fill-rule="nonzero"/><path fill="#efe7d0" d="M 35.203125 35.691406 C 35.203125 35.691406 34.601562 35.230469 35.066406 34.800781 C 35.535156 34.375 36.320312 34.699219 36.570312 34.820312 C 36.824219 34.941406 37.050781 35.183594 37.097656 35.445312 C 37.144531 35.710938 36.476562 36.609375 35.203125 35.691406 " fill-opacity="1" fill-rule="nonzero"/><path fill="#d06a47" d="M 25.714844 36.425781 C 25.714844 36.425781 25.980469 35.179688 27.039062 35.390625 C 28.097656 35.601562 26.082031 39.34375 25.789062 39.304688 C 25.5 39.265625 22.746094 36.113281 23.882812 35.339844 C 25.164062 34.472656 25.714844 36.425781 25.714844 36.425781 " fill-opacity="1" fill-rule="nonzero"/><path fill="#edbe85" d="M 40.28125 42.757812 L 35.867188 42.757812 L 35.867188 35.554688 L 40.28125 35.554688 L 40.28125 42.757812 " fill-opacity="1" fill-rule="nonzero"/><path fill="#ffeeb3" d="M 35.867188 42.757812 L 28.429688 42.757812 L 28.429688 35.554688 L 35.867188 35.554688 L 35.867188 42.757812 " fill-opacity="1" fill-rule="nonzero"/><path fill="#311e69" d="M 34.882812 41.085938 L 34.644531 41.542969 L 34.710938 41.542969 L 34.710938 42.347656 L 35.058594 42.347656 L 35.058594 41.542969 L 35.125 41.542969 L 34.882812 41.085938 " fill-opacity="1" fill-rule="nonzero"/><path fill="#311e69" d="M 34.34375 41.085938 L 34.105469 41.542969 L 34.171875 41.542969 L 34.171875 42.347656 L 34.519531 42.347656 L 34.519531 41.542969 L 34.582031 41.542969 L 34.34375 41.085938 " fill-opacity="1" fill-rule="nonzero"/><path fill="#311e69" d="M 36.285156 42.347656 L 36.214844 42.347656 L 36.214844 41.574219 L 36.285156 41.574219 L 36.285156 42.347656 " fill-opacity="1" fill-rule="nonzero"/><path fill="#311e69" d="M 37.507812 42.347656 L 37.433594 42.347656 L 37.433594 41.574219 L 37.507812 41.574219 L 37.507812 42.347656 " fill-opacity="1" fill-rule="nonzero"/><path fill="#311e69" d="M 36.445312 42.347656 L 36.375 42.347656 L 36.375 41.777344 L 36.445312 41.777344 L 36.445312 42.347656 " fill-opacity="1" fill-rule="nonzero"/><path fill="#311e69" d="M 36.585938 42.347656 L 36.476562 42.347656 L 36.476562 41.777344 L 36.585938 41.777344 L 36.585938 42.347656 " fill-opacity="1" fill-rule="nonzero"/><path fill="#311e69" d="M 36.984375 42.347656 L 36.910156 42.347656 L 36.910156 41.777344 L 36.984375 41.777344 L 36.984375 42.347656 " fill-opacity="1" fill-rule="nonzero"/><path fill="#311e69" d="M 37.125 42.347656 L 37.011719 42.347656 L 37.011719 41.777344 L 37.125 41.777344 L 37.125 42.347656 " fill-opacity="1" fill-rule="nonzero"/><path fill="#311e69" d="M 36.710938 42.347656 L 36.636719 42.347656 L 36.636719 41.714844 L 36.710938 41.714844 L 36.710938 42.347656 " fill-opacity="1" fill-rule="nonzero"/><path fill="#311e69" d="M 36.851562 42.347656 L 36.738281 42.347656 L 36.738281 41.777344 L 36.851562 41.777344 L 36.851562 42.347656 " fill-opacity="1" fill-rule="nonzero"/><path fill="#311e69" d="M 37.238281 42.347656 L 37.167969 42.347656 L 37.167969 41.777344 L 37.238281 41.777344 L 37.238281 42.347656 " fill-opacity="1" fill-rule="nonzero"/><path fill="#311e69" d="M 37.378906 42.347656 L 37.269531 42.347656 L 37.269531 41.777344 L 37.378906 41.777344 L 37.378906 42.347656 " fill-opacity="1" fill-rule="nonzero"/><g clip-path="url(#41872ee30b)"><path fill="#ffeeb3" d="M 35.867188 35.554688 L 37.238281 36.5625 L 41.40625 36.5625 L 40.28125 35.554688 L 35.867188 35.554688 " fill-opacity="1" fill-rule="nonzero"/></g><path fill="#edbe85" d="M 28.429688 35.554688 L 26.753906 36.523438 L 34.894531 36.523438 L 35.867188 35.554688 L 28.429688 35.554688 " fill-opacity="1" fill-rule="nonzero"/><path fill="#e6b78c" d="M 18.96875 35.703125 C 18.835938 37.332031 20.050781 45.492188 23.628906 46.035156 C 27.207031 46.582031 32.472656 38.695312 32.472656 38.695312 L 32.285156 37.984375 C 32.039062 37.714844 31.273438 37.984375 30.957031 38.175781 L 24.601562 41.960938 C 24.601562 41.960938 22.917969 36.492188 21.378906 34.519531 C 20.832031 33.820312 19.09375 34.191406 18.96875 35.703125 " fill-opacity="1" fill-rule="nonzero"/><path fill="#e6b78c" d="M 31.574219 38.925781 C 31.574219 38.925781 31.828125 38.835938 31.960938 38.859375 C 32.097656 38.882812 32.96875 38.863281 33.195312 38.851562 C 33.421875 38.84375 33.914062 38.773438 34.164062 38.71875 C 34.417969 38.667969 34.621094 38.714844 34.613281 38.570312 C 34.609375 38.429688 33.832031 38.453125 33.832031 38.453125 C 33.832031 38.453125 34.882812 38.265625 34.984375 38.195312 C 35.085938 38.121094 35.015625 38.011719 34.945312 37.984375 C 34.945312 37.984375 35.234375 37.984375 35.207031 37.789062 C 35.175781 37.597656 34.953125 37.664062 34.953125 37.664062 C 34.953125 37.664062 35 37.546875 34.953125 37.492188 C 34.90625 37.4375 34.289062 37.441406 34.167969 37.457031 C 34.042969 37.472656 32.976562 37.558594 32.976562 37.558594 C 32.976562 37.558594 33.160156 37.453125 33.238281 37.402344 C 33.3125 37.347656 33.683594 37.304688 33.714844 37.078125 C 33.746094 36.851562 33.542969 36.902344 33.332031 37.019531 C 33.121094 37.136719 32.597656 37.164062 32.300781 37.339844 C 32.007812 37.511719 31.746094 37.882812 31.5625 37.972656 C 31.378906 38.058594 31.183594 38.84375 31.574219 38.925781 " fill-opacity="1" fill-rule="nonzero"/><path fill="#e6b78c" d="M 40.769531 41.5625 C 40.78125 41.5625 40.820312 41.558594 40.832031 41.550781 C 40.914062 41.488281 40.988281 41.296875 40.925781 41.160156 C 40.863281 41.027344 40.21875 40.949219 40.078125 41.121094 C 39.960938 41.273438 40.105469 41.410156 40.242188 41.464844 C 40.101562 41.472656 39.980469 41.507812 39.921875 41.578125 C 39.769531 41.769531 39.949219 41.921875 40.109375 41.957031 C 40.125 41.960938 40.148438 41.964844 40.171875 41.972656 C 40.082031 41.980469 40.011719 42 39.996094 42.015625 C 39.832031 42.171875 39.851562 42.425781 39.988281 42.445312 C 40.011719 42.445312 40.042969 42.449219 40.074219 42.453125 C 40.046875 42.496094 40.027344 42.546875 40.023438 42.617188 C 40.015625 42.71875 40.195312 42.753906 40.28125 42.757812 C 40.347656 42.761719 40.425781 42.691406 40.472656 42.589844 C 40.503906 42.527344 40.523438 42.457031 40.503906 42.414062 C 40.503906 42.410156 40.503906 42.410156 40.5 42.40625 C 40.539062 42.371094 40.570312 42.324219 40.59375 42.269531 C 40.628906 42.191406 40.65625 42.105469 40.632812 42.046875 C 40.648438 42.050781 40.90625 41.941406 40.804688 41.605469 C 40.800781 41.589844 40.785156 41.574219 40.769531 41.5625 " fill-opacity="1" fill-rule="nonzero"/><path fill="#efe7d0" d="M 24.148438 40.585938 C 23.542969 38.832031 22.429688 35.863281 21.378906 34.519531 C 20.832031 33.820312 19.09375 34.191406 18.96875 35.703125 C 18.890625 36.644531 19.105469 39.902344 20.121094 42.472656 C 20.726562 42.386719 22.925781 41.875 24.148438 40.585938 " fill-opacity="1" fill-rule="nonzero"/><path fill="#3f434c" d="M 24.601562 42.046875 C 24.589844 42.046875 24.582031 42.046875 24.570312 42.042969 C 24.546875 42.03125 24.523438 42.011719 24.515625 41.988281 C 24.511719 41.972656 23.988281 40.390625 23.691406 39.558594 C 23.390625 38.726562 21.769531 35.257812 21.75 35.222656 C 21.730469 35.179688 21.75 35.128906 21.796875 35.109375 C 21.839844 35.089844 21.894531 35.109375 21.914062 35.152344 C 21.980469 35.296875 23.558594 38.664062 23.855469 39.503906 C 24.109375 40.214844 24.527344 41.464844 24.652344 41.832031 L 27.644531 40.046875 C 27.683594 40.023438 27.738281 40.035156 27.765625 40.074219 C 27.789062 40.117188 27.777344 40.167969 27.734375 40.195312 L 24.648438 42.035156 C 24.632812 42.042969 24.617188 42.046875 24.601562 42.046875 " fill-opacity="1" fill-rule="nonzero"/></svg>