<svg xmlns="http://www.w3.org/2000/svg" xmlns:xlink="http://www.w3.org/1999/xlink" width="100" zoomAndPan="magnify" viewBox="0 0 75 74.999997" height="100" preserveAspectRatio="xMidYMid meet" version="1.0"><defs><clipPath id="2b004e1778"><path d="M 2 12 L 74 12 L 74 69.984375 L 2 69.984375 Z M 2 12 " clip-rule="nonzero"/></clipPath><clipPath id="91318cc138"><path d="M 0 62 L 75 62 L 75 69.984375 L 0 69.984375 Z M 0 62 " clip-rule="nonzero"/></clipPath><clipPath id="b44de3dabf"><path d="M 45 62 L 47 62 L 47 69.984375 L 45 69.984375 Z M 45 62 " clip-rule="nonzero"/></clipPath><clipPath id="94995c66d1"><path d="M 28 38 L 46 38 L 46 69.984375 L 28 69.984375 Z M 28 38 " clip-rule="nonzero"/></clipPath><clipPath id="e7699e1b34"><path d="M 0 62 L 28 62 L 28 69.984375 L 0 69.984375 Z M 0 62 " clip-rule="nonzero"/></clipPath><clipPath id="550559ca97"><path d="M 27 62 L 29 62 L 29 69.984375 L 27 69.984375 Z M 27 62 " clip-rule="nonzero"/></clipPath><clipPath id="dc6b069642"><path d="M 28 38 L 38 38 L 38 69.984375 L 28 69.984375 Z M 28 38 " clip-rule="nonzero"/></clipPath></defs><g clip-path="url(#2b004e1778)"><path fill="#e7d0a6" d="M 2.125 69.9375 L 73.144531 69.9375 L 73.144531 12.101562 L 2.125 12.101562 Z M 2.125 69.9375 " fill-opacity="1" fill-rule="nonzero"/></g><path fill="#f14624" d="M 1.992188 30.421875 L 73.007812 30.421875 L 73.007812 12.101562 L 1.992188 12.101562 Z M 1.992188 30.421875 " fill-opacity="1" fill-rule="nonzero"/><g clip-path="url(#91318cc138)"><path fill="#f14624" d="M 0.367188 69.9375 L 74.632812 69.9375 L 74.632812 62.550781 L 0.367188 62.550781 Z M 0.367188 69.9375 " fill-opacity="1" fill-rule="nonzero"/></g><path fill="#fde5c5" d="M 0.00390625 32.105469 L 74.996094 32.105469 L 74.996094 28.738281 L 0.00390625 28.738281 Z M 0.00390625 32.105469 " fill-opacity="1" fill-rule="nonzero"/><path fill="#351f17" d="M 8.386719 12.722656 C 8.386719 12.722656 10.867188 23.398438 12.109375 28.738281 C 28.730469 23.390625 46.269531 23.390625 62.890625 28.738281 C 64.132812 23.398438 66.613281 12.722656 66.613281 12.722656 L 65.671875 10.90625 C 65.671875 10.90625 27.851562 5.121094 9.328125 10.90625 C 9.0625 10.988281 8.386719 12.722656 8.386719 12.722656 " fill-opacity="1" fill-rule="nonzero"/><path fill="#fcfcfc" d="M 62.066406 26.925781 C 45.984375 21.574219 29.015625 21.574219 12.933594 26.925781 C 11.730469 21.585938 10.53125 16.246094 9.328125 10.90625 C 27.769531 4.773438 47.230469 4.773438 65.671875 10.90625 C 64.46875 16.246094 63.269531 21.585938 62.066406 26.925781 " fill-opacity="1" fill-rule="nonzero"/><path fill="#f7911c" d="M 60.902344 25.460938 C 45.550781 20.660156 29.449219 20.660156 14.097656 25.460938 C 13.109375 20.777344 12.117188 16.097656 11.128906 11.414062 C 28.425781 6.007812 46.574219 6.007812 63.871094 11.414062 C 62.882812 16.097656 61.890625 20.777344 60.902344 25.460938 " fill-opacity="1" fill-rule="nonzero"/><path fill="#351f17" d="M 23.957031 17.40625 C 23.929688 17.300781 23.902344 17.183594 23.882812 17.0625 C 23.871094 17 23.863281 16.941406 23.855469 16.882812 C 23.804688 16.429688 23.835938 16.019531 23.949219 15.648438 C 24.082031 15.222656 24.304688 14.941406 24.613281 14.800781 C 24.714844 14.757812 24.800781 14.726562 24.875 14.714844 C 24.898438 14.714844 24.917969 14.710938 24.9375 14.710938 C 25.078125 14.714844 25.15625 14.777344 25.167969 14.898438 C 25.171875 14.953125 25.167969 15.011719 25.15625 15.078125 C 25.125 15.234375 25.023438 15.5 24.851562 15.882812 C 24.589844 16.464844 24.289062 16.972656 23.957031 17.40625 M 20.632812 14.269531 C 20.636719 14.820312 20.523438 15.238281 20.289062 15.535156 C 20.136719 15.726562 19.964844 15.847656 19.765625 15.890625 C 19.730469 15.898438 19.691406 15.902344 19.65625 15.90625 L 19.640625 15.910156 C 19.640625 14.945312 19.644531 13.980469 19.648438 13.011719 C 19.933594 13.03125 20.167969 13.15625 20.351562 13.390625 C 20.492188 13.570312 20.582031 13.785156 20.617188 14.039062 C 20.628906 14.113281 20.632812 14.191406 20.632812 14.269531 M 28.550781 14.078125 C 28.21875 13.871094 27.921875 13.761719 27.660156 13.746094 C 27.425781 14.828125 27.199219 15.90625 26.980469 16.988281 C 27.054688 16.9375 27.144531 16.902344 27.25 16.890625 C 27.335938 16.878906 27.4375 16.882812 27.546875 16.898438 C 27.664062 16.390625 27.785156 15.886719 27.910156 15.378906 C 28.078125 15.46875 28.253906 15.617188 28.429688 15.816406 C 28.789062 16.222656 28.992188 16.703125 29.046875 17.253906 C 29.046875 17.285156 29.050781 17.316406 29.050781 17.347656 C 29.09375 17.949219 29.007812 18.398438 28.789062 18.699219 C 28.632812 18.910156 28.429688 19.03125 28.1875 19.058594 C 28.050781 19.078125 27.960938 19.023438 27.921875 18.898438 C 27.90625 18.867188 27.898438 18.832031 27.898438 18.792969 C 27.890625 18.707031 27.910156 18.613281 27.957031 18.515625 C 27.980469 18.476562 28 18.4375 28.015625 18.402344 L 28.015625 18.398438 C 28.082031 18.25 28.109375 18.09375 28.097656 17.925781 C 28.078125 17.691406 27.988281 17.5 27.828125 17.347656 C 27.671875 17.199219 27.484375 17.140625 27.277344 17.167969 C 27.140625 17.183594 27.023438 17.238281 26.921875 17.324219 L 26.90625 17.324219 L 26.898438 17.339844 C 26.851562 17.382812 26.808594 17.425781 26.769531 17.484375 C 26.691406 17.589844 26.644531 17.707031 26.621094 17.828125 C 26.597656 17.859375 26.578125 17.886719 26.550781 17.917969 C 26.261719 18.265625 25.914062 18.46875 25.507812 18.53125 C 25.445312 18.539062 25.378906 18.546875 25.3125 18.550781 C 24.828125 18.570312 24.472656 18.378906 24.234375 17.96875 C 25.621094 17.214844 26.320312 16.390625 26.304688 15.4375 C 26.304688 15.386719 26.300781 15.335938 26.296875 15.285156 C 26.261719 14.910156 26.117188 14.625 25.855469 14.425781 C 25.726562 14.328125 25.574219 14.246094 25.402344 14.1875 C 25.214844 14.121094 24.96875 14.109375 24.664062 14.15625 C 24.613281 14.167969 24.558594 14.175781 24.507812 14.183594 C 24.230469 14.226562 23.945312 14.367188 23.660156 14.597656 C 23.046875 15.097656 22.722656 15.886719 22.683594 16.953125 C 22.675781 17.203125 22.683594 17.433594 22.710938 17.648438 C 22.730469 17.816406 22.765625 17.972656 22.804688 18.121094 C 22.726562 18.449219 22.628906 18.699219 22.507812 18.878906 C 22.398438 19.039062 22.292969 19.132812 22.191406 19.152344 C 22.148438 19.160156 22.105469 19.15625 22.058594 19.136719 C 21.953125 19.089844 21.886719 18.960938 21.855469 18.75 C 21.84375 18.652344 21.839844 18.535156 21.84375 18.394531 C 21.851562 18.269531 21.855469 18.027344 21.855469 17.671875 C 21.859375 17.554688 21.851562 17.445312 21.839844 17.34375 C 21.769531 16.839844 21.527344 16.511719 21.101562 16.363281 C 21.738281 15.96875 22.066406 15.277344 22.078125 14.265625 C 22.078125 14.089844 22.070312 13.925781 22.050781 13.769531 C 21.957031 13.054688 21.640625 12.574219 21.085938 12.335938 C 20.675781 12.160156 20.199219 12.128906 19.65625 12.242188 C 18.867188 12.410156 18.074219 12.589844 17.285156 12.78125 C 16.808594 13.507812 16.445312 14.339844 16.195312 15.261719 C 15.953125 16.160156 15.898438 16.949219 16.023438 17.636719 C 16.15625 18.363281 16.488281 18.972656 17.011719 19.46875 C 17.035156 18.839844 17.167969 18.277344 17.410156 17.78125 C 17.292969 17.714844 17.175781 17.601562 17.058594 17.433594 C 16.914062 17.222656 16.8125 16.980469 16.765625 16.703125 C 16.738281 16.542969 16.726562 16.375 16.734375 16.191406 C 16.757812 15.515625 16.863281 14.917969 17.046875 14.402344 C 17.152344 14.117188 17.382812 13.644531 17.742188 12.980469 C 17.851562 13.144531 17.925781 13.351562 17.96875 13.609375 C 17.992188 13.746094 18.003906 13.898438 18.003906 14.0625 C 18.011719 14.558594 18.019531 14.859375 18.03125 14.960938 C 18.0625 17.03125 18.105469 19.09375 18.164062 21.15625 C 18.664062 21.035156 19.167969 20.914062 19.667969 20.800781 C 19.65625 19.460938 19.648438 18.121094 19.644531 16.78125 L 19.660156 16.777344 C 19.671875 16.773438 19.722656 16.765625 19.804688 16.75 C 19.890625 16.738281 19.941406 16.726562 19.960938 16.726562 C 20.152344 16.714844 20.28125 16.914062 20.34375 17.320312 C 20.382812 17.597656 20.394531 18.023438 20.378906 18.589844 C 20.367188 18.972656 20.367188 19.21875 20.378906 19.328125 L 20.382812 19.347656 C 20.40625 19.496094 20.460938 19.679688 20.550781 19.894531 C 20.703125 20.25 21.019531 20.414062 21.496094 20.398438 C 21.648438 20.394531 21.785156 20.378906 21.90625 20.355469 C 22.066406 20.324219 22.199219 20.273438 22.308594 20.210938 C 22.539062 20.0625 22.71875 19.832031 22.84375 19.515625 C 22.917969 19.324219 22.988281 19.0625 23.058594 18.730469 C 23.183594 18.941406 23.335938 19.128906 23.519531 19.292969 C 23.75 19.496094 24.011719 19.640625 24.308594 19.730469 C 24.570312 19.804688 24.820312 19.824219 25.0625 19.792969 L 25.074219 19.789062 C 25.613281 19.703125 26.09375 19.449219 26.519531 19.023438 C 26.617188 18.921875 26.707031 18.820312 26.789062 18.707031 L 26.796875 18.71875 C 26.894531 18.890625 27.027344 19.035156 27.199219 19.15625 C 27.453125 19.339844 27.746094 19.414062 28.070312 19.375 L 28.082031 19.371094 C 29.582031 19.195312 30.363281 18.476562 30.429688 17.15625 C 30.4375 17.070312 30.4375 16.984375 30.429688 16.894531 C 30.390625 16.238281 30.078125 15.5625 29.480469 14.875 C 29.191406 14.550781 28.878906 14.285156 28.550781 14.078125 " fill-opacity="1" fill-rule="nonzero"/><path fill="#351f17" d="M 35.695312 15.710938 C 35.636719 16.382812 35.546875 16.851562 35.429688 17.121094 C 35.375 17.25 35.289062 17.335938 35.179688 17.382812 C 35.128906 17.402344 35.082031 17.410156 35.035156 17.414062 C 34.976562 17.414062 34.914062 17.40625 34.851562 17.378906 C 34.734375 17.332031 34.636719 17.25 34.554688 17.128906 C 34.464844 17 34.410156 16.839844 34.394531 16.65625 C 34.382812 16.539062 34.378906 16.425781 34.375 16.3125 C 34.363281 15.828125 34.421875 15.40625 34.554688 15.050781 C 34.703125 14.660156 34.890625 14.445312 35.125 14.410156 C 35.15625 14.402344 35.183594 14.402344 35.214844 14.402344 C 35.363281 14.398438 35.480469 14.441406 35.574219 14.539062 C 35.671875 14.640625 35.726562 14.789062 35.746094 14.980469 C 35.75 14.992188 35.75 15.007812 35.75 15.027344 C 35.753906 15.144531 35.734375 15.371094 35.695312 15.710938 M 45.914062 13.472656 L 45.894531 13.472656 C 45.605469 13.449219 45.296875 13.550781 44.96875 13.773438 C 44.804688 13.882812 44.671875 13.996094 44.570312 14.113281 C 44.609375 13.953125 44.664062 13.726562 44.730469 13.429688 C 44.734375 13.410156 44.738281 13.382812 44.746094 13.347656 C 44 13.28125 43.253906 13.226562 42.507812 13.183594 C 42.800781 13.199219 42.964844 13.457031 42.996094 13.949219 C 43 14.058594 43 14.164062 42.996094 14.269531 C 42.988281 14.40625 42.972656 14.542969 42.953125 14.683594 C 42.855469 15.175781 42.804688 15.476562 42.792969 15.585938 C 42.71875 15.984375 42.648438 16.382812 42.574219 16.78125 L 42.5625 16.78125 C 42.417969 17.132812 42.269531 17.386719 42.113281 17.546875 C 41.984375 17.683594 41.863281 17.75 41.757812 17.742188 C 41.730469 17.742188 41.707031 17.738281 41.683594 17.726562 C 41.546875 17.675781 41.484375 17.511719 41.496094 17.230469 L 41.496094 17.210938 C 41.964844 14.609375 42.21875 13.296875 42.222656 13.277344 C 41.757812 13.25 41.289062 13.226562 40.824219 13.207031 C 40.578125 14.589844 40.457031 15.363281 40.445312 15.53125 C 40.300781 16.453125 40.21875 17 40.191406 17.171875 C 40.179688 17.246094 40.171875 17.324219 40.167969 17.410156 C 39.921875 17.605469 39.726562 17.707031 39.582031 17.699219 C 39.558594 17.699219 39.535156 17.695312 39.515625 17.6875 C 39.414062 17.660156 39.363281 17.558594 39.359375 17.382812 L 39.359375 17.359375 C 39.363281 17.1875 39.40625 16.882812 39.488281 16.441406 C 39.5 16.359375 39.542969 16.101562 39.617188 15.671875 C 39.675781 15.332031 39.71875 15.011719 39.746094 14.707031 C 39.753906 14.632812 39.761719 14.554688 39.761719 14.480469 C 39.765625 14.210938 39.730469 13.972656 39.65625 13.773438 C 39.507812 13.371094 39.207031 13.164062 38.757812 13.15625 C 38.578125 13.15625 38.398438 13.152344 38.21875 13.148438 C 38.28125 13.242188 38.34375 13.371094 38.398438 13.527344 C 38.472656 13.75 38.507812 13.976562 38.503906 14.207031 C 38.503906 14.316406 38.496094 14.425781 38.476562 14.535156 C 38.441406 14.773438 38.363281 15.238281 38.242188 15.925781 C 38.191406 16.175781 38.15625 16.40625 38.121094 16.621094 C 38.085938 16.621094 38.046875 16.621094 38.007812 16.621094 C 37.875 16.976562 37.738281 17.242188 37.589844 17.414062 C 37.507812 17.511719 37.421875 17.574219 37.335938 17.605469 C 37.296875 17.621094 37.257812 17.628906 37.222656 17.628906 C 37.179688 17.628906 37.140625 17.617188 37.105469 17.589844 C 37 17.523438 36.949219 17.378906 36.949219 17.15625 C 36.949219 17.050781 36.960938 16.921875 36.984375 16.78125 C 37.019531 16.527344 37.054688 16.277344 37.089844 16.027344 C 37.136719 15.691406 37.183594 15.351562 37.234375 15.015625 C 37.320312 14.375 37.410156 13.734375 37.503906 13.097656 C 37.019531 13.097656 36.539062 13.101562 36.058594 13.109375 C 36.03125 13.28125 36.007812 13.453125 35.984375 13.625 C 35.957031 13.597656 35.929688 13.570312 35.902344 13.542969 C 35.636719 13.300781 35.382812 13.175781 35.144531 13.160156 C 35.074219 13.152344 35 13.152344 34.925781 13.152344 C 34.605469 13.164062 34.339844 13.246094 34.125 13.394531 C 33.609375 13.746094 33.289062 14.464844 33.15625 15.546875 C 33.113281 15.890625 33.097656 16.21875 33.109375 16.527344 C 33.113281 16.640625 33.121094 16.753906 33.132812 16.863281 C 33.027344 17.164062 32.914062 17.398438 32.789062 17.558594 C 32.667969 17.710938 32.554688 17.792969 32.453125 17.800781 C 32.40625 17.804688 32.359375 17.789062 32.316406 17.765625 C 32.210938 17.703125 32.15625 17.558594 32.144531 17.335938 C 32.140625 17.230469 32.148438 17.105469 32.167969 16.960938 C 32.179688 16.828125 32.203125 16.582031 32.238281 16.207031 C 32.273438 15.871094 32.308594 15.53125 32.34375 15.195312 C 32.378906 14.816406 32.417969 14.441406 32.453125 14.0625 C 32.636719 14.054688 32.820312 14.042969 33.003906 14.03125 C 33.023438 13.769531 33.046875 13.507812 33.070312 13.25 C 32.894531 13.257812 32.714844 13.265625 32.539062 13.277344 C 32.582031 12.875 32.628906 12.457031 32.675781 12.023438 C 32.6875 11.910156 32.691406 11.800781 32.6875 11.691406 C 32.679688 11.472656 32.636719 11.277344 32.558594 11.097656 C 32.390625 10.707031 32.078125 10.527344 31.617188 10.558594 C 31.375 10.578125 31.132812 10.59375 30.886719 10.613281 C 30.957031 10.699219 31.023438 10.820312 31.089844 10.976562 C 31.179688 11.1875 31.226562 11.410156 31.238281 11.644531 C 31.246094 11.75 31.242188 11.859375 31.230469 11.972656 C 31.21875 12.109375 31.171875 12.578125 31.097656 13.378906 C 30.914062 13.390625 30.730469 13.40625 30.546875 13.421875 C 30.527344 13.683594 30.511719 13.945312 30.496094 14.207031 C 30.671875 14.191406 30.847656 14.179688 31.023438 14.164062 C 30.945312 14.988281 30.90625 15.496094 30.898438 15.691406 C 30.828125 16.582031 30.804688 17.269531 30.832031 17.746094 C 30.84375 17.945312 30.863281 18.109375 30.894531 18.234375 C 30.988281 18.648438 31.257812 18.890625 31.699219 18.964844 C 31.863281 18.992188 32.007812 19.003906 32.132812 18.996094 C 32.261719 18.984375 32.375 18.957031 32.472656 18.910156 C 32.820312 18.742188 33.113281 18.386719 33.359375 17.839844 C 33.621094 18.519531 34.050781 18.855469 34.671875 18.847656 L 34.707031 18.84375 C 35.171875 18.828125 35.511719 18.628906 35.734375 18.234375 C 35.871094 18.539062 36.136719 18.71875 36.53125 18.785156 C 36.660156 18.804688 36.773438 18.816406 36.878906 18.816406 C 37.007812 18.8125 37.121094 18.796875 37.214844 18.757812 C 37.488281 18.640625 37.726562 18.4375 37.929688 18.140625 C 37.972656 18.078125 38.011719 18.003906 38.054688 17.929688 C 38.058594 17.976562 38.066406 18.023438 38.070312 18.0625 C 38.148438 18.523438 38.390625 18.773438 38.792969 18.816406 C 38.8125 18.820312 38.835938 18.824219 38.859375 18.824219 C 39.230469 18.832031 39.671875 18.550781 40.195312 17.984375 C 40.230469 18.21875 40.300781 18.402344 40.402344 18.539062 C 40.566406 18.746094 40.828125 18.859375 41.1875 18.894531 L 41.195312 18.898438 L 41.195312 18.894531 C 41.222656 18.894531 41.25 18.894531 41.277344 18.898438 C 41.453125 18.90625 41.59375 18.894531 41.691406 18.855469 C 41.90625 18.78125 42.097656 18.652344 42.273438 18.464844 C 42.246094 18.625 42.214844 18.789062 42.1875 18.953125 C 42.652344 18.980469 43.117188 19.011719 43.582031 19.046875 C 43.855469 17.625 44.136719 16.210938 44.421875 14.792969 C 44.488281 14.664062 44.570312 14.546875 44.667969 14.433594 C 44.8125 14.253906 44.941406 14.171875 45.054688 14.183594 C 45.082031 14.1875 45.113281 14.195312 45.140625 14.214844 C 45.1875 14.242188 45.210938 14.285156 45.207031 14.34375 C 45.207031 14.367188 45.199219 14.398438 45.1875 14.429688 C 45.074219 14.574219 45.015625 14.738281 45.003906 14.925781 C 44.988281 15.167969 45.050781 15.382812 45.195312 15.570312 C 45.332031 15.753906 45.507812 15.855469 45.722656 15.878906 C 45.894531 15.894531 46.054688 15.855469 46.203125 15.757812 C 46.347656 15.652344 46.449219 15.515625 46.511719 15.339844 C 46.601562 15.140625 46.65625 14.9375 46.671875 14.734375 C 46.683594 14.539062 46.664062 14.339844 46.605469 14.140625 C 46.488281 13.730469 46.253906 13.507812 45.914062 13.472656 " fill-opacity="1" fill-rule="nonzero"/><path fill="#351f17" d="M 49.238281 16.539062 C 49.101562 17.195312 48.960938 17.644531 48.8125 17.890625 C 48.742188 18.011719 48.648438 18.082031 48.535156 18.109375 C 48.484375 18.121094 48.4375 18.121094 48.386719 18.117188 C 48.332031 18.109375 48.273438 18.085938 48.210938 18.054688 C 48.097656 17.984375 48.011719 17.886719 47.945312 17.753906 C 47.871094 17.609375 47.835938 17.445312 47.839844 17.257812 C 47.839844 17.140625 47.847656 17.027344 47.859375 16.917969 C 47.902344 16.433594 48.003906 16.027344 48.175781 15.695312 C 48.367188 15.332031 48.582031 15.152344 48.816406 15.152344 C 48.847656 15.152344 48.875 15.15625 48.90625 15.160156 C 49.050781 15.179688 49.167969 15.246094 49.25 15.359375 C 49.332031 15.476562 49.371094 15.628906 49.367188 15.824219 C 49.371094 15.835938 49.371094 15.851562 49.367188 15.871094 C 49.355469 15.984375 49.3125 16.207031 49.238281 16.539062 Z M 58.144531 19.296875 C 57.953125 19.609375 57.773438 19.832031 57.597656 19.964844 C 57.449219 20.074219 57.324219 20.117188 57.222656 20.09375 C 57.175781 20.078125 57.132812 20.054688 57.097656 20.015625 C 57.007812 19.921875 56.980469 19.769531 57.015625 19.550781 C 57.035156 19.445312 57.066406 19.328125 57.117188 19.191406 C 57.15625 19.070312 57.234375 18.835938 57.34375 18.488281 C 57.449219 18.171875 57.550781 17.855469 57.65625 17.539062 C 57.769531 17.183594 57.886719 16.832031 58 16.480469 C 58.179688 16.523438 58.359375 16.570312 58.539062 16.617188 C 58.617188 16.371094 58.691406 16.125 58.765625 15.878906 C 58.59375 15.835938 58.421875 15.789062 58.246094 15.746094 C 58.375 15.367188 58.503906 14.976562 58.640625 14.574219 C 58.675781 14.46875 58.703125 14.363281 58.722656 14.257812 C 58.757812 14.042969 58.757812 13.839844 58.71875 13.640625 C 58.636719 13.214844 58.371094 12.941406 57.917969 12.832031 C 57.675781 12.769531 57.433594 12.714844 57.195312 12.65625 C 57.242188 12.761719 57.285156 12.898438 57.316406 13.070312 C 57.359375 13.304688 57.359375 13.535156 57.324219 13.761719 C 57.304688 13.867188 57.28125 13.972656 57.246094 14.078125 C 57.207031 14.207031 57.0625 14.644531 56.824219 15.394531 C 56.640625 15.351562 56.460938 15.308594 56.277344 15.269531 C 56.207031 15.515625 56.136719 15.765625 56.066406 16.011719 C 56.242188 16.050781 56.414062 16.09375 56.589844 16.132812 C 56.339844 16.90625 56.195312 17.382812 56.148438 17.574219 C 56.015625 18.011719 55.910156 18.398438 55.824219 18.734375 L 55.789062 18.730469 C 55.613281 19.046875 55.4375 19.269531 55.265625 19.402344 C 55.171875 19.476562 55.078125 19.523438 54.992188 19.535156 C 54.953125 19.542969 54.914062 19.542969 54.882812 19.535156 C 54.839844 19.527344 54.800781 19.503906 54.769531 19.472656 C 54.679688 19.382812 54.648438 19.234375 54.679688 19.019531 C 54.695312 18.914062 54.726562 18.792969 54.773438 18.65625 C 54.8125 18.535156 54.882812 18.300781 54.988281 17.953125 C 55.222656 17.308594 55.371094 16.777344 55.433594 16.359375 C 55.457031 16.1875 55.46875 16.039062 55.464844 15.90625 C 55.445312 15.4375 55.230469 15.136719 54.828125 15.015625 C 54.804688 15.007812 54.777344 15 54.753906 14.996094 C 54.40625 14.921875 53.996094 15.066406 53.53125 15.433594 C 53.585938 15.242188 53.640625 15.054688 53.699219 14.863281 C 53.703125 14.84375 53.710938 14.820312 53.71875 14.78125 C 53.03125 14.648438 52.34375 14.519531 51.652344 14.402344 C 51.933594 14.449219 52.070312 14.714844 52.0625 15.195312 C 52.0625 15.300781 52.058594 15.410156 52.042969 15.515625 C 52.027344 15.640625 52.003906 15.769531 51.96875 15.898438 C 51.84375 16.371094 51.769531 16.65625 51.753906 16.757812 C 51.660156 17.117188 51.566406 17.472656 51.472656 17.832031 L 51.429688 17.824219 C 51.257812 18.15625 51.089844 18.394531 50.925781 18.542969 C 50.832031 18.621094 50.738281 18.671875 50.648438 18.691406 C 50.609375 18.699219 50.574219 18.699219 50.539062 18.695312 C 50.492188 18.6875 50.453125 18.667969 50.421875 18.636719 C 50.328125 18.550781 50.292969 18.398438 50.316406 18.179688 C 50.328125 18.074219 50.355469 17.949219 50.394531 17.8125 C 50.457031 17.570312 50.519531 17.328125 50.582031 17.085938 C 50.667969 16.757812 50.753906 16.433594 50.839844 16.105469 C 51 15.488281 51.160156 14.867188 51.324219 14.25 C 50.84375 14.171875 50.367188 14.09375 49.886719 14.023438 C 49.84375 14.1875 49.800781 14.355469 49.757812 14.519531 C 49.734375 14.488281 49.707031 14.457031 49.6875 14.425781 C 49.445312 14.144531 49.210938 13.972656 48.976562 13.917969 C 48.902344 13.902344 48.832031 13.886719 48.757812 13.878906 C 48.441406 13.835938 48.167969 13.871094 47.9375 13.980469 C 47.386719 14.246094 46.988281 14.90625 46.734375 15.953125 C 46.652344 16.289062 46.601562 16.609375 46.578125 16.917969 C 46.546875 17.328125 46.566406 17.714844 46.632812 18.078125 C 46.792969 18.910156 47.203125 19.371094 47.867188 19.476562 L 47.902344 19.480469 C 48.363281 19.539062 48.726562 19.398438 48.992188 19.046875 C 49.089844 19.367188 49.335938 19.59375 49.722656 19.722656 C 49.84375 19.765625 49.957031 19.792969 50.0625 19.8125 C 50.191406 19.832031 50.304688 19.832031 50.398438 19.808594 C 50.636719 19.753906 50.851562 19.628906 51.054688 19.4375 C 51.011719 19.613281 50.964844 19.78125 50.921875 19.953125 C 51.34375 20.023438 51.765625 20.101562 52.1875 20.179688 C 52.558594 18.824219 52.941406 17.472656 53.328125 16.125 C 53.578125 15.992188 53.761719 15.941406 53.886719 15.964844 L 53.945312 15.980469 C 54.042969 16.035156 54.085938 16.140625 54.0625 16.316406 L 54.058594 16.351562 C 54.035156 16.523438 53.957031 16.808594 53.832031 17.207031 C 53.550781 18.078125 53.386719 18.738281 53.324219 19.183594 C 53.300781 19.371094 53.292969 19.519531 53.304688 19.628906 C 53.347656 20.042969 53.570312 20.328125 53.972656 20.496094 C 54.09375 20.546875 54.207031 20.585938 54.3125 20.605469 C 54.457031 20.640625 54.585938 20.644531 54.703125 20.617188 C 54.988281 20.570312 55.25 20.425781 55.488281 20.183594 C 55.53125 20.140625 55.574219 20.089844 55.617188 20.042969 C 55.625 20.464844 55.835938 20.78125 56.246094 20.984375 C 56.398438 21.0625 56.535156 21.117188 56.660156 21.148438 C 56.789062 21.179688 56.90625 21.1875 57.007812 21.171875 C 57.59375 21.089844 58.152344 20.511719 58.691406 19.433594 C 58.507812 19.386719 58.324219 19.339844 58.144531 19.296875 " fill-opacity="1" fill-rule="nonzero"/><path fill="#be9e72" d="M 46.609375 62.550781 L 45.015625 62.550781 L 45.015625 38.742188 L 37.195312 38.742188 L 37.195312 37.253906 L 46.609375 37.253906 L 46.609375 62.550781 " fill-opacity="1" fill-rule="nonzero"/><g clip-path="url(#b44de3dabf)"><path fill="#c7361c" d="M 45.015625 69.9375 L 46.609375 69.9375 L 46.609375 62.550781 L 45.015625 62.550781 Z M 45.015625 69.9375 " fill-opacity="1" fill-rule="nonzero"/></g><g clip-path="url(#94995c66d1)"><path fill="#6f4323" d="M 28.90625 69.9375 L 45.015625 69.9375 L 45.015625 38.742188 L 28.90625 38.742188 Z M 28.90625 69.9375 " fill-opacity="1" fill-rule="nonzero"/></g><path fill="#351f17" d="M 31.394531 66.769531 L 42.53125 66.769531 L 42.53125 42.902344 L 31.394531 42.902344 Z M 31.394531 66.769531 " fill-opacity="1" fill-rule="nonzero"/><path fill="#6fc1c2" d="M 32.136719 66.175781 L 41.789062 66.175781 L 41.789062 43.496094 L 32.136719 43.496094 Z M 32.136719 66.175781 " fill-opacity="1" fill-rule="nonzero"/><path fill="#96d5d3" d="M 41.789062 43.496094 L 32.136719 43.496094 L 32.136719 66.175781 L 41.789062 43.496094 " fill-opacity="1" fill-rule="nonzero"/><path fill="#fbc313" d="M 43.273438 57.679688 L 44.132812 57.679688 L 44.132812 54.117188 L 43.273438 54.117188 L 43.273438 57.679688 " fill-opacity="1" fill-rule="nonzero"/><path fill="#f8a118" d="M 43.273438 57.679688 L 43.703125 57.679688 L 43.703125 54.117188 L 43.273438 54.117188 L 43.273438 57.679688 " fill-opacity="1" fill-rule="nonzero"/><path fill="#fbc313" d="M 44.257812 54.785156 C 43.886719 55.222656 43.230469 55.28125 42.789062 54.910156 C 42.347656 54.542969 42.289062 53.886719 42.660156 53.449219 C 43.03125 53.007812 43.6875 52.953125 44.128906 53.320312 C 44.570312 53.691406 44.628906 54.34375 44.257812 54.785156 " fill-opacity="1" fill-rule="nonzero"/><path fill="#f8a118" d="M 43.5 54.585938 C 43.011719 54.175781 42.894531 53.652344 43.011719 53.183594 C 42.878906 53.242188 42.757812 53.332031 42.660156 53.449219 C 42.289062 53.886719 42.347656 54.542969 42.789062 54.910156 C 43.183594 55.242188 43.753906 55.226562 44.132812 54.90625 C 43.921875 54.859375 43.707031 54.757812 43.5 54.585938 " fill-opacity="1" fill-rule="nonzero"/><path fill="#d1bc86" d="M 49.476562 61.140625 L 69.382812 61.140625 L 69.382812 38.59375 L 49.476562 38.59375 Z M 49.476562 61.140625 " fill-opacity="1" fill-rule="nonzero"/><path fill="#b42026" d="M 49.980469 60.472656 L 68.882812 60.472656 L 68.882812 39.277344 L 49.980469 39.277344 Z M 49.980469 60.472656 " fill-opacity="1" fill-rule="nonzero"/><path fill="#630f12" d="M 51.332031 46.21875 L 58.144531 46.21875 L 58.144531 40.304688 L 51.332031 40.304688 Z M 51.332031 46.21875 " fill-opacity="1" fill-rule="nonzero"/><path fill="#6fc1c2" d="M 58.066406 40.375 L 51.410156 40.375 L 51.410156 46.148438 L 58.066406 46.148438 L 58.066406 40.375 " fill-opacity="1" fill-rule="nonzero"/><path fill="#96d5d3" d="M 57.949219 40.511719 L 51.570312 40.511719 L 51.570312 46.074219 Z M 57.949219 40.511719 " fill-opacity="1" fill-rule="nonzero"/><path fill="#630f12" d="M 51.332031 52.761719 L 58.144531 52.761719 L 58.144531 46.847656 L 51.332031 46.847656 Z M 51.332031 52.761719 " fill-opacity="1" fill-rule="nonzero"/><path fill="#6fc1c2" d="M 58.066406 46.917969 L 51.410156 46.917969 L 51.410156 52.695312 L 58.066406 52.695312 L 58.066406 46.917969 " fill-opacity="1" fill-rule="nonzero"/><path fill="#96d5d3" d="M 57.949219 47.054688 L 51.570312 47.054688 L 51.570312 52.617188 Z M 57.949219 47.054688 " fill-opacity="1" fill-rule="nonzero"/><path fill="#630f12" d="M 51.332031 59.492188 L 58.144531 59.492188 L 58.144531 53.578125 L 51.332031 53.578125 Z M 51.332031 59.492188 " fill-opacity="1" fill-rule="nonzero"/><path fill="#6fc1c2" d="M 58.066406 53.648438 L 51.410156 53.648438 L 51.410156 59.425781 L 58.066406 59.425781 L 58.066406 53.648438 " fill-opacity="1" fill-rule="nonzero"/><path fill="#96d5d3" d="M 57.949219 53.789062 L 51.570312 53.789062 L 51.570312 59.347656 Z M 57.949219 53.789062 " fill-opacity="1" fill-rule="nonzero"/><path fill="#630f12" d="M 60.269531 46.21875 L 67.082031 46.21875 L 67.082031 40.304688 L 60.269531 40.304688 Z M 60.269531 46.21875 " fill-opacity="1" fill-rule="nonzero"/><path fill="#6fc1c2" d="M 67.003906 40.375 L 60.347656 40.375 L 60.347656 46.148438 L 67.003906 46.148438 L 67.003906 40.375 " fill-opacity="1" fill-rule="nonzero"/><path fill="#96d5d3" d="M 66.890625 40.511719 L 60.507812 40.511719 L 60.507812 46.074219 Z M 66.890625 40.511719 " fill-opacity="1" fill-rule="nonzero"/><path fill="#630f12" d="M 60.269531 52.761719 L 67.082031 52.761719 L 67.082031 46.847656 L 60.269531 46.847656 Z M 60.269531 52.761719 " fill-opacity="1" fill-rule="nonzero"/><path fill="#6fc1c2" d="M 67.003906 46.917969 L 60.347656 46.917969 L 60.347656 52.695312 L 67.003906 52.695312 L 67.003906 46.917969 " fill-opacity="1" fill-rule="nonzero"/><path fill="#96d5d3" d="M 66.890625 47.054688 L 60.507812 47.054688 L 60.507812 52.617188 Z M 66.890625 47.054688 " fill-opacity="1" fill-rule="nonzero"/><path fill="#630f12" d="M 60.269531 59.492188 L 67.082031 59.492188 L 67.082031 53.578125 L 60.269531 53.578125 Z M 60.269531 59.492188 " fill-opacity="1" fill-rule="nonzero"/><path fill="#6fc1c2" d="M 67.003906 53.648438 L 60.347656 53.648438 L 60.347656 59.425781 L 67.003906 59.425781 L 67.003906 53.648438 " fill-opacity="1" fill-rule="nonzero"/><path fill="#96d5d3" d="M 66.890625 53.789062 L 60.507812 53.789062 L 60.507812 59.347656 Z M 66.890625 53.789062 " fill-opacity="1" fill-rule="nonzero"/><path fill="#951a1f" d="M 59.242188 60.472656 L 59.429688 60.472656 L 59.429688 39.398438 L 59.242188 39.398438 Z M 59.242188 60.472656 " fill-opacity="1" fill-rule="nonzero"/><path fill="#d1bc86" d="M 4.601562 61.140625 L 24.507812 61.140625 L 24.507812 38.59375 L 4.601562 38.59375 Z M 4.601562 61.140625 " fill-opacity="1" fill-rule="nonzero"/><path fill="#b42026" d="M 5.105469 60.472656 L 24.007812 60.472656 L 24.007812 39.277344 L 5.105469 39.277344 Z M 5.105469 60.472656 " fill-opacity="1" fill-rule="nonzero"/><path fill="#6fc1c2" d="M 6.535156 46.148438 L 13.191406 46.148438 L 13.191406 40.375 L 6.535156 40.375 Z M 6.535156 46.148438 " fill-opacity="1" fill-rule="nonzero"/><path fill="#96d5d3" d="M 13.074219 40.511719 L 6.695312 40.511719 L 6.695312 46.074219 L 13.074219 40.511719 " fill-opacity="1" fill-rule="nonzero"/><path fill="#6fc1c2" d="M 6.535156 52.695312 L 13.191406 52.695312 L 13.191406 46.917969 L 6.535156 46.917969 Z M 6.535156 52.695312 " fill-opacity="1" fill-rule="nonzero"/><path fill="#96d5d3" d="M 13.074219 47.054688 L 6.695312 47.054688 L 6.695312 52.617188 L 13.074219 47.054688 " fill-opacity="1" fill-rule="nonzero"/><path fill="#6fc1c2" d="M 6.535156 59.425781 L 13.191406 59.425781 L 13.191406 53.648438 L 6.535156 53.648438 Z M 6.535156 59.425781 " fill-opacity="1" fill-rule="nonzero"/><path fill="#96d5d3" d="M 13.074219 53.789062 L 6.695312 53.789062 L 6.695312 59.347656 L 13.074219 53.789062 " fill-opacity="1" fill-rule="nonzero"/><path fill="#6fc1c2" d="M 15.472656 46.148438 L 22.128906 46.148438 L 22.128906 40.375 L 15.472656 40.375 Z M 15.472656 46.148438 " fill-opacity="1" fill-rule="nonzero"/><path fill="#96d5d3" d="M 22.015625 40.511719 L 15.632812 40.511719 L 15.632812 46.074219 L 22.015625 40.511719 " fill-opacity="1" fill-rule="nonzero"/><path fill="#6fc1c2" d="M 15.472656 52.695312 L 22.128906 52.695312 L 22.128906 46.917969 L 15.472656 46.917969 Z M 15.472656 52.695312 " fill-opacity="1" fill-rule="nonzero"/><path fill="#96d5d3" d="M 22.015625 47.054688 L 15.632812 47.054688 L 15.632812 52.617188 L 22.015625 47.054688 " fill-opacity="1" fill-rule="nonzero"/><path fill="#6fc1c2" d="M 15.472656 59.425781 L 22.128906 59.425781 L 22.128906 53.648438 L 15.472656 53.648438 Z M 15.472656 59.425781 " fill-opacity="1" fill-rule="nonzero"/><path fill="#96d5d3" d="M 22.015625 53.789062 L 15.632812 53.789062 L 15.632812 59.347656 L 22.015625 53.789062 " fill-opacity="1" fill-rule="nonzero"/><path fill="#bfbebe" d="M 9.175781 11.054688 L 9.175781 11.054688 M 9.175781 11.054688 C 9.179688 11.054688 9.179688 11.050781 9.179688 11.050781 C 9.179688 11.050781 9.179688 11.054688 9.175781 11.054688 M 9.179688 11.050781 C 9.199219 11.023438 9.214844 11.003906 9.230469 10.984375 C 9.214844 11.003906 9.199219 11.023438 9.179688 11.050781 M 9.230469 10.984375 C 9.230469 10.984375 9.234375 10.984375 9.234375 10.984375 C 9.234375 10.984375 9.230469 10.984375 9.230469 10.984375 M 9.234375 10.984375 L 9.234375 10.984375 " fill-opacity="1" fill-rule="nonzero"/><path fill="#ae9c7c" d="M 27.316406 62.550781 L 2.125 62.550781 L 2.125 32.105469 L 37.195312 32.105469 L 37.195312 37.253906 L 27.316406 37.253906 L 27.316406 62.550781 M 4.601562 38.59375 L 4.601562 61.140625 L 24.507812 61.140625 L 24.507812 38.59375 L 4.601562 38.59375 " fill-opacity="1" fill-rule="nonzero"/><path fill="#b43319" d="M 37.195312 28.738281 L 12.109375 28.738281 C 20.320312 26.09375 28.757812 24.757812 37.195312 24.726562 L 37.195312 28.738281 M 12.109375 28.738281 L 1.992188 28.738281 L 1.992188 12.101562 L 8.644531 12.101562 C 8.496094 12.441406 8.386719 12.722656 8.386719 12.722656 C 8.386719 12.722656 10.867188 23.398438 12.109375 28.738281 " fill-opacity="1" fill-rule="nonzero"/><g clip-path="url(#e7699e1b34)"><path fill="#b43319" d="M 27.316406 69.9375 L 0.367188 69.9375 L 0.367188 62.550781 L 27.316406 62.550781 L 27.316406 69.9375 " fill-opacity="1" fill-rule="nonzero"/></g><path fill="#beab93" d="M 37.195312 32.105469 L 0.00390625 32.105469 L 0.00390625 28.738281 L 37.195312 28.738281 L 37.195312 32.105469 " fill-opacity="1" fill-rule="nonzero"/><path fill="#2b1811" d="M 12.109375 28.738281 C 10.867188 23.398438 8.386719 12.722656 8.386719 12.722656 C 8.386719 12.722656 8.496094 12.441406 8.644531 12.101562 C 8.804688 11.730469 9.011719 11.289062 9.175781 11.058594 C 9.175781 11.058594 9.175781 11.058594 9.175781 11.054688 C 9.179688 11.054688 9.179688 11.050781 9.179688 11.050781 C 9.199219 11.023438 9.214844 11.003906 9.230469 10.984375 C 9.230469 10.984375 9.234375 10.984375 9.234375 10.984375 C 9.234375 10.980469 9.234375 10.980469 9.234375 10.980469 C 9.238281 10.980469 9.238281 10.976562 9.238281 10.976562 C 9.273438 10.941406 9.304688 10.914062 9.328125 10.90625 C 10.53125 16.246094 11.730469 21.585938 12.933594 26.925781 C 20.875 24.28125 29.035156 22.945312 37.195312 22.914062 L 37.195312 24.726562 C 28.757812 24.757812 20.320312 26.09375 12.109375 28.738281 " fill-opacity="1" fill-rule="nonzero"/><path fill="#bdbcbc" d="M 12.933594 26.925781 C 11.730469 21.585938 10.53125 16.246094 9.328125 10.90625 C 18.449219 7.875 27.820312 6.34375 37.195312 6.3125 L 37.195312 7.359375 C 28.4375 7.390625 19.675781 8.742188 11.128906 11.414062 C 12.117188 16.097656 13.109375 20.777344 14.097656 25.460938 C 21.675781 23.089844 29.433594 21.890625 37.195312 21.859375 L 37.195312 22.914062 C 29.035156 22.945312 20.875 24.28125 12.933594 26.925781 " fill-opacity="1" fill-rule="nonzero"/><path fill="#b86b14" d="M 14.097656 25.460938 C 13.109375 20.777344 12.117188 16.097656 11.128906 11.414062 C 19.675781 8.742188 28.4375 7.390625 37.195312 7.359375 L 37.195312 13.097656 C 36.816406 13.101562 36.4375 13.101562 36.058594 13.109375 C 36.03125 13.28125 36.007812 13.453125 35.984375 13.625 C 35.957031 13.597656 35.929688 13.570312 35.902344 13.542969 C 35.636719 13.300781 35.382812 13.175781 35.144531 13.160156 C 35.09375 13.15625 35.042969 13.152344 34.992188 13.152344 C 34.96875 13.152344 34.949219 13.152344 34.925781 13.152344 C 34.605469 13.164062 34.339844 13.246094 34.125 13.394531 C 33.609375 13.746094 33.289062 14.464844 33.15625 15.546875 C 33.113281 15.890625 33.097656 16.21875 33.109375 16.527344 C 33.113281 16.640625 33.121094 16.753906 33.132812 16.863281 C 33.027344 17.164062 32.914062 17.398438 32.789062 17.558594 C 32.667969 17.710938 32.554688 17.792969 32.453125 17.800781 C 32.449219 17.800781 32.445312 17.800781 32.4375 17.800781 C 32.394531 17.800781 32.355469 17.789062 32.316406 17.765625 C 32.210938 17.703125 32.15625 17.558594 32.144531 17.335938 C 32.140625 17.230469 32.148438 17.105469 32.167969 16.960938 C 32.179688 16.828125 32.203125 16.582031 32.238281 16.207031 C 32.273438 15.871094 32.308594 15.53125 32.34375 15.195312 C 32.378906 14.816406 32.417969 14.441406 32.453125 14.0625 C 32.636719 14.054688 32.820312 14.042969 33.003906 14.03125 C 33.023438 13.769531 33.046875 13.507812 33.070312 13.25 C 32.894531 13.257812 32.714844 13.265625 32.539062 13.277344 C 32.582031 12.875 32.628906 12.457031 32.675781 12.023438 C 32.6875 11.910156 32.691406 11.800781 32.6875 11.691406 C 32.679688 11.472656 32.636719 11.277344 32.558594 11.097656 C 32.402344 10.738281 32.125 10.554688 31.71875 10.554688 C 31.6875 10.554688 31.652344 10.554688 31.617188 10.558594 C 31.375 10.578125 31.132812 10.59375 30.886719 10.613281 C 30.957031 10.699219 31.023438 10.820312 31.089844 10.976562 C 31.179688 11.1875 31.226562 11.410156 31.238281 11.644531 C 31.246094 11.75 31.242188 11.859375 31.230469 11.972656 C 31.21875 12.109375 31.171875 12.578125 31.097656 13.378906 C 30.914062 13.390625 30.730469 13.40625 30.546875 13.421875 C 30.527344 13.683594 30.511719 13.945312 30.496094 14.207031 C 30.671875 14.191406 30.847656 14.179688 31.023438 14.164062 C 30.945312 14.988281 30.90625 15.496094 30.898438 15.691406 C 30.828125 16.582031 30.804688 17.269531 30.832031 17.746094 C 30.84375 17.945312 30.863281 18.109375 30.894531 18.234375 C 30.988281 18.648438 31.257812 18.890625 31.699219 18.964844 C 31.824219 18.984375 31.9375 18.996094 32.042969 18.996094 C 32.074219 18.996094 32.105469 18.996094 32.132812 18.996094 C 32.261719 18.984375 32.375 18.957031 32.472656 18.910156 C 32.820312 18.742188 33.113281 18.386719 33.359375 17.839844 C 33.617188 18.511719 34.042969 18.847656 34.648438 18.847656 C 34.65625 18.847656 34.660156 18.847656 34.671875 18.847656 L 34.707031 18.84375 C 35.171875 18.828125 35.511719 18.628906 35.734375 18.234375 C 35.871094 18.539062 36.136719 18.71875 36.53125 18.785156 C 36.65625 18.804688 36.769531 18.816406 36.875 18.816406 C 36.875 18.816406 36.878906 18.816406 36.878906 18.816406 C 37 18.8125 37.105469 18.796875 37.195312 18.765625 L 37.195312 21.859375 C 29.433594 21.890625 21.675781 23.089844 14.097656 25.460938 M 17.742188 12.980469 C 17.851562 13.144531 17.925781 13.351562 17.96875 13.609375 C 17.992188 13.746094 18.003906 13.898438 18.003906 14.0625 C 18.011719 14.558594 18.019531 14.859375 18.03125 14.960938 C 18.0625 17.03125 18.105469 19.09375 18.164062 21.15625 C 18.664062 21.035156 19.167969 20.914062 19.667969 20.800781 C 19.65625 19.460938 19.648438 18.121094 19.644531 16.78125 L 19.660156 16.777344 C 19.671875 16.773438 19.722656 16.765625 19.804688 16.75 C 19.890625 16.738281 19.941406 16.726562 19.957031 16.726562 C 19.957031 16.726562 19.957031 16.726562 19.960938 16.726562 C 19.964844 16.726562 19.96875 16.726562 19.976562 16.726562 C 20.160156 16.726562 20.285156 16.925781 20.34375 17.320312 C 20.382812 17.597656 20.394531 18.023438 20.378906 18.589844 C 20.367188 18.972656 20.367188 19.21875 20.378906 19.328125 L 20.382812 19.347656 C 20.40625 19.496094 20.460938 19.679688 20.550781 19.894531 C 20.695312 20.230469 20.992188 20.398438 21.433594 20.398438 C 21.453125 20.398438 21.472656 20.398438 21.496094 20.398438 C 21.648438 20.394531 21.785156 20.378906 21.90625 20.355469 C 22.066406 20.324219 22.199219 20.273438 22.308594 20.210938 C 22.539062 20.0625 22.71875 19.832031 22.84375 19.515625 C 22.917969 19.324219 22.988281 19.0625 23.058594 18.730469 C 23.183594 18.941406 23.335938 19.128906 23.519531 19.292969 C 23.75 19.496094 24.011719 19.640625 24.308594 19.730469 C 24.488281 19.78125 24.664062 19.808594 24.832031 19.808594 C 24.910156 19.808594 24.984375 19.800781 25.0625 19.792969 L 25.074219 19.789062 C 25.613281 19.703125 26.09375 19.449219 26.519531 19.023438 C 26.617188 18.921875 26.707031 18.820312 26.789062 18.707031 L 26.796875 18.71875 C 26.894531 18.890625 27.027344 19.035156 27.199219 19.15625 C 27.410156 19.308594 27.644531 19.382812 27.902344 19.382812 C 27.957031 19.382812 28.011719 19.378906 28.070312 19.375 L 28.082031 19.371094 C 29.582031 19.195312 30.363281 18.476562 30.429688 17.15625 C 30.4375 17.070312 30.4375 16.984375 30.429688 16.894531 C 30.390625 16.238281 30.078125 15.5625 29.480469 14.875 C 29.191406 14.550781 28.878906 14.285156 28.550781 14.078125 C 28.21875 13.871094 27.921875 13.761719 27.660156 13.746094 C 27.425781 14.828125 27.199219 15.90625 26.980469 16.988281 C 27.054688 16.9375 27.144531 16.902344 27.25 16.890625 C 27.285156 16.886719 27.324219 16.886719 27.363281 16.886719 C 27.421875 16.886719 27.484375 16.890625 27.546875 16.898438 C 27.664062 16.390625 27.785156 15.886719 27.910156 15.378906 C 28.078125 15.46875 28.253906 15.617188 28.429688 15.816406 C 28.789062 16.222656 28.992188 16.703125 29.046875 17.253906 C 29.046875 17.285156 29.050781 17.316406 29.050781 17.347656 C 29.09375 17.949219 29.007812 18.398438 28.789062 18.699219 C 28.632812 18.910156 28.429688 19.03125 28.1875 19.058594 C 28.171875 19.0625 28.15625 19.0625 28.140625 19.0625 C 28.03125 19.0625 27.957031 19.007812 27.921875 18.898438 C 27.90625 18.867188 27.898438 18.832031 27.898438 18.792969 C 27.890625 18.707031 27.910156 18.613281 27.957031 18.515625 C 27.980469 18.476562 28 18.4375 28.015625 18.402344 L 28.015625 18.398438 C 28.082031 18.25 28.109375 18.09375 28.097656 17.925781 C 28.078125 17.691406 27.988281 17.5 27.828125 17.347656 C 27.695312 17.222656 27.542969 17.160156 27.371094 17.160156 C 27.339844 17.160156 27.308594 17.164062 27.277344 17.167969 C 27.140625 17.183594 27.023438 17.238281 26.921875 17.324219 L 26.90625 17.324219 L 26.898438 17.339844 C 26.851562 17.382812 26.808594 17.425781 26.769531 17.484375 C 26.691406 17.589844 26.644531 17.707031 26.621094 17.828125 C 26.597656 17.859375 26.578125 17.886719 26.550781 17.917969 C 26.261719 18.265625 25.914062 18.46875 25.507812 18.53125 C 25.445312 18.539062 25.378906 18.546875 25.3125 18.550781 C 25.285156 18.550781 25.261719 18.550781 25.238281 18.550781 C 24.792969 18.550781 24.460938 18.359375 24.234375 17.96875 C 25.621094 17.214844 26.320312 16.390625 26.304688 15.4375 C 26.304688 15.386719 26.300781 15.335938 26.296875 15.285156 C 26.261719 14.910156 26.117188 14.625 25.855469 14.425781 C 25.726562 14.328125 25.574219 14.246094 25.402344 14.1875 C 25.292969 14.148438 25.164062 14.128906 25.015625 14.128906 C 24.90625 14.128906 24.789062 14.136719 24.664062 14.15625 C 24.613281 14.167969 24.558594 14.175781 24.507812 14.183594 C 24.230469 14.226562 23.945312 14.367188 23.660156 14.597656 C 23.046875 15.097656 22.722656 15.886719 22.683594 16.953125 C 22.675781 17.203125 22.683594 17.433594 22.710938 17.648438 C 22.730469 17.816406 22.765625 17.972656 22.804688 18.121094 C 22.726562 18.449219 22.628906 18.699219 22.507812 18.878906 C 22.398438 19.039062 22.292969 19.132812 22.191406 19.152344 C 22.179688 19.152344 22.164062 19.15625 22.148438 19.15625 C 22.117188 19.15625 22.089844 19.148438 22.058594 19.136719 C 21.953125 19.089844 21.886719 18.960938 21.855469 18.75 C 21.84375 18.652344 21.839844 18.535156 21.84375 18.394531 C 21.851562 18.269531 21.855469 18.027344 21.855469 17.671875 C 21.859375 17.554688 21.851562 17.445312 21.839844 17.34375 C 21.769531 16.839844 21.527344 16.511719 21.101562 16.363281 C 21.738281 15.96875 22.066406 15.277344 22.078125 14.265625 C 22.078125 14.089844 22.070312 13.925781 22.050781 13.769531 C 21.957031 13.054688 21.640625 12.574219 21.085938 12.335938 C 20.835938 12.230469 20.558594 12.175781 20.257812 12.175781 C 20.070312 12.175781 19.867188 12.199219 19.65625 12.242188 C 18.867188 12.410156 18.074219 12.589844 17.285156 12.78125 C 16.808594 13.507812 16.445312 14.339844 16.195312 15.261719 C 15.953125 16.160156 15.898438 16.949219 16.023438 17.636719 C 16.15625 18.363281 16.488281 18.972656 17.011719 19.46875 C 17.035156 18.839844 17.167969 18.277344 17.410156 17.78125 C 17.292969 17.714844 17.175781 17.601562 17.058594 17.433594 C 16.914062 17.222656 16.8125 16.980469 16.765625 16.703125 C 16.738281 16.542969 16.726562 16.375 16.734375 16.191406 C 16.757812 15.515625 16.863281 14.917969 17.046875 14.402344 C 17.152344 14.117188 17.382812 13.644531 17.742188 12.980469 M 37.195312 17.628906 C 37.160156 17.625 37.132812 17.609375 37.105469 17.589844 C 37 17.523438 36.949219 17.378906 36.949219 17.15625 C 36.949219 17.050781 36.960938 16.921875 36.984375 16.78125 C 37.019531 16.527344 37.054688 16.277344 37.089844 16.027344 C 37.125 15.78125 37.160156 15.535156 37.195312 15.285156 L 37.195312 17.628906 M 35.023438 17.414062 C 34.96875 17.414062 34.910156 17.402344 34.851562 17.378906 C 34.734375 17.332031 34.636719 17.25 34.554688 17.128906 C 34.464844 17 34.410156 16.839844 34.394531 16.65625 C 34.382812 16.539062 34.378906 16.425781 34.375 16.3125 C 34.363281 15.828125 34.421875 15.40625 34.554688 15.050781 C 34.703125 14.660156 34.890625 14.445312 35.125 14.410156 C 35.15625 14.402344 35.183594 14.402344 35.214844 14.402344 C 35.21875 14.402344 35.222656 14.402344 35.230469 14.402344 C 35.371094 14.402344 35.484375 14.445312 35.574219 14.539062 C 35.671875 14.640625 35.726562 14.789062 35.746094 14.980469 C 35.75 14.992188 35.75 15.007812 35.75 15.027344 C 35.753906 15.144531 35.734375 15.371094 35.695312 15.710938 C 35.636719 16.382812 35.546875 16.851562 35.429688 17.121094 C 35.375 17.25 35.289062 17.335938 35.179688 17.382812 C 35.128906 17.402344 35.082031 17.410156 35.035156 17.414062 C 35.03125 17.414062 35.027344 17.414062 35.023438 17.414062 M 23.957031 17.40625 C 23.929688 17.300781 23.902344 17.183594 23.882812 17.0625 C 23.871094 17 23.863281 16.941406 23.855469 16.882812 C 23.804688 16.429688 23.835938 16.019531 23.949219 15.648438 C 24.082031 15.222656 24.304688 14.941406 24.613281 14.800781 C 24.714844 14.757812 24.800781 14.726562 24.875 14.714844 C 24.890625 14.714844 24.910156 14.710938 24.925781 14.710938 C 24.929688 14.710938 24.933594 14.710938 24.9375 14.710938 C 25.078125 14.714844 25.15625 14.777344 25.167969 14.898438 C 25.171875 14.953125 25.167969 15.011719 25.15625 15.078125 C 25.125 15.234375 25.023438 15.5 24.851562 15.882812 C 24.589844 16.464844 24.289062 16.972656 23.957031 17.40625 M 19.640625 15.910156 C 19.640625 14.945312 19.644531 13.980469 19.648438 13.011719 C 19.933594 13.03125 20.167969 13.15625 20.351562 13.390625 C 20.492188 13.570312 20.582031 13.785156 20.617188 14.039062 C 20.628906 14.113281 20.632812 14.191406 20.632812 14.269531 C 20.636719 14.820312 20.523438 15.238281 20.289062 15.535156 C 20.136719 15.726562 19.964844 15.847656 19.765625 15.890625 C 19.730469 15.898438 19.691406 15.902344 19.65625 15.90625 L 19.640625 15.910156 " fill-opacity="1" fill-rule="nonzero"/><path fill="#2b1811" d="M 18.164062 21.15625 C 18.105469 19.09375 18.0625 17.03125 18.03125 14.960938 C 18.019531 14.859375 18.011719 14.558594 18.003906 14.0625 C 18.003906 13.898438 17.992188 13.746094 17.96875 13.609375 C 17.925781 13.351562 17.851562 13.144531 17.742188 12.980469 C 17.382812 13.644531 17.152344 14.117188 17.046875 14.402344 C 16.863281 14.917969 16.757812 15.515625 16.734375 16.191406 C 16.726562 16.375 16.738281 16.542969 16.765625 16.703125 C 16.8125 16.980469 16.914062 17.222656 17.058594 17.433594 C 17.175781 17.601562 17.292969 17.714844 17.410156 17.78125 C 17.167969 18.277344 17.035156 18.839844 17.011719 19.46875 C 16.488281 18.972656 16.15625 18.363281 16.023438 17.636719 C 15.898438 16.949219 15.953125 16.160156 16.195312 15.261719 C 16.445312 14.339844 16.808594 13.507812 17.285156 12.78125 C 18.074219 12.589844 18.867188 12.410156 19.65625 12.242188 C 19.867188 12.199219 20.070312 12.175781 20.257812 12.175781 C 20.558594 12.175781 20.835938 12.230469 21.085938 12.335938 C 21.640625 12.574219 21.957031 13.054688 22.050781 13.769531 C 22.070312 13.925781 22.078125 14.089844 22.078125 14.265625 C 22.066406 15.277344 21.738281 15.96875 21.101562 16.363281 C 21.527344 16.511719 21.769531 16.839844 21.839844 17.34375 C 21.851562 17.445312 21.859375 17.554688 21.855469 17.671875 C 21.855469 18.027344 21.851562 18.269531 21.84375 18.394531 C 21.839844 18.535156 21.84375 18.652344 21.855469 18.75 C 21.886719 18.960938 21.953125 19.089844 22.058594 19.136719 C 22.089844 19.148438 22.117188 19.15625 22.148438 19.15625 C 22.164062 19.15625 22.179688 19.152344 22.191406 19.152344 C 22.292969 19.132812 22.398438 19.039062 22.507812 18.878906 C 22.628906 18.699219 22.726562 18.449219 22.804688 18.121094 C 22.765625 17.972656 22.730469 17.816406 22.710938 17.648438 C 22.683594 17.433594 22.675781 17.203125 22.683594 16.953125 C 22.722656 15.886719 23.046875 15.097656 23.660156 14.597656 C 23.945312 14.367188 24.230469 14.226562 24.507812 14.183594 C 24.558594 14.175781 24.613281 14.167969 24.664062 14.15625 C 24.789062 14.136719 24.90625 14.128906 25.015625 14.128906 C 25.164062 14.128906 25.292969 14.148438 25.402344 14.1875 C 25.574219 14.246094 25.726562 14.328125 25.855469 14.425781 C 26.117188 14.625 26.261719 14.910156 26.296875 15.285156 C 26.300781 15.335938 26.304688 15.386719 26.304688 15.4375 C 26.320312 16.390625 25.621094 17.214844 24.234375 17.96875 C 24.460938 18.359375 24.792969 18.550781 25.238281 18.550781 C 25.261719 18.550781 25.285156 18.550781 25.3125 18.550781 C 25.378906 18.546875 25.445312 18.539062 25.507812 18.53125 C 25.914062 18.46875 26.261719 18.265625 26.550781 17.917969 C 26.578125 17.886719 26.597656 17.859375 26.621094 17.828125 C 26.644531 17.707031 26.691406 17.589844 26.769531 17.484375 C 26.808594 17.425781 26.851562 17.382812 26.898438 17.339844 L 26.90625 17.324219 L 26.921875 17.324219 C 27.023438 17.238281 27.140625 17.183594 27.277344 17.167969 C 27.308594 17.164062 27.339844 17.160156 27.371094 17.160156 C 27.542969 17.160156 27.695312 17.222656 27.828125 17.347656 C 27.988281 17.5 28.078125 17.691406 28.097656 17.925781 C 28.109375 18.09375 28.082031 18.25 28.015625 18.398438 L 28.015625 18.402344 C 28 18.4375 27.980469 18.476562 27.957031 18.515625 C 27.910156 18.613281 27.890625 18.707031 27.898438 18.792969 C 27.898438 18.832031 27.90625 18.867188 27.921875 18.898438 C 27.957031 19.007812 28.03125 19.0625 28.140625 19.0625 C 28.15625 19.0625 28.171875 19.0625 28.1875 19.058594 C 28.429688 19.03125 28.632812 18.910156 28.789062 18.699219 C 29.007812 18.398438 29.09375 17.949219 29.050781 17.347656 C 29.050781 17.316406 29.046875 17.285156 29.046875 17.253906 C 28.992188 16.703125 28.789062 16.222656 28.429688 15.816406 C 28.253906 15.617188 28.078125 15.46875 27.910156 15.378906 C 27.785156 15.886719 27.664062 16.390625 27.546875 16.898438 C 27.484375 16.890625 27.421875 16.886719 27.363281 16.886719 C 27.324219 16.886719 27.285156 16.886719 27.25 16.890625 C 27.144531 16.902344 27.054688 16.9375 26.980469 16.988281 C 27.199219 15.90625 27.425781 14.828125 27.660156 13.746094 C 27.921875 13.761719 28.21875 13.871094 28.550781 14.078125 C 28.878906 14.285156 29.191406 14.550781 29.480469 14.875 C 30.078125 15.5625 30.390625 16.238281 30.429688 16.894531 C 30.4375 16.984375 30.4375 17.070312 30.429688 17.15625 C 30.363281 18.476562 29.582031 19.195312 28.082031 19.371094 L 28.070312 19.375 C 28.011719 19.378906 27.957031 19.382812 27.902344 19.382812 C 27.644531 19.382812 27.410156 19.308594 27.199219 19.15625 C 27.027344 19.035156 26.894531 18.890625 26.796875 18.71875 L 26.789062 18.707031 C 26.707031 18.820312 26.617188 18.921875 26.519531 19.023438 C 26.09375 19.449219 25.613281 19.703125 25.074219 19.789062 L 25.0625 19.792969 C 24.984375 19.800781 24.910156 19.808594 24.832031 19.808594 C 24.664062 19.808594 24.488281 19.78125 24.308594 19.730469 C 24.011719 19.640625 23.75 19.496094 23.519531 19.292969 C 23.335938 19.128906 23.183594 18.941406 23.058594 18.730469 C 22.988281 19.0625 22.917969 19.324219 22.84375 19.515625 C 22.71875 19.832031 22.539062 20.0625 22.308594 20.210938 C 22.199219 20.273438 22.066406 20.324219 21.90625 20.355469 C 21.785156 20.378906 21.648438 20.394531 21.496094 20.398438 C 21.472656 20.398438 21.453125 20.398438 21.433594 20.398438 C 20.992188 20.398438 20.695312 20.230469 20.550781 19.894531 C 20.460938 19.679688 20.40625 19.496094 20.382812 19.347656 L 20.378906 19.328125 C 20.367188 19.21875 20.367188 18.972656 20.378906 18.589844 C 20.394531 18.023438 20.382812 17.597656 20.34375 17.320312 C 20.285156 16.925781 20.160156 16.726562 19.976562 16.726562 C 19.96875 16.726562 19.964844 16.726562 19.960938 16.726562 C 19.957031 16.726562 19.957031 16.726562 19.957031 16.726562 C 19.941406 16.726562 19.890625 16.738281 19.804688 16.75 C 19.722656 16.765625 19.671875 16.773438 19.660156 16.777344 L 19.644531 16.78125 C 19.648438 18.121094 19.65625 19.460938 19.667969 20.800781 C 19.167969 20.914062 18.664062 21.035156 18.164062 21.15625 M 24.925781 14.710938 C 24.910156 14.710938 24.890625 14.714844 24.875 14.714844 C 24.800781 14.726562 24.714844 14.757812 24.613281 14.800781 C 24.304688 14.941406 24.082031 15.222656 23.949219 15.648438 C 23.835938 16.019531 23.804688 16.429688 23.855469 16.882812 C 23.863281 16.941406 23.871094 17 23.882812 17.0625 C 23.902344 17.183594 23.929688 17.300781 23.957031 17.40625 C 24.289062 16.972656 24.589844 16.464844 24.851562 15.882812 C 25.023438 15.5 25.125 15.234375 25.15625 15.078125 C 25.167969 15.011719 25.171875 14.953125 25.167969 14.898438 C 25.15625 14.777344 25.078125 14.714844 24.9375 14.710938 C 24.933594 14.710938 24.929688 14.710938 24.925781 14.710938 M 19.648438 13.011719 C 19.644531 13.980469 19.640625 14.945312 19.640625 15.910156 L 19.65625 15.90625 C 19.691406 15.902344 19.730469 15.898438 19.765625 15.890625 C 19.964844 15.847656 20.136719 15.726562 20.289062 15.535156 C 20.523438 15.238281 20.636719 14.820312 20.632812 14.269531 C 20.632812 14.191406 20.628906 14.113281 20.617188 14.039062 C 20.582031 13.785156 20.492188 13.570312 20.351562 13.390625 C 20.167969 13.15625 19.933594 13.03125 19.648438 13.011719 " fill-opacity="1" fill-rule="nonzero"/><path fill="#2b1811" d="M 32.042969 18.996094 C 31.9375 18.996094 31.824219 18.984375 31.699219 18.964844 C 31.257812 18.890625 30.988281 18.648438 30.894531 18.234375 C 30.863281 18.109375 30.84375 17.945312 30.832031 17.746094 C 30.804688 17.269531 30.828125 16.582031 30.898438 15.691406 C 30.90625 15.496094 30.945312 14.988281 31.023438 14.164062 C 30.847656 14.179688 30.671875 14.191406 30.496094 14.207031 C 30.511719 13.945312 30.527344 13.683594 30.546875 13.421875 C 30.730469 13.40625 30.914062 13.390625 31.097656 13.378906 C 31.171875 12.578125 31.21875 12.109375 31.230469 11.972656 C 31.242188 11.859375 31.246094 11.75 31.238281 11.644531 C 31.226562 11.410156 31.179688 11.1875 31.089844 10.976562 C 31.023438 10.820312 30.957031 10.699219 30.886719 10.613281 C 31.132812 10.59375 31.375 10.578125 31.617188 10.558594 C 31.652344 10.554688 31.6875 10.554688 31.71875 10.554688 C 32.125 10.554688 32.402344 10.738281 32.558594 11.097656 C 32.636719 11.277344 32.679688 11.472656 32.6875 11.691406 C 32.691406 11.800781 32.6875 11.910156 32.675781 12.023438 C 32.628906 12.457031 32.582031 12.875 32.539062 13.277344 C 32.714844 13.265625 32.894531 13.257812 33.070312 13.25 C 33.046875 13.507812 33.023438 13.769531 33.003906 14.03125 C 32.820312 14.042969 32.636719 14.054688 32.453125 14.0625 C 32.417969 14.441406 32.378906 14.816406 32.34375 15.195312 C 32.308594 15.53125 32.273438 15.871094 32.238281 16.207031 C 32.203125 16.582031 32.179688 16.828125 32.167969 16.960938 C 32.148438 17.105469 32.140625 17.230469 32.144531 17.335938 C 32.15625 17.558594 32.210938 17.703125 32.316406 17.765625 C 32.355469 17.789062 32.394531 17.800781 32.4375 17.800781 C 32.445312 17.800781 32.449219 17.800781 32.453125 17.800781 C 32.554688 17.792969 32.667969 17.710938 32.789062 17.558594 C 32.914062 17.398438 33.027344 17.164062 33.132812 16.863281 C 33.121094 16.753906 33.113281 16.640625 33.109375 16.527344 C 33.097656 16.21875 33.113281 15.890625 33.15625 15.546875 C 33.289062 14.464844 33.609375 13.746094 34.125 13.394531 C 34.339844 13.246094 34.605469 13.164062 34.925781 13.152344 C 34.949219 13.152344 34.96875 13.152344 34.992188 13.152344 C 35.042969 13.152344 35.09375 13.15625 35.144531 13.160156 C 35.382812 13.175781 35.636719 13.300781 35.902344 13.542969 C 35.929688 13.570312 35.957031 13.597656 35.984375 13.625 C 36.007812 13.453125 36.03125 13.28125 36.058594 13.109375 C 36.4375 13.101562 36.816406 13.101562 37.195312 13.097656 L 37.195312 15.285156 C 37.160156 15.535156 37.125 15.78125 37.089844 16.027344 C 37.054688 16.277344 37.019531 16.527344 36.984375 16.78125 C 36.960938 16.921875 36.949219 17.050781 36.949219 17.15625 C 36.949219 17.378906 37 17.523438 37.105469 17.589844 C 37.132812 17.609375 37.160156 17.625 37.195312 17.628906 L 37.195312 18.765625 C 37.105469 18.796875 37 18.8125 36.878906 18.816406 C 36.878906 18.816406 36.875 18.816406 36.875 18.816406 C 36.769531 18.816406 36.65625 18.804688 36.53125 18.785156 C 36.136719 18.71875 35.871094 18.539062 35.734375 18.234375 C 35.511719 18.628906 35.171875 18.828125 34.707031 18.84375 L 34.671875 18.847656 C 34.660156 18.847656 34.65625 18.847656 34.648438 18.847656 C 34.042969 18.847656 33.617188 18.511719 33.359375 17.839844 C 33.113281 18.386719 32.820312 18.742188 32.472656 18.910156 C 32.375 18.957031 32.261719 18.984375 32.132812 18.996094 C 32.105469 18.996094 32.074219 18.996094 32.042969 18.996094 M 35.230469 14.402344 C 35.222656 14.402344 35.21875 14.402344 35.214844 14.402344 C 35.183594 14.402344 35.15625 14.402344 35.125 14.410156 C 34.890625 14.445312 34.703125 14.660156 34.554688 15.050781 C 34.421875 15.40625 34.363281 15.828125 34.375 16.3125 C 34.378906 16.425781 34.382812 16.539062 34.394531 16.65625 C 34.410156 16.839844 34.464844 17 34.554688 17.128906 C 34.636719 17.25 34.734375 17.332031 34.851562 17.378906 C 34.910156 17.402344 34.96875 17.414062 35.023438 17.414062 C 35.027344 17.414062 35.03125 17.414062 35.035156 17.414062 C 35.082031 17.410156 35.128906 17.402344 35.179688 17.382812 C 35.289062 17.335938 35.375 17.25 35.429688 17.121094 C 35.546875 16.851562 35.636719 16.382812 35.695312 15.710938 C 35.734375 15.371094 35.753906 15.144531 35.75 15.027344 C 35.75 15.007812 35.75 14.992188 35.746094 14.980469 C 35.726562 14.789062 35.671875 14.640625 35.574219 14.539062 C 35.484375 14.445312 35.371094 14.402344 35.230469 14.402344 " fill-opacity="1" fill-rule="nonzero"/><path fill="#917756" d="M 28.90625 62.550781 L 27.316406 62.550781 L 27.316406 37.253906 L 37.195312 37.253906 L 37.195312 38.742188 L 28.90625 38.742188 L 28.90625 62.550781 " fill-opacity="1" fill-rule="nonzero"/><g clip-path="url(#550559ca97)"><path fill="#972814" d="M 27.316406 69.9375 L 28.90625 69.9375 L 28.90625 62.550781 L 27.316406 62.550781 Z M 27.316406 69.9375 " fill-opacity="1" fill-rule="nonzero"/></g><g clip-path="url(#dc6b069642)"><path fill="#543219" d="M 37.195312 69.9375 L 28.90625 69.9375 L 28.90625 38.742188 L 37.195312 38.742188 L 37.195312 42.902344 L 31.394531 42.902344 L 31.394531 66.769531 L 37.195312 66.769531 L 37.195312 69.9375 " fill-opacity="1" fill-rule="nonzero"/></g><path fill="#2b1811" d="M 37.195312 66.769531 L 31.394531 66.769531 L 31.394531 42.902344 L 37.195312 42.902344 L 37.195312 43.496094 L 32.136719 43.496094 L 32.136719 66.175781 L 37.195312 66.175781 L 37.195312 66.769531 " fill-opacity="1" fill-rule="nonzero"/><path fill="#538f91" d="M 37.195312 66.175781 L 32.136719 66.175781 L 37.195312 54.289062 L 37.195312 66.175781 " fill-opacity="1" fill-rule="nonzero"/><path fill="#709e9e" d="M 32.136719 66.175781 L 32.136719 43.496094 L 37.195312 43.496094 L 37.195312 54.289062 L 32.136719 66.175781 " fill-opacity="1" fill-rule="nonzero"/><path fill="#9e8d64" d="M 24.507812 61.140625 L 4.601562 61.140625 L 4.601562 38.59375 L 24.507812 38.59375 L 24.507812 61.140625 M 14.554688 60.472656 L 24.007812 60.472656 L 24.007812 39.277344 L 5.105469 39.277344 L 5.105469 60.472656 L 14.554688 60.472656 " fill-opacity="1" fill-rule="nonzero"/><path fill="#88171b" d="M 24.007812 60.472656 L 14.554688 60.472656 L 14.554688 39.398438 L 14.367188 39.398438 L 14.367188 60.472656 L 5.105469 60.472656 L 5.105469 39.277344 L 24.007812 39.277344 L 24.007812 60.472656 M 15.394531 53.578125 L 15.394531 59.492188 L 22.207031 59.492188 L 22.207031 53.578125 L 15.394531 53.578125 M 6.457031 53.578125 L 6.457031 59.492188 L 13.269531 59.492188 L 13.269531 53.578125 L 6.457031 53.578125 M 15.394531 46.847656 L 15.394531 52.761719 L 22.207031 52.761719 L 22.207031 46.847656 L 15.394531 46.847656 M 6.457031 46.847656 L 6.457031 52.761719 L 13.269531 52.761719 L 13.269531 46.847656 L 6.457031 46.847656 M 15.394531 40.304688 L 15.394531 46.21875 L 22.207031 46.21875 L 22.207031 40.304688 L 15.394531 40.304688 M 6.457031 40.304688 L 6.457031 46.21875 L 13.269531 46.21875 L 13.269531 40.304688 L 6.457031 40.304688 " fill-opacity="1" fill-rule="nonzero"/><path fill="#4e0b0d" d="M 13.269531 46.21875 L 6.457031 46.21875 L 6.457031 40.304688 L 13.269531 40.304688 L 13.269531 46.21875 M 6.535156 40.375 L 6.535156 46.148438 L 13.191406 46.148438 L 13.191406 40.375 L 6.535156 40.375 " fill-opacity="1" fill-rule="nonzero"/><path fill="#538f91" d="M 13.191406 46.148438 L 6.535156 46.148438 L 6.535156 40.375 L 13.191406 40.375 L 13.191406 46.148438 M 6.695312 40.511719 L 6.695312 46.074219 L 13.074219 40.511719 L 6.695312 40.511719 " fill-opacity="1" fill-rule="nonzero"/><path fill="#709e9e" d="M 6.695312 46.074219 L 6.695312 40.511719 L 13.074219 40.511719 L 6.695312 46.074219 " fill-opacity="1" fill-rule="nonzero"/><path fill="#4e0b0d" d="M 13.269531 52.761719 L 6.457031 52.761719 L 6.457031 46.847656 L 13.269531 46.847656 L 13.269531 52.761719 M 6.535156 46.917969 L 6.535156 52.695312 L 13.191406 52.695312 L 13.191406 46.917969 L 6.535156 46.917969 " fill-opacity="1" fill-rule="nonzero"/><path fill="#538f91" d="M 13.191406 52.695312 L 6.535156 52.695312 L 6.535156 46.917969 L 13.191406 46.917969 L 13.191406 52.695312 M 6.695312 47.054688 L 6.695312 52.617188 L 13.074219 47.054688 L 6.695312 47.054688 " fill-opacity="1" fill-rule="nonzero"/><path fill="#709e9e" d="M 6.695312 52.617188 L 6.695312 47.054688 L 13.074219 47.054688 L 6.695312 52.617188 " fill-opacity="1" fill-rule="nonzero"/><path fill="#4e0b0d" d="M 13.269531 59.492188 L 6.457031 59.492188 L 6.457031 53.578125 L 13.269531 53.578125 L 13.269531 59.492188 M 6.535156 53.648438 L 6.535156 59.425781 L 13.191406 59.425781 L 13.191406 53.648438 L 6.535156 53.648438 " fill-opacity="1" fill-rule="nonzero"/><path fill="#538f91" d="M 13.191406 59.425781 L 6.535156 59.425781 L 6.535156 53.648438 L 13.191406 53.648438 L 13.191406 59.425781 M 6.695312 53.789062 L 6.695312 59.347656 L 13.074219 53.789062 L 6.695312 53.789062 " fill-opacity="1" fill-rule="nonzero"/><path fill="#709e9e" d="M 6.695312 59.347656 L 6.695312 53.789062 L 13.074219 53.789062 L 6.695312 59.347656 " fill-opacity="1" fill-rule="nonzero"/><path fill="#4e0b0d" d="M 22.207031 46.21875 L 15.394531 46.21875 L 15.394531 40.304688 L 22.207031 40.304688 L 22.207031 46.21875 M 15.472656 40.375 L 15.472656 46.148438 L 22.128906 46.148438 L 22.128906 40.375 L 15.472656 40.375 " fill-opacity="1" fill-rule="nonzero"/><path fill="#538f91" d="M 22.128906 46.148438 L 15.472656 46.148438 L 15.472656 40.375 L 22.128906 40.375 L 22.128906 46.148438 M 15.632812 40.511719 L 15.632812 46.074219 L 22.015625 40.511719 L 15.632812 40.511719 " fill-opacity="1" fill-rule="nonzero"/><path fill="#709e9e" d="M 15.632812 46.074219 L 15.632812 40.511719 L 22.015625 40.511719 L 15.632812 46.074219 " fill-opacity="1" fill-rule="nonzero"/><path fill="#4e0b0d" d="M 22.207031 52.761719 L 15.394531 52.761719 L 15.394531 46.847656 L 22.207031 46.847656 L 22.207031 52.761719 M 15.472656 46.917969 L 15.472656 52.695312 L 22.128906 52.695312 L 22.128906 46.917969 L 15.472656 46.917969 " fill-opacity="1" fill-rule="nonzero"/><path fill="#538f91" d="M 22.128906 52.695312 L 15.472656 52.695312 L 15.472656 46.917969 L 22.128906 46.917969 L 22.128906 52.695312 M 15.632812 47.054688 L 15.632812 52.617188 L 22.015625 47.054688 L 15.632812 47.054688 " fill-opacity="1" fill-rule="nonzero"/><path fill="#709e9e" d="M 15.632812 52.617188 L 15.632812 47.054688 L 22.015625 47.054688 L 15.632812 52.617188 " fill-opacity="1" fill-rule="nonzero"/><path fill="#4e0b0d" d="M 22.207031 59.492188 L 15.394531 59.492188 L 15.394531 53.578125 L 22.207031 53.578125 L 22.207031 59.492188 M 15.472656 53.648438 L 15.472656 59.425781 L 22.128906 59.425781 L 22.128906 53.648438 L 15.472656 53.648438 " fill-opacity="1" fill-rule="nonzero"/><path fill="#538f91" d="M 22.128906 59.425781 L 15.472656 59.425781 L 15.472656 53.648438 L 22.128906 53.648438 L 22.128906 59.425781 M 15.632812 53.789062 L 15.632812 59.347656 L 22.015625 53.789062 L 15.632812 53.789062 " fill-opacity="1" fill-rule="nonzero"/><path fill="#709e9e" d="M 15.632812 59.347656 L 15.632812 53.789062 L 22.015625 53.789062 L 15.632812 59.347656 " fill-opacity="1" fill-rule="nonzero"/><path fill="#721216" d="M 14.367188 60.472656 L 14.554688 60.472656 L 14.554688 39.398438 L 14.367188 39.398438 Z M 14.367188 60.472656 " fill-opacity="1" fill-rule="nonzero"/></svg>