<svg xmlns="http://www.w3.org/2000/svg" xmlns:xlink="http://www.w3.org/1999/xlink" width="100" zoomAndPan="magnify" viewBox="0 0 75 74.999997" height="100" preserveAspectRatio="xMidYMid meet" version="1.0"><path fill="#3e721d" d="M 63.347656 61.546875 C 62.613281 61.546875 61.898438 61.164062 61.507812 60.480469 L 52.535156 45.699219 C 51.957031 44.683594 52.183594 43.414062 53.195312 42.832031 L 63.703125 36.472656 C 64.03125 36.285156 64.753906 36.121094 65.109375 36.121094 C 65.84375 36.121094 66.53125 36.542969 66.921875 37.226562 L 73.503906 48.078125 L 73.851562 52.808594 C 74.433594 53.820312 71.820312 55.316406 70.804688 55.894531 L 64.394531 61.265625 C 64.066406 61.457031 63.707031 61.546875 63.347656 61.546875 Z M 63.347656 61.546875 " fill-opacity="1" fill-rule="nonzero"/><path fill="#77b255" d="M 48.515625 67.902344 C 47.34375 67.902344 46.398438 66.957031 46.398438 65.785156 L 46.398438 53.070312 C 46.398438 51.902344 47.34375 50.953125 48.515625 50.953125 L 69.703125 50.953125 C 73.621094 50.953125 72.988281 47.179688 72.988281 47.179688 C 72.988281 47.179688 73.679688 48.371094 73.78125 48.558594 C 74.472656 49.859375 74.933594 51.847656 73.855469 53.867188 L 67.308594 66.835938 C 67.003906 67.449219 66.269531 67.902344 65.464844 67.902344 Z M 48.515625 67.902344 " fill-opacity="1" fill-rule="nonzero"/><path fill="#77b255" d="M 46.398438 74.257812 C 45.847656 74.257812 45.304688 74.042969 44.902344 73.636719 L 32.1875 60.925781 C 31.359375 60.097656 31.359375 58.757812 32.1875 57.929688 L 44.902344 45.21875 C 45.304688 44.8125 45.847656 44.597656 46.398438 44.597656 C 46.671875 44.597656 46.945312 44.648438 47.210938 44.757812 C 48.003906 45.085938 48.515625 45.859375 48.515625 46.714844 L 48.515625 72.140625 C 48.515625 72.996094 48.003906 73.769531 47.210938 74.097656 C 46.945312 74.207031 46.671875 74.257812 46.398438 74.257812 Z M 46.398438 74.257812 " fill-opacity="1" fill-rule="nonzero"/><path fill="#3e721d" d="M 43.417969 7.09375 C 43.753906 7.753906 43.734375 8.5625 43.304688 9.222656 L 34.207031 23.925781 C 33.566406 24.90625 32.332031 25.28125 31.351562 24.636719 L 20.917969 18.167969 C 20.601562 17.957031 20.128906 17.390625 19.964844 17.074219 C 19.632812 16.417969 19.691406 15.617188 20.125 14.957031 L 26.804688 4.164062 L 30.859375 1.707031 C 31.5 0.726562 34.015625 2.375 34.996094 3.019531 L 42.6875 6.289062 C 43.011719 6.5 43.257812 6.78125 43.417969 7.09375 Z M 43.417969 7.09375 " fill-opacity="1" fill-rule="nonzero"/><path fill="#77b255" d="M 55.8125 17.425781 C 56.34375 18.46875 55.933594 19.742188 54.886719 20.277344 L 43.558594 26.046875 C 42.515625 26.578125 41.242188 26.164062 40.710938 25.121094 L 31.089844 6.246094 C 29.3125 2.753906 26.238281 5.03125 26.238281 5.03125 C 26.238281 5.03125 26.984375 3.875 27.105469 3.695312 C 27.953125 2.488281 29.511719 1.179688 31.800781 1.222656 L 46.332031 1.164062 C 47.019531 1.164062 47.753906 1.609375 48.121094 2.324219 Z M 55.8125 17.425781 " fill-opacity="1" fill-rule="nonzero"/><path fill="#77b255" d="M 62.4375 16.429688 C 62.6875 16.917969 62.742188 17.5 62.566406 18.042969 L 57.011719 35.144531 C 56.652344 36.257812 55.457031 36.863281 54.34375 36.503906 L 37.246094 30.945312 C 36.699219 30.769531 36.261719 30.386719 36.011719 29.894531 C 35.886719 29.65625 35.808594 29.382812 35.785156 29.097656 C 35.714844 28.242188 36.171875 27.433594 36.9375 27.046875 L 59.589844 15.503906 C 60.351562 15.113281 61.273438 15.21875 61.925781 15.78125 C 62.144531 15.960938 62.316406 16.1875 62.4375 16.429688 Z M 62.4375 16.429688 " fill-opacity="1" fill-rule="nonzero"/><path fill="#3e721d" d="M 6.9375 52.101562 C 7.320312 51.472656 8.019531 51.0625 8.808594 51.085938 L 26.097656 51.097656 C 27.269531 51.132812 28.234375 51.988281 28.207031 53.15625 L 28.175781 65.433594 C 28.164062 65.816406 27.929688 66.519531 27.746094 66.820312 C 27.363281 67.449219 26.644531 67.820312 25.859375 67.796875 L 13.167969 67.78125 L 8.945312 65.621094 C 7.777344 65.585938 7.859375 62.582031 7.886719 61.414062 L 6.632812 53.140625 C 6.640625 52.761719 6.753906 52.40625 6.9375 52.101562 Z M 6.9375 52.101562 " fill-opacity="1" fill-rule="nonzero"/><path fill="#77b255" d="M 9.21875 36.128906 C 9.828125 35.128906 11.128906 34.808594 12.128906 35.417969 L 22.988281 42.027344 C 23.992188 42.632812 24.308594 43.933594 23.699219 44.9375 L 12.6875 63.035156 C 10.65625 66.382812 14.207031 67.804688 14.207031 67.804688 C 14.207031 67.804688 12.832031 67.773438 12.617188 67.761719 C 11.140625 67.679688 9.207031 67.039062 8.042969 65.066406 L 0.359375 52.738281 C -0.00390625 52.15625 -0.0078125 51.292969 0.410156 50.605469 Z M 9.21875 36.128906 " fill-opacity="1" fill-rule="nonzero"/><path fill="#77b255" d="M 4.886719 31.015625 C 5.175781 30.539062 5.640625 30.191406 6.195312 30.054688 L 23.664062 25.804688 C 24.804688 25.523438 25.945312 26.21875 26.222656 27.359375 L 30.476562 44.824219 C 30.613281 45.382812 30.511719 45.957031 30.226562 46.429688 C 30.085938 46.660156 29.898438 46.867188 29.667969 47.039062 C 28.976562 47.542969 28.046875 47.582031 27.316406 47.136719 L 5.597656 33.925781 C 4.867188 33.480469 4.472656 32.636719 4.605469 31.789062 C 4.648438 31.507812 4.746094 31.246094 4.886719 31.015625 Z M 4.886719 31.015625 " fill-opacity="1" fill-rule="nonzero"/></svg>