<svg xmlns="http://www.w3.org/2000/svg" xmlns:xlink="http://www.w3.org/1999/xlink" width="100" zoomAndPan="magnify" viewBox="0 0 75 74.999997" height="100" preserveAspectRatio="xMidYMid meet" version="1.0"><defs><clipPath id="0e578bce23"><path d="M 58.3125 40.375 L 74.988281 40.375 L 74.988281 52.605469 L 58.3125 52.605469 Z M 58.3125 40.375 " clip-rule="nonzero"/></clipPath><clipPath id="6e1c9ee604"><path d="M 22.964844 6.707031 L 74.988281 6.707031 L 74.988281 74.875 L 22.964844 74.875 Z M 22.964844 6.707031 " clip-rule="nonzero"/></clipPath></defs><path fill="#fcd152" d="M 66.117188 32.367188 L 59.863281 41.054688 C 59.742188 41.222656 59.546875 41.324219 59.335938 41.324219 L 58.316406 41.324219 L 58.316406 40.027344 L 59 40.027344 L 65.0625 31.609375 C 65.273438 31.320312 65.679688 31.253906 65.972656 31.460938 C 66.261719 31.671875 66.328125 32.078125 66.117188 32.367188 " fill-opacity="1" fill-rule="nonzero"/><path fill="#fcd152" d="M 72.042969 37.957031 L 65.351562 44.859375 C 63.679688 46.585938 61.339844 47.578125 58.933594 47.578125 L 55.601562 47.578125 L 55.601562 48.992188 L 54.890625 48.992188 L 54.890625 46.28125 L 58.933594 46.28125 C 60.992188 46.28125 62.988281 45.433594 64.417969 43.957031 L 71.109375 37.054688 C 71.355469 36.796875 71.769531 36.789062 72.027344 37.039062 C 72.285156 37.289062 72.289062 37.699219 72.042969 37.957031 " fill-opacity="1" fill-rule="nonzero"/><path fill="#fcd152" d="M 74.917969 33.578125 L 74.917969 40.046875 C 74.886719 39.9375 74.828125 39.835938 74.742188 39.75 C 74.484375 39.503906 74.074219 39.507812 73.824219 39.765625 L 73.617188 39.980469 L 73.617188 33.578125 C 73.617188 32.265625 73.265625 31.03125 72.65625 29.964844 C 73.445312 30.417969 74.140625 31.011719 74.710938 31.71875 C 74.84375 32.316406 74.917969 32.941406 74.917969 33.578125 " fill-opacity="1" fill-rule="nonzero"/><g clip-path="url(#0e578bce23)"><path fill="#fcd152" d="M 74.988281 50.519531 C 74.988281 50.625 74.960938 50.726562 74.917969 50.8125 L 74.917969 52.582031 L 58.316406 52.582031 L 58.316406 50.292969 L 61.648438 50.292969 C 62.570312 50.292969 63.480469 50.148438 64.347656 49.871094 L 73.617188 49.871094 L 73.617188 41.847656 L 74.757812 40.671875 C 74.835938 40.589844 74.886719 40.496094 74.917969 40.394531 L 74.917969 50.226562 C 74.960938 50.316406 74.988281 50.414062 74.988281 50.519531 " fill-opacity="1" fill-rule="nonzero"/></g><path fill="#ffffff" d="M 55.601562 53.765625 L 67.578125 53.765625 C 67.695312 53.632812 67.867188 53.546875 68.058594 53.546875 C 68.25 53.546875 68.421875 53.632812 68.539062 53.765625 L 73.617188 53.765625 L 73.617188 51.167969 L 55.601562 51.167969 L 55.601562 53.765625 " fill-opacity="1" fill-rule="nonzero"/><path fill="#fcd152" d="M 65.105469 11.46875 L 69.609375 12.136719 L 70.828125 12.136719 C 71.121094 12.136719 71.402344 12.179688 71.667969 12.257812 L 71.667969 9.1875 C 71.667969 6.109375 69.160156 3.601562 66.074219 3.601562 L 57.832031 3.601562 C 58.125 7.585938 61.089844 10.84375 65.105469 11.46875 " fill-opacity="1" fill-rule="nonzero"/><path fill="#f3615c" d="M 68.707031 73.496094 L 72.101562 73.496094 C 72.9375 73.496094 73.617188 72.816406 73.617188 71.984375 L 73.617188 55.0625 L 68.707031 55.0625 L 68.707031 73.496094 " fill-opacity="1" fill-rule="nonzero"/><path fill="#fddcc0" d="M 70.828125 13.433594 L 69.5625 13.433594 C 69.527344 13.433594 69.496094 13.429688 69.464844 13.425781 L 64.90625 12.753906 C 62.71875 12.410156 60.710938 11.347656 59.203125 9.746094 C 59.136719 10.082031 59.105469 10.425781 59.105469 10.777344 L 59.105469 16.941406 C 59.105469 19.980469 61.582031 22.457031 64.628906 22.457031 L 64.738281 22.457031 C 67.421875 22.457031 69.714844 20.5 70.175781 17.910156 L 69.757812 17.910156 C 69.398438 17.910156 69.109375 17.617188 69.109375 17.261719 C 69.109375 16.902344 69.398438 16.609375 69.757812 16.609375 L 70.828125 16.609375 C 71.707031 16.609375 72.417969 15.898438 72.417969 15.023438 C 72.417969 14.144531 71.707031 13.433594 70.828125 13.433594 " fill-opacity="1" fill-rule="nonzero"/><path fill="#f3615c" d="M 62.859375 59.066406 C 62.859375 61.707031 64.847656 63.894531 67.410156 64.214844 L 67.410156 55.0625 L 62.859375 55.0625 L 62.859375 59.066406 " fill-opacity="1" fill-rule="nonzero"/><path fill="#f3615c" d="M 14.480469 59.703125 C 14.15625 59.851562 13.8125 59.925781 13.472656 59.925781 C 13.140625 62.957031 10.710938 65.363281 7.667969 65.667969 L 7.667969 73.640625 L 17.808594 73.640625 C 18.644531 73.640625 19.324219 72.960938 19.324219 72.128906 L 19.324219 55.207031 L 17.445312 55.207031 C 17.398438 57.085938 16.304688 58.871094 14.480469 59.703125 " fill-opacity="1" fill-rule="nonzero"/><path fill="#fcd152" d="M 10.253906 1.296875 C 7.101562 1.296875 4.320312 3.460938 3.480469 6.441406 L 17.027344 6.429688 C 16.183594 3.457031 13.398438 1.296875 10.253906 1.296875 " fill-opacity="1" fill-rule="nonzero"/><path fill="#ffffff" d="M 16.988281 52.992188 C 17.125 53.292969 17.230469 53.597656 17.304688 53.910156 L 19.324219 53.910156 L 19.324219 51.3125 L 16.222656 51.3125 L 16.988281 52.992188 " fill-opacity="1" fill-rule="nonzero"/><path fill="#fcd152" d="M 10.03125 52.726562 L 4.027344 52.726562 L 4.027344 36.433594 C 4.027344 35.546875 4.1875 34.695312 4.480469 33.90625 C 4.769531 33.953125 5.003906 34.1875 5.03125 34.492188 C 5.195312 36.402344 5.441406 39.636719 5.449219 39.957031 C 5.527344 42.015625 6.003906 44.015625 6.859375 45.890625 L 9.339844 51.316406 L 9.378906 51.296875 L 9.917969 52.480469 L 10.03125 52.726562 " fill-opacity="1" fill-rule="nonzero"/><path fill="#fcd152" d="M 16.484375 51.789062 L 16.449219 51.808594 L 15.289062 52.394531 L 12.054688 54.03125 L 11.078125 51.890625 L 10.539062 50.710938 L 13.769531 49.078125 L 11.164062 43.375 C 11.128906 43.292969 11.105469 43.207031 11.105469 43.121094 L 10.855469 32.96875 C 10.84375 32.609375 11.128906 32.3125 11.488281 32.304688 C 11.847656 32.289062 12.144531 32.578125 12.152344 32.933594 L 12.402344 42.957031 L 15.628906 50.015625 L 15.675781 50.015625 L 16.269531 51.3125 L 16.484375 51.789062 " fill-opacity="1" fill-rule="nonzero"/><path fill="#fcd152" d="M 20.625 33.722656 L 20.625 52.726562 L 19.324219 52.726562 L 19.324219 51.3125 L 17.699219 51.3125 L 17.105469 50.015625 L 19.324219 50.015625 L 19.324219 33.722656 C 19.324219 32.40625 18.976562 31.175781 18.363281 30.109375 C 19.15625 30.5625 19.851562 31.160156 20.421875 31.863281 C 20.554688 32.460938 20.625 33.082031 20.625 33.722656 " fill-opacity="1" fill-rule="nonzero"/><path fill="#fddcc0" d="M 4.933594 12.007812 L 5.734375 12.007812 C 6.09375 12.007812 6.382812 12.296875 6.382812 12.65625 C 6.382812 13.011719 6.09375 13.304688 5.734375 13.304688 L 4.464844 13.304688 C 3.589844 13.304688 2.875 14.015625 2.875 14.894531 C 2.875 15.769531 3.589844 16.480469 4.464844 16.480469 L 5.535156 16.480469 C 5.894531 16.480469 6.1875 16.773438 6.1875 17.128906 C 6.1875 17.488281 5.894531 17.78125 5.535156 17.78125 L 5.019531 17.78125 C 5.449219 20.414062 7.78125 22.457031 10.507812 22.457031 C 13.578125 22.457031 16.070312 19.964844 16.070312 16.902344 L 16.070312 10.539062 L 4.902344 10.539062 L 4.933594 12.007812 " fill-opacity="1" fill-rule="nonzero"/><path fill="#fddcc0" d="M 13.941406 58.523438 C 15.832031 57.660156 16.667969 55.421875 15.804688 53.53125 L 14.308594 50.257812 L 9.878906 52.5 L 12.363281 57.933594 C 12.636719 58.53125 13.34375 58.792969 13.941406 58.523438 " fill-opacity="1" fill-rule="nonzero"/><path fill="#f3615c" d="M 7.667969 55.207031 L 7.667969 64.359375 C 10.101562 64.054688 12.019531 62.058594 12.199219 59.589844 C 11.765625 59.339844 11.402344 58.960938 11.179688 58.472656 L 9.6875 55.207031 L 7.667969 55.207031 " fill-opacity="1" fill-rule="nonzero"/><path fill="#f3615c" d="M 1.308594 72.128906 C 1.308594 72.960938 1.992188 73.640625 2.828125 73.640625 L 6.367188 73.640625 L 6.367188 55.207031 L 1.308594 55.207031 L 1.308594 72.128906 " fill-opacity="1" fill-rule="nonzero"/><path fill="#ffffff" d="M 8.515625 52.644531 C 8.480469 52.601562 8.449219 52.558594 8.421875 52.507812 C 8.390625 52.445312 8.371094 52.375 8.363281 52.308594 L 7.910156 51.3125 L 1.308594 51.3125 L 1.308594 53.910156 L 6.535156 53.910156 C 6.65625 53.777344 6.828125 53.691406 7.019531 53.691406 C 7.210938 53.691406 7.378906 53.777344 7.5 53.910156 L 9.09375 53.910156 L 8.515625 52.644531 " fill-opacity="1" fill-rule="nonzero"/><path fill="#fcd152" d="M 37.164062 31.71875 C 39.941406 31.71875 42.386719 33.484375 43.273438 36.070312 L 48.734375 36.070312 L 50.039062 28.769531 C 50.074219 28.574219 50.023438 28.382812 49.894531 28.226562 C 49.769531 28.074219 49.589844 27.992188 49.386719 27.992188 L 24.9375 27.992188 C 24.742188 27.992188 24.5625 28.074219 24.433594 28.222656 C 24.304688 28.375 24.253906 28.5625 24.285156 28.757812 L 25.460938 36.070312 L 31.054688 36.070312 C 31.941406 33.484375 34.382812 31.71875 37.164062 31.71875 " fill-opacity="1" fill-rule="nonzero"/><path fill="#f3615c" d="M 39.160156 25.097656 C 39.160156 24.371094 38.570312 23.777344 37.84375 23.777344 L 37.3125 23.777344 C 37.066406 23.777344 36.84375 23.640625 36.734375 23.421875 C 36.621094 23.203125 36.644531 22.941406 36.789062 22.746094 C 36.847656 22.664062 36.917969 22.53125 36.917969 22.359375 C 36.917969 21.996094 36.625 21.703125 36.261719 21.703125 L 34.574219 21.703125 C 34.402344 21.785156 34.199219 21.796875 34.011719 21.710938 C 34.007812 21.707031 34.007812 21.707031 34.003906 21.703125 L 30.019531 21.703125 C 29.65625 21.703125 29.359375 21.996094 29.359375 22.359375 C 29.359375 22.53125 29.429688 22.664062 29.492188 22.746094 C 29.636719 22.941406 29.65625 23.203125 29.546875 23.421875 C 29.4375 23.640625 29.210938 23.777344 28.96875 23.777344 L 28.4375 23.777344 C 27.710938 23.777344 27.117188 24.371094 27.117188 25.097656 L 27.117188 26.695312 L 39.160156 26.695312 L 39.160156 25.097656 " fill-opacity="1" fill-rule="nonzero"/><path fill="#ffffff" d="M 48.226562 11.109375 C 48.386719 10.796875 48.765625 10.671875 49.082031 10.824219 C 49.527344 11.035156 50.054688 10.859375 50.285156 10.421875 C 50.394531 10.207031 50.417969 9.960938 50.34375 9.726562 C 50.269531 9.496094 50.109375 9.304688 49.894531 9.191406 C 49.660156 9.074219 49.386719 9.058594 49.140625 9.15625 C 48.964844 9.222656 48.769531 9.214844 48.601562 9.128906 C 48.4375 9.042969 48.316406 8.886719 48.269531 8.703125 C 48.207031 8.449219 48.039062 8.230469 47.804688 8.109375 C 47.359375 7.878906 46.808594 8.054688 46.574219 8.5 C 46.347656 8.9375 46.507812 9.46875 46.9375 9.710938 C 47.242188 9.882812 47.359375 10.265625 47.195312 10.578125 L 45.3125 14.203125 L 46.34375 14.734375 L 48.226562 11.109375 " fill-opacity="1" fill-rule="nonzero"/><path fill="#f3615c" d="M 38.21875 22.359375 C 38.21875 22.410156 38.214844 22.457031 38.214844 22.507812 C 39.480469 22.6875 40.460938 23.78125 40.460938 25.097656 L 40.460938 26.695312 L 46.710938 26.695312 C 47.082031 25.816406 47.25 24.875 47.203125 23.890625 L 46.90625 17.246094 C 46.882812 16.769531 46.605469 16.335938 46.183594 16.113281 L 44.207031 15.089844 C 43.78125 14.871094 43.265625 14.894531 42.859375 15.152344 L 37.25 18.730469 C 36.546875 19.179688 35.945312 19.75 35.46875 20.40625 L 36.261719 20.40625 C 37.339844 20.40625 38.21875 21.28125 38.21875 22.359375 " fill-opacity="1" fill-rule="nonzero"/><path fill="#fcd152" d="M 52.445312 59.136719 L 52.445312 63.027344 L 51.144531 63.027344 L 51.144531 62.019531 L 26.234375 62.019531 L 26.234375 60.648438 C 26.234375 59.8125 26.914062 59.136719 27.75 59.136719 L 52.34375 59.136719 C 52.378906 59.136719 52.410156 59.136719 52.445312 59.136719 " fill-opacity="1" fill-rule="nonzero"/><path fill="#fcd152" d="M 20.316406 7.726562 L 17.957031 7.726562 C 17.953125 7.726562 17.949219 7.726562 17.945312 7.730469 C 17.871094 7.742188 17.796875 7.742188 17.726562 7.726562 L 3.246094 7.738281 C 3.226562 7.933594 3.21875 8.128906 3.21875 8.324219 L 3.21875 8.484375 C 3.21875 8.902344 3.5625 9.242188 3.980469 9.242188 L 20.316406 9.242188 C 20.734375 9.242188 21.078125 8.902344 21.078125 8.484375 C 21.078125 8.066406 20.734375 7.726562 20.316406 7.726562 " fill-opacity="1" fill-rule="nonzero"/><path fill="#f3615c" d="M 52.445312 64.734375 L 52.445312 72.1875 C 52.445312 72.574219 52.363281 72.945312 52.222656 73.28125 C 51.9375 73.957031 51.398438 74.496094 50.722656 74.777344 C 50.386719 74.921875 50.015625 75 49.628906 75 L 26.238281 75 C 26.234375 75 26.234375 75 26.234375 74.996094 L 26.234375 66.164062 C 26.234375 65.375 26.875 64.734375 27.667969 64.734375 L 52.445312 64.734375 " fill-opacity="1" fill-rule="nonzero"/><path fill="#f3615c" d="M 61.5625 59.222656 C 61.5625 59.207031 61.5625 59.191406 61.5625 59.171875 L 61.5625 55.0625 L 55.601562 55.0625 L 55.601562 71.984375 C 55.601562 72.816406 56.28125 73.496094 57.117188 73.496094 L 67.410156 73.496094 L 67.410156 65.523438 C 64.183594 65.199219 61.640625 62.511719 61.5625 59.222656 " fill-opacity="1" fill-rule="nonzero"/><path fill="#fcd152" d="M 37.738281 37.691406 L 37.078125 36.40625 L 36.457031 37.710938 C 36.289062 38.066406 35.957031 38.3125 35.570312 38.375 L 34.140625 38.605469 L 35.191406 39.597656 C 35.476562 39.867188 35.613281 40.257812 35.550781 40.648438 L 35.328125 42.074219 L 36.597656 41.382812 C 36.945312 41.195312 37.359375 41.191406 37.707031 41.367188 L 39 42.019531 L 38.734375 40.597656 C 38.660156 40.214844 38.785156 39.816406 39.058594 39.539062 L 40.082031 38.515625 L 38.644531 38.328125 C 38.257812 38.277344 37.917969 38.039062 37.738281 37.691406 " fill-opacity="1" fill-rule="nonzero"/><path fill="#ffffff" d="M 41.15625 39.277344 L 40.019531 40.417969 L 40.316406 41.996094 C 40.402344 42.445312 40.226562 42.890625 39.859375 43.164062 C 39.496094 43.441406 39.015625 43.484375 38.605469 43.277344 L 37.171875 42.550781 L 35.757812 43.320312 C 35.578125 43.417969 35.382812 43.464844 35.1875 43.464844 C 34.949219 43.464844 34.710938 43.390625 34.503906 43.246094 C 34.128906 42.984375 33.941406 42.539062 34.011719 42.089844 L 34.257812 40.503906 L 33.089844 39.398438 C 32.757812 39.085938 32.632812 38.621094 32.769531 38.183594 C 32.90625 37.746094 33.269531 37.429688 33.71875 37.359375 L 35.308594 37.101562 L 36 35.652344 C 36.195312 35.238281 36.601562 34.980469 37.054688 34.972656 C 37.511719 34.964844 37.929688 35.214844 38.136719 35.621094 L 38.871094 37.050781 L 40.464844 37.257812 C 40.917969 37.316406 41.292969 37.621094 41.4375 38.054688 C 41.585938 38.484375 41.476562 38.953125 41.15625 39.277344 Z M 42.789062 37.367188 C 42.492188 37.367188 42.234375 37.167969 42.160156 36.882812 C 41.574219 34.605469 39.519531 33.015625 37.164062 33.015625 C 34.808594 33.015625 32.75 34.605469 32.164062 36.882812 C 32.09375 37.167969 31.832031 37.367188 31.535156 37.367188 L 25.667969 37.367188 L 26.378906 41.78125 L 31.535156 41.78125 C 31.832031 41.78125 32.09375 41.980469 32.164062 42.269531 C 32.75 44.546875 34.808594 46.136719 37.164062 46.136719 C 37.867188 46.136719 38.550781 45.996094 39.191406 45.722656 C 39.519531 45.582031 39.902344 45.734375 40.042969 46.0625 C 40.046875 46.066406 40.046875 46.066406 40.046875 46.070312 C 41.007812 45.527344 42.433594 44.429688 42.761719 42.578125 L 43.753906 42.578125 C 44.609375 41.089844 46.199219 40.078125 48.027344 40.027344 L 48.503906 37.367188 L 42.789062 37.367188 " fill-opacity="1" fill-rule="nonzero"/><path fill="#fddcc0" d="M 44.386719 45.089844 C 44.386719 45.746094 44.917969 46.28125 45.578125 46.28125 L 50.875 46.28125 L 50.875 41.324219 L 48.15625 41.324219 C 46.078125 41.324219 44.386719 43.015625 44.386719 45.089844 " fill-opacity="1" fill-rule="nonzero"/><path fill="#fcd152" d="M 46.675781 47.578125 L 46.261719 49.894531 C 46.132812 50.625 45.496094 51.160156 44.75 51.160156 L 29.199219 51.160156 C 28.441406 51.160156 27.800781 50.613281 27.679688 49.867188 L 26.589844 43.078125 L 31.054688 43.078125 C 31.941406 45.664062 34.382812 47.433594 37.164062 47.433594 C 38.042969 47.433594 38.898438 47.257812 39.703125 46.914062 C 40.027344 46.777344 40.179688 46.402344 40.046875 46.078125 C 40.046875 46.074219 40.046875 46.070312 40.046875 46.070312 C 41.007812 45.527344 42.433594 44.429688 42.761719 42.578125 L 43.753906 42.578125 C 43.394531 43.203125 43.167969 43.910156 43.105469 44.667969 C 43.09375 44.808594 43.085938 44.949219 43.085938 45.089844 C 43.085938 46.460938 44.203125 47.578125 45.574219 47.578125 L 46.675781 47.578125 " fill-opacity="1" fill-rule="nonzero"/><path fill="#fcd152" d="M 19.324219 33.722656 L 19.324219 50.015625 L 15.628906 50.015625 L 12.402344 42.957031 L 12.152344 32.933594 C 12.144531 32.578125 11.847656 32.289062 11.488281 32.304688 C 11.128906 32.3125 10.84375 32.609375 10.855469 32.96875 L 11.105469 43.121094 C 11.109375 43.207031 11.128906 43.296875 11.164062 43.375 L 13.769531 49.078125 L 10.539062 50.710938 L 9.378906 51.296875 L 9.339844 51.316406 L 6.859375 45.890625 C 6.003906 44.015625 5.527344 42.015625 5.449219 39.957031 C 5.441406 39.636719 5.195312 36.402344 5.03125 34.492188 C 5.003906 34.1875 4.769531 33.953125 4.480469 33.90625 C 5.511719 31.132812 8.191406 29.148438 11.324219 29.148438 L 14.746094 29.148438 C 16.0625 29.148438 17.296875 29.5 18.363281 30.109375 C 18.976562 31.175781 19.324219 32.40625 19.324219 33.722656 " fill-opacity="1" fill-rule="nonzero"/><path fill="#fcd152" d="M 73.617188 33.578125 L 73.617188 49.871094 L 55.601562 49.871094 L 55.601562 47.578125 L 58.933594 47.578125 C 61.339844 47.578125 63.679688 46.585938 65.351562 44.859375 L 72.042969 37.957031 C 72.289062 37.699219 72.285156 37.289062 72.027344 37.039062 C 71.769531 36.789062 71.355469 36.796875 71.109375 37.054688 L 64.421875 43.957031 C 62.988281 45.433594 60.992188 46.28125 58.933594 46.28125 L 52.175781 46.28125 L 52.175781 41.324219 L 54.65625 41.324219 C 54.742188 41.371094 54.84375 41.398438 54.949219 41.398438 C 55.058594 41.398438 55.160156 41.371094 55.25 41.324219 L 59.335938 41.324219 C 59.546875 41.324219 59.742188 41.222656 59.863281 41.054688 L 66.121094 32.367188 C 66.328125 32.078125 66.261719 31.671875 65.972656 31.460938 C 65.679688 31.253906 65.273438 31.320312 65.0625 31.609375 L 59.003906 40.027344 L 58.316406 40.027344 L 58.316406 36.292969 C 58.316406 32.273438 61.589844 29.003906 65.613281 29.003906 L 69.035156 29.003906 C 70.351562 29.003906 71.585938 29.355469 72.65625 29.964844 C 73.265625 31.03125 73.617188 32.265625 73.617188 33.578125 " fill-opacity="1" fill-rule="nonzero"/><path fill="#ffffff" d="M 51.144531 62.019531 L 51.144531 64.734375 L 27.667969 64.734375 C 26.875 64.734375 26.234375 65.375 26.234375 66.164062 L 26.234375 73.703125 L 25.035156 73.703125 C 24.199219 73.703125 23.519531 73.023438 23.519531 72.1875 L 23.519531 62.019531 L 51.144531 62.019531 " fill-opacity="1" fill-rule="nonzero"/><path fill="#ffffff" d="M 51.144531 58.34375 L 51.144531 59.136719 L 27.75 59.136719 C 26.914062 59.136719 26.234375 59.8125 26.234375 60.648438 L 26.234375 60.722656 L 23.519531 60.722656 L 23.519531 58.34375 C 23.519531 57.507812 24.199219 56.828125 25.035156 56.828125 L 49.628906 56.828125 C 50.464844 56.828125 51.144531 57.507812 51.144531 58.34375 " fill-opacity="1" fill-rule="nonzero"/><path fill="#ffffff" d="M 18.363281 30.109375 C 17.296875 29.5 16.0625 29.148438 14.746094 29.148438 L 11.324219 29.148438 C 8.191406 29.148438 5.511719 31.132812 4.480469 33.910156 C 4.433594 33.898438 4.378906 33.898438 4.328125 33.902344 C 3.96875 33.933594 3.707031 34.246094 3.734375 34.605469 C 3.828125 35.683594 3.941406 37.125 4.027344 38.25 L 4.027344 50.015625 L 1.3125 50.015625 L 1.3125 33.722656 C 1.3125 29.703125 4.585938 26.4375 8.605469 26.4375 L 12.03125 26.4375 C 14.738281 26.4375 17.105469 27.917969 18.363281 30.109375 " fill-opacity="1" fill-rule="nonzero"/><path fill="#ffffff" d="M 72.65625 29.964844 C 71.585938 29.355469 70.351562 29.003906 69.035156 29.003906 L 65.613281 29.003906 C 61.589844 29.003906 58.316406 32.273438 58.316406 36.292969 L 58.316406 40.027344 L 55.601562 40.027344 L 55.601562 33.578125 C 55.601562 29.558594 58.875 26.292969 62.898438 26.292969 L 66.320312 26.292969 C 69.027344 26.292969 71.394531 27.773438 72.65625 29.964844 " fill-opacity="1" fill-rule="nonzero"/><path fill="#46256a" d="M 51.144531 72.1875 C 51.144531 73.023438 50.464844 73.703125 49.628906 73.703125 L 25.035156 73.703125 C 24.199219 73.703125 23.519531 73.023438 23.519531 72.1875 L 23.519531 62.019531 L 51.144531 62.019531 Z M 23.519531 58.34375 C 23.519531 57.507812 24.199219 56.832031 25.035156 56.832031 L 49.628906 56.832031 C 50.464844 56.832031 51.144531 57.507812 51.144531 58.34375 L 51.144531 60.722656 L 23.519531 60.722656 Z M 49.628906 55.53125 L 25.035156 55.53125 C 23.480469 55.53125 22.21875 56.792969 22.21875 58.34375 L 22.21875 72.1875 C 22.21875 73.738281 23.480469 75 25.035156 75 L 49.628906 75 C 50.015625 75 50.386719 74.921875 50.722656 74.777344 C 51.398438 74.492188 51.9375 73.953125 52.222656 73.28125 C 52.363281 72.945312 52.445312 72.574219 52.445312 72.1875 L 52.445312 58.34375 C 52.445312 56.792969 51.179688 55.53125 49.628906 55.53125 " fill-opacity="1" fill-rule="nonzero"/><path fill="#46256a" d="M 20.316406 9.242188 L 3.980469 9.242188 C 3.5625 9.242188 3.21875 8.902344 3.21875 8.484375 L 3.21875 8.324219 C 3.21875 8.128906 3.226562 7.933594 3.246094 7.738281 L 17.726562 7.726562 C 17.796875 7.738281 17.871094 7.742188 17.945312 7.730469 C 17.949219 7.726562 17.953125 7.726562 17.957031 7.726562 L 20.316406 7.726562 C 20.734375 7.726562 21.078125 8.066406 21.078125 8.484375 C 21.078125 8.902344 20.734375 9.242188 20.316406 9.242188 Z M 16.070312 16.902344 C 16.070312 19.964844 13.578125 22.457031 10.507812 22.457031 C 7.78125 22.457031 5.449219 20.414062 5.019531 17.78125 L 5.535156 17.78125 C 5.894531 17.78125 6.1875 17.488281 6.1875 17.128906 C 6.1875 16.773438 5.894531 16.480469 5.535156 16.480469 L 4.464844 16.480469 C 3.589844 16.480469 2.875 15.769531 2.875 14.894531 C 2.875 14.015625 3.589844 13.304688 4.464844 13.304688 L 5.734375 13.304688 C 6.09375 13.304688 6.382812 13.011719 6.382812 12.65625 C 6.382812 12.296875 6.09375 12.007812 5.734375 12.007812 L 4.933594 12.007812 L 4.902344 10.539062 L 16.070312 10.539062 Z M 10.253906 1.296875 C 13.402344 1.296875 16.183594 3.457031 17.03125 6.429688 L 3.480469 6.441406 C 4.320312 3.460938 7.101562 1.296875 10.253906 1.296875 Z M 20.316406 6.425781 L 18.371094 6.429688 C 17.96875 4.722656 17.023438 3.171875 15.675781 2.011719 C 14.164062 0.714844 12.238281 0 10.253906 0 C 6.199219 0 2.660156 3.015625 2.023438 7.019531 C 1.957031 7.449219 1.921875 7.886719 1.921875 8.324219 L 1.921875 8.484375 C 1.921875 9.488281 2.644531 10.324219 3.601562 10.503906 L 3.636719 12.128906 C 2.445312 12.484375 1.574219 13.589844 1.574219 14.894531 C 1.574219 16.21875 2.472656 17.335938 3.691406 17.671875 C 3.871094 19.246094 4.585938 20.707031 5.746094 21.824219 C 7.035156 23.070312 8.726562 23.753906 10.507812 23.753906 C 14.292969 23.753906 17.371094 20.679688 17.371094 16.902344 L 17.371094 10.539062 L 20.316406 10.539062 C 21.453125 10.539062 22.375 9.617188 22.375 8.484375 C 22.375 7.351562 21.453125 6.425781 20.316406 6.425781 " fill-opacity="1" fill-rule="nonzero"/><path fill="#46256a" d="M 4.328125 33.902344 C 3.96875 33.933594 3.707031 34.246094 3.734375 34.605469 C 3.828125 35.683594 3.941406 37.125 4.027344 38.25 L 4.027344 36.433594 C 4.027344 35.546875 4.1875 34.695312 4.480469 33.910156 C 4.433594 33.898438 4.378906 33.898438 4.328125 33.902344 Z M 4.328125 33.902344 C 3.96875 33.933594 3.707031 34.246094 3.734375 34.605469 C 3.828125 35.683594 3.941406 37.125 4.027344 38.25 L 4.027344 36.433594 C 4.027344 35.546875 4.1875 34.695312 4.480469 33.910156 C 4.433594 33.898438 4.378906 33.898438 4.328125 33.902344 Z M 19.324219 53.910156 L 17.304688 53.910156 C 17.230469 53.601562 17.125 53.292969 16.988281 52.992188 L 16.449219 51.808594 L 16.222656 51.3125 L 19.324219 51.3125 Z M 19.324219 72.125 C 19.324219 72.960938 18.644531 73.640625 17.808594 73.640625 L 7.667969 73.640625 L 7.667969 65.667969 C 10.710938 65.363281 13.140625 62.957031 13.476562 59.925781 C 13.8125 59.925781 14.152344 59.851562 14.480469 59.703125 C 16.304688 58.871094 17.398438 57.085938 17.445312 55.207031 L 19.324219 55.207031 Z M 7.019531 53.691406 C 6.828125 53.691406 6.65625 53.777344 6.539062 53.910156 L 1.3125 53.910156 L 1.3125 51.3125 L 7.910156 51.3125 L 8.363281 52.308594 C 8.375 52.375 8.390625 52.441406 8.421875 52.507812 C 8.449219 52.558594 8.480469 52.601562 8.515625 52.640625 L 8.554688 52.726562 L 9.09375 53.910156 L 7.5 53.910156 C 7.378906 53.777344 7.210938 53.691406 7.019531 53.691406 Z M 6.367188 73.640625 L 2.828125 73.640625 C 1.992188 73.640625 1.3125 72.960938 1.3125 72.125 L 1.3125 55.207031 L 6.367188 55.207031 Z M 12.199219 59.589844 C 12.132812 60.515625 11.820312 61.375 11.328125 62.105469 C 11.246094 62.226562 11.160156 62.34375 11.066406 62.457031 C 10.929688 62.628906 10.78125 62.789062 10.625 62.941406 C 9.835938 63.703125 8.808594 64.214844 7.667969 64.359375 L 7.667969 55.207031 L 9.6875 55.207031 L 11.179688 58.472656 C 11.402344 58.960938 11.765625 59.34375 12.199219 59.589844 Z M 15.808594 53.53125 C 15.878906 53.6875 15.9375 53.847656 15.988281 54.011719 C 16.007812 54.074219 16.023438 54.140625 16.039062 54.207031 C 16.054688 54.273438 16.070312 54.335938 16.082031 54.402344 C 16.09375 54.46875 16.105469 54.53125 16.113281 54.597656 C 16.160156 54.949219 16.15625 55.300781 16.105469 55.644531 C 16.09375 55.714844 16.082031 55.785156 16.066406 55.859375 C 15.984375 56.257812 15.835938 56.640625 15.632812 56.992188 C 15.585938 57.070312 15.539062 57.144531 15.492188 57.214844 C 15.117188 57.765625 14.589844 58.226562 13.941406 58.523438 C 13.34375 58.792969 12.636719 58.53125 12.363281 57.933594 L 9.984375 52.726562 L 9.878906 52.5 L 9.917969 52.480469 L 11.078125 51.890625 L 14.308594 50.257812 L 15.289062 52.394531 Z M 1.3125 33.722656 C 1.3125 29.703125 4.585938 26.4375 8.605469 26.4375 L 12.03125 26.4375 C 14.738281 26.4375 17.105469 27.917969 18.363281 30.109375 C 18.976562 31.175781 19.324219 32.40625 19.324219 33.722656 L 19.324219 50.015625 L 15.628906 50.015625 L 12.402344 42.957031 L 12.152344 32.933594 C 12.144531 32.578125 11.847656 32.289062 11.488281 32.304688 C 11.128906 32.3125 10.84375 32.609375 10.855469 32.96875 L 11.105469 43.121094 C 11.105469 43.207031 11.128906 43.296875 11.164062 43.375 L 13.769531 49.078125 L 10.539062 50.710938 L 9.378906 51.296875 L 9.339844 51.316406 L 6.859375 45.890625 C 6.003906 44.015625 5.527344 42.015625 5.449219 39.957031 C 5.441406 39.636719 5.195312 36.402344 5.03125 34.496094 C 5.003906 34.1875 4.769531 33.953125 4.480469 33.910156 C 4.433594 33.898438 4.378906 33.898438 4.328125 33.902344 C 3.96875 33.933594 3.707031 34.246094 3.734375 34.605469 C 3.828125 35.683594 3.941406 37.125 4.027344 38.25 C 4.097656 39.171875 4.148438 39.882812 4.152344 40.003906 C 4.234375 42.238281 4.75 44.398438 5.675781 46.429688 L 7.316406 50.015625 L 1.3125 50.015625 Z M 20.421875 31.863281 C 19.570312 28.019531 16.128906 25.136719 12.03125 25.136719 L 8.605469 25.136719 C 3.867188 25.136719 0.0117188 28.988281 0.0117188 33.722656 L 0.0117188 72.125 C 0.0117188 73.675781 1.273438 74.9375 2.828125 74.9375 L 6.746094 74.9375 C 6.832031 74.976562 6.921875 75 7.019531 75 C 7.113281 75 7.207031 74.976562 7.289062 74.9375 L 17.808594 74.9375 C 19.363281 74.9375 20.625 73.675781 20.625 72.125 L 20.625 33.722656 C 20.625 33.082031 20.554688 32.460938 20.421875 31.863281 Z M 4.328125 33.902344 C 3.96875 33.933594 3.707031 34.246094 3.734375 34.605469 C 3.828125 35.683594 3.941406 37.125 4.027344 38.25 L 4.027344 36.433594 C 4.027344 35.546875 4.1875 34.695312 4.480469 33.910156 C 4.433594 33.898438 4.378906 33.898438 4.328125 33.902344 Z M 4.328125 33.902344 C 3.96875 33.933594 3.707031 34.246094 3.734375 34.605469 C 3.828125 35.683594 3.941406 37.125 4.027344 38.25 L 4.027344 36.433594 C 4.027344 35.546875 4.1875 34.695312 4.480469 33.910156 C 4.433594 33.898438 4.378906 33.898438 4.328125 33.902344 Z M 4.328125 33.902344 C 3.96875 33.933594 3.707031 34.246094 3.734375 34.605469 C 3.828125 35.683594 3.941406 37.125 4.027344 38.25 L 4.027344 36.433594 C 4.027344 35.546875 4.1875 34.695312 4.480469 33.910156 C 4.433594 33.898438 4.378906 33.898438 4.328125 33.902344 " fill-opacity="1" fill-rule="nonzero"/><path fill="#46256a" d="M 70.828125 16.609375 L 69.757812 16.609375 C 69.398438 16.609375 69.109375 16.902344 69.109375 17.261719 C 69.109375 17.617188 69.398438 17.910156 69.757812 17.910156 L 70.175781 17.910156 C 69.714844 20.5 67.425781 22.457031 64.738281 22.457031 L 64.628906 22.457031 C 61.582031 22.457031 59.105469 19.980469 59.105469 16.941406 L 59.105469 10.777344 C 59.105469 10.425781 59.136719 10.082031 59.203125 9.746094 C 60.710938 11.347656 62.71875 12.410156 64.90625 12.753906 L 69.464844 13.425781 C 69.496094 13.429688 69.527344 13.433594 69.5625 13.433594 L 70.828125 13.433594 C 71.707031 13.433594 72.421875 14.144531 72.421875 15.023438 C 72.421875 15.898438 71.707031 16.609375 70.828125 16.609375 Z M 57.832031 3.601562 L 66.074219 3.601562 C 69.160156 3.601562 71.667969 6.109375 71.667969 9.191406 L 71.667969 12.261719 C 71.402344 12.179688 71.121094 12.136719 70.828125 12.136719 L 69.609375 12.136719 L 65.101562 11.46875 C 61.089844 10.84375 58.125 7.585938 57.832031 3.601562 Z M 66.074219 2.304688 L 57.15625 2.304688 C 56.796875 2.304688 56.507812 2.59375 56.507812 2.953125 C 56.507812 4.933594 57.105469 6.859375 58.203125 8.488281 C 57.941406 9.222656 57.808594 9.988281 57.808594 10.777344 L 57.808594 16.941406 C 57.808594 20.699219 60.867188 23.753906 64.628906 23.753906 L 64.738281 23.753906 C 68.160156 23.753906 71.0625 21.179688 71.5 17.828125 C 72.773438 17.527344 73.71875 16.382812 73.71875 15.023438 C 73.71875 14.277344 73.433594 13.59375 72.96875 13.082031 L 72.96875 9.191406 C 72.96875 5.394531 69.875 2.304688 66.074219 2.304688 " fill-opacity="1" fill-rule="nonzero"/><g clip-path="url(#6e1c9ee604)"><path fill="#46256a" d="M 73.617188 53.765625 L 68.539062 53.765625 C 68.523438 53.746094 68.507812 53.734375 68.492188 53.71875 C 68.460938 53.6875 68.425781 53.660156 68.386719 53.636719 C 68.289062 53.582031 68.179688 53.546875 68.058594 53.546875 C 67.9375 53.546875 67.828125 53.582031 67.730469 53.636719 C 67.695312 53.660156 67.65625 53.6875 67.625 53.71875 C 67.609375 53.734375 67.59375 53.746094 67.578125 53.765625 L 55.601562 53.765625 L 55.601562 51.167969 L 73.617188 51.167969 Z M 73.617188 71.984375 C 73.617188 72.320312 73.503906 72.636719 73.316406 72.886719 C 73.269531 72.945312 73.222656 73 73.171875 73.054688 C 72.898438 73.328125 72.519531 73.496094 72.101562 73.496094 L 68.710938 73.496094 L 68.710938 55.0625 L 73.617188 55.0625 Z M 67.40625 64.214844 C 64.847656 63.894531 62.859375 61.707031 62.859375 59.066406 L 62.859375 55.0625 L 67.40625 55.0625 Z M 67.40625 73.496094 L 57.117188 73.496094 C 56.28125 73.496094 55.601562 72.816406 55.601562 71.984375 L 55.601562 55.0625 L 61.5625 55.0625 L 61.5625 59.171875 C 61.5625 59.1875 61.5625 59.207031 61.5625 59.222656 C 61.640625 62.507812 64.179688 65.199219 67.40625 65.523438 Z M 52.175781 46.28125 L 52.175781 41.324219 L 54.65625 41.324219 C 54.742188 41.371094 54.84375 41.398438 54.949219 41.398438 C 55.058594 41.398438 55.160156 41.371094 55.25 41.324219 L 59.335938 41.324219 C 59.546875 41.324219 59.742188 41.222656 59.863281 41.054688 L 66.121094 32.367188 C 66.328125 32.078125 66.261719 31.671875 65.972656 31.460938 C 65.679688 31.253906 65.273438 31.320312 65.0625 31.609375 L 59.003906 40.027344 L 55.601562 40.027344 L 55.601562 33.578125 C 55.601562 29.558594 58.875 26.292969 62.898438 26.292969 L 66.320312 26.292969 C 69.027344 26.292969 71.394531 27.773438 72.65625 29.964844 C 73.265625 31.03125 73.617188 32.265625 73.617188 33.578125 L 73.617188 49.871094 L 55.601562 49.871094 L 55.601562 47.578125 L 58.933594 47.578125 C 61.339844 47.578125 63.679688 46.585938 65.351562 44.859375 L 72.042969 37.957031 C 72.292969 37.699219 72.285156 37.289062 72.027344 37.039062 C 71.769531 36.789062 71.355469 36.796875 71.109375 37.054688 L 64.421875 43.957031 C 62.988281 45.433594 60.992188 46.28125 58.933594 46.28125 Z M 50.875 46.28125 L 45.578125 46.28125 C 44.917969 46.28125 44.386719 45.746094 44.386719 45.089844 C 44.386719 45.03125 44.386719 44.96875 44.390625 44.90625 C 44.390625 44.898438 44.390625 44.890625 44.390625 44.882812 C 44.390625 44.835938 44.398438 44.785156 44.402344 44.738281 C 44.402344 44.738281 44.402344 44.734375 44.402344 44.730469 C 44.40625 44.710938 44.40625 44.6875 44.410156 44.667969 C 44.414062 44.628906 44.417969 44.59375 44.421875 44.558594 C 44.425781 44.542969 44.425781 44.527344 44.429688 44.511719 C 44.4375 44.460938 44.445312 44.414062 44.457031 44.363281 C 44.457031 44.359375 44.457031 44.359375 44.457031 44.359375 C 44.460938 44.335938 44.464844 44.316406 44.472656 44.292969 C 44.484375 44.234375 44.496094 44.179688 44.511719 44.121094 C 44.523438 44.082031 44.535156 44.042969 44.546875 44 C 44.546875 43.992188 44.550781 43.984375 44.554688 43.972656 C 44.554688 43.972656 44.554688 43.96875 44.558594 43.96875 C 44.574219 43.910156 44.59375 43.855469 44.617188 43.796875 C 44.632812 43.75 44.648438 43.707031 44.667969 43.660156 C 44.695312 43.59375 44.726562 43.527344 44.757812 43.457031 C 44.777344 43.414062 44.800781 43.371094 44.824219 43.332031 C 44.828125 43.320312 44.835938 43.308594 44.839844 43.300781 C 44.847656 43.285156 44.855469 43.269531 44.863281 43.253906 C 44.875 43.242188 44.882812 43.226562 44.890625 43.210938 C 44.910156 43.171875 44.933594 43.136719 44.957031 43.097656 C 44.976562 43.070312 44.992188 43.042969 45.011719 43.015625 C 45.023438 42.992188 45.035156 42.976562 45.050781 42.960938 C 45.070312 42.925781 45.09375 42.894531 45.117188 42.863281 C 45.136719 42.839844 45.15625 42.8125 45.175781 42.789062 C 45.195312 42.757812 45.21875 42.730469 45.242188 42.703125 C 45.253906 42.6875 45.265625 42.671875 45.28125 42.65625 C 45.300781 42.628906 45.324219 42.605469 45.347656 42.578125 C 45.347656 42.578125 45.351562 42.574219 45.351562 42.574219 C 45.355469 42.570312 45.359375 42.5625 45.367188 42.558594 C 45.394531 42.527344 45.425781 42.496094 45.457031 42.464844 L 45.492188 42.429688 C 45.578125 42.34375 45.667969 42.261719 45.757812 42.183594 C 45.804688 42.148438 45.851562 42.109375 45.902344 42.074219 C 45.933594 42.046875 45.972656 42.023438 46.007812 41.996094 C 46.011719 41.996094 46.015625 41.992188 46.019531 41.988281 C 46.027344 41.980469 46.039062 41.976562 46.050781 41.96875 C 46.050781 41.964844 46.054688 41.964844 46.058594 41.960938 C 46.09375 41.9375 46.132812 41.914062 46.171875 41.890625 C 46.183594 41.882812 46.199219 41.871094 46.210938 41.863281 C 46.25 41.839844 46.289062 41.816406 46.332031 41.796875 C 46.34375 41.789062 46.359375 41.78125 46.375 41.773438 C 46.410156 41.75 46.449219 41.730469 46.488281 41.714844 C 46.507812 41.703125 46.527344 41.691406 46.546875 41.683594 C 46.558594 41.679688 46.566406 41.675781 46.578125 41.671875 C 46.613281 41.65625 46.648438 41.636719 46.683594 41.621094 C 46.683594 41.621094 46.683594 41.621094 46.6875 41.621094 C 46.6875 41.621094 46.6875 41.621094 46.691406 41.621094 C 46.707031 41.613281 46.71875 41.605469 46.734375 41.601562 C 46.777344 41.585938 46.816406 41.566406 46.863281 41.554688 C 46.863281 41.550781 46.867188 41.550781 46.867188 41.550781 C 46.921875 41.53125 46.980469 41.511719 47.035156 41.492188 C 47.089844 41.476562 47.136719 41.464844 47.191406 41.449219 C 47.195312 41.449219 47.199219 41.449219 47.203125 41.445312 C 47.214844 41.441406 47.230469 41.4375 47.246094 41.433594 C 47.296875 41.421875 47.34375 41.410156 47.398438 41.398438 C 47.460938 41.386719 47.527344 41.375 47.59375 41.367188 L 47.601562 41.367188 C 47.644531 41.359375 47.6875 41.351562 47.730469 41.347656 C 47.742188 41.347656 47.753906 41.34375 47.765625 41.34375 C 47.773438 41.34375 47.777344 41.34375 47.785156 41.339844 C 47.84375 41.335938 47.902344 41.332031 47.960938 41.328125 L 47.964844 41.328125 C 48.027344 41.324219 48.089844 41.324219 48.15625 41.324219 L 50.875 41.324219 Z M 46.265625 49.894531 C 46.132812 50.625 45.496094 51.160156 44.75 51.160156 L 29.199219 51.160156 C 28.4375 51.160156 27.800781 50.613281 27.679688 49.867188 L 26.589844 43.078125 L 31.054688 43.078125 C 31.941406 45.664062 34.382812 47.433594 37.164062 47.433594 C 38.042969 47.433594 38.898438 47.257812 39.703125 46.914062 C 40.027344 46.777344 40.179688 46.402344 40.050781 46.078125 C 40.050781 46.074219 40.046875 46.074219 40.046875 46.070312 C 40.046875 46.066406 40.046875 46.066406 40.042969 46.0625 C 39.902344 45.734375 39.519531 45.582031 39.191406 45.722656 C 38.550781 45.996094 37.867188 46.136719 37.164062 46.136719 C 34.804688 46.136719 32.75 44.546875 32.164062 42.269531 C 32.09375 41.980469 31.832031 41.78125 31.539062 41.78125 L 26.378906 41.78125 L 25.667969 37.367188 L 31.539062 37.367188 C 31.832031 37.367188 32.09375 37.167969 32.164062 36.882812 C 32.75 34.605469 34.804688 33.015625 37.164062 33.015625 C 39.519531 33.015625 41.574219 34.605469 42.160156 36.882812 C 42.234375 37.167969 42.492188 37.367188 42.789062 37.367188 L 48.503906 37.367188 L 48.027344 40.027344 C 46.199219 40.074219 44.609375 41.089844 43.753906 42.578125 C 43.394531 43.203125 43.164062 43.910156 43.105469 44.667969 C 43.09375 44.808594 43.085938 44.945312 43.085938 45.089844 C 43.085938 46.460938 44.203125 47.578125 45.578125 47.578125 L 46.675781 47.578125 Z M 24.285156 28.757812 C 24.277344 28.722656 24.273438 28.683594 24.273438 28.652344 C 24.273438 28.628906 24.277344 28.605469 24.277344 28.582031 C 24.28125 28.550781 24.289062 28.519531 24.296875 28.492188 C 24.320312 28.394531 24.367188 28.304688 24.433594 28.222656 C 24.449219 28.207031 24.464844 28.1875 24.484375 28.171875 C 24.5 28.152344 24.519531 28.136719 24.539062 28.125 C 24.652344 28.039062 24.789062 27.992188 24.9375 27.992188 L 49.390625 27.992188 C 49.585938 27.992188 49.769531 28.074219 49.894531 28.226562 C 49.925781 28.261719 49.953125 28.300781 49.972656 28.339844 C 49.988281 28.367188 50.003906 28.398438 50.011719 28.425781 C 50.027344 28.464844 50.035156 28.5 50.042969 28.535156 C 50.054688 28.613281 50.054688 28.691406 50.042969 28.769531 L 48.734375 36.070312 L 43.273438 36.070312 C 42.941406 35.101562 42.390625 34.246094 41.683594 33.554688 C 41.507812 33.382812 41.320312 33.222656 41.125 33.074219 C 41.125 33.070312 41.125 33.070312 41.125 33.070312 C 40.867188 32.871094 40.589844 32.691406 40.304688 32.53125 C 40.300781 32.53125 40.300781 32.53125 40.300781 32.527344 C 40.15625 32.449219 40.011719 32.375 39.863281 32.304688 C 39.785156 32.273438 39.710938 32.238281 39.632812 32.207031 C 39.480469 32.144531 39.324219 32.085938 39.167969 32.035156 C 38.53125 31.828125 37.859375 31.71875 37.164062 31.71875 C 35.425781 31.71875 33.820312 32.410156 32.644531 33.554688 C 31.9375 34.246094 31.386719 35.101562 31.054688 36.070312 L 25.460938 36.070312 Z M 27.121094 25.097656 C 27.121094 24.371094 27.710938 23.78125 28.4375 23.78125 L 28.96875 23.78125 C 29.214844 23.78125 29.4375 23.640625 29.546875 23.421875 C 29.625 23.265625 29.636719 23.089844 29.585938 22.929688 C 29.566406 22.863281 29.53125 22.800781 29.492188 22.746094 C 29.460938 22.703125 29.429688 22.652344 29.402344 22.585938 C 29.378906 22.523438 29.363281 22.445312 29.363281 22.359375 C 29.363281 22.179688 29.433594 22.015625 29.554688 21.894531 C 29.671875 21.777344 29.835938 21.703125 30.015625 21.703125 L 34.003906 21.703125 C 34.003906 21.707031 34.007812 21.707031 34.011719 21.710938 C 34.199219 21.796875 34.402344 21.785156 34.574219 21.703125 L 36.261719 21.703125 C 36.625 21.703125 36.917969 22 36.917969 22.359375 C 36.917969 22.53125 36.847656 22.664062 36.789062 22.746094 C 36.660156 22.921875 36.628906 23.152344 36.703125 23.351562 C 36.710938 23.375 36.722656 23.398438 36.734375 23.421875 C 36.738281 23.429688 36.742188 23.4375 36.746094 23.445312 C 36.757812 23.464844 36.765625 23.480469 36.78125 23.5 C 36.796875 23.523438 36.816406 23.546875 36.835938 23.570312 C 36.855469 23.59375 36.878906 23.613281 36.902344 23.632812 C 36.925781 23.648438 36.949219 23.667969 36.972656 23.683594 C 37.070312 23.746094 37.191406 23.78125 37.3125 23.78125 L 37.84375 23.78125 C 38.207031 23.78125 38.535156 23.925781 38.773438 24.164062 C 38.804688 24.195312 38.832031 24.226562 38.859375 24.257812 C 38.925781 24.339844 38.984375 24.429688 39.03125 24.523438 C 39.050781 24.5625 39.066406 24.601562 39.082031 24.644531 C 39.132812 24.785156 39.160156 24.9375 39.160156 25.097656 L 39.160156 26.691406 L 27.121094 26.691406 Z M 37.25 18.730469 L 42.859375 15.152344 C 43.265625 14.894531 43.78125 14.871094 44.207031 15.089844 L 46.183594 16.113281 C 46.3125 16.183594 46.433594 16.273438 46.535156 16.378906 C 46.5625 16.414062 46.59375 16.445312 46.621094 16.484375 C 46.667969 16.539062 46.707031 16.597656 46.742188 16.660156 C 46.769531 16.710938 46.792969 16.761719 46.8125 16.816406 C 46.867188 16.953125 46.898438 17.097656 46.90625 17.246094 L 47.203125 23.890625 C 47.246094 24.875 47.082031 25.816406 46.710938 26.691406 L 40.460938 26.691406 L 40.460938 25.097656 C 40.460938 23.78125 39.484375 22.6875 38.210938 22.507812 C 38.21875 22.460938 38.21875 22.410156 38.21875 22.359375 C 38.21875 22.199219 38.199219 22.042969 38.160156 21.890625 C 38.160156 21.878906 38.15625 21.863281 38.152344 21.851562 C 38.136719 21.796875 38.121094 21.742188 38.101562 21.6875 C 38 21.421875 37.84375 21.179688 37.644531 20.980469 C 37.578125 20.914062 37.507812 20.851562 37.433594 20.796875 C 37.382812 20.757812 37.328125 20.722656 37.277344 20.6875 C 37.25 20.671875 37.222656 20.65625 37.195312 20.640625 C 37.136719 20.613281 37.082031 20.585938 37.023438 20.558594 C 36.789062 20.460938 36.53125 20.40625 36.261719 20.40625 L 35.46875 20.40625 C 35.945312 19.75 36.546875 19.179688 37.25 18.730469 Z M 47.195312 10.578125 C 47.222656 10.527344 47.242188 10.480469 47.25 10.429688 C 47.289062 10.265625 47.265625 10.09375 47.183594 9.953125 C 47.164062 9.914062 47.136719 9.882812 47.109375 9.847656 C 47.082031 9.816406 47.050781 9.785156 47.015625 9.761719 C 46.988281 9.742188 46.964844 9.726562 46.9375 9.710938 C 46.507812 9.46875 46.347656 8.9375 46.574219 8.5 C 46.644531 8.363281 46.746094 8.253906 46.867188 8.167969 C 47.0625 8.035156 47.308594 7.980469 47.546875 8.023438 C 47.632812 8.039062 47.722656 8.066406 47.804688 8.109375 C 47.890625 8.15625 47.972656 8.214844 48.039062 8.285156 C 48.0625 8.304688 48.082031 8.332031 48.101562 8.355469 C 48.179688 8.457031 48.238281 8.578125 48.269531 8.703125 C 48.296875 8.820312 48.355469 8.921875 48.4375 9.003906 C 48.453125 9.019531 48.46875 9.035156 48.488281 9.050781 C 48.519531 9.082031 48.5625 9.105469 48.601562 9.128906 C 48.769531 9.214844 48.964844 9.222656 49.140625 9.15625 C 49.386719 9.058594 49.660156 9.070312 49.894531 9.191406 C 50.109375 9.304688 50.269531 9.496094 50.34375 9.726562 C 50.417969 9.960938 50.394531 10.207031 50.285156 10.421875 C 50.054688 10.859375 49.527344 11.035156 49.082031 10.824219 C 48.765625 10.671875 48.386719 10.800781 48.226562 11.109375 L 46.339844 14.734375 L 45.3125 14.199219 Z M 74.917969 50.8125 C 74.960938 50.726562 74.988281 50.625 74.988281 50.519531 C 74.988281 50.414062 74.960938 50.316406 74.917969 50.226562 L 74.917969 33.578125 C 74.917969 32.941406 74.847656 32.316406 74.710938 31.71875 C 73.859375 27.875 70.421875 24.992188 66.320312 24.992188 L 62.898438 24.992188 C 58.15625 24.992188 54.300781 28.84375 54.300781 33.578125 L 54.300781 40.027344 L 51.8125 40.027344 C 51.726562 39.980469 51.628906 39.957031 51.527344 39.957031 C 51.421875 39.957031 51.328125 39.980469 51.238281 40.027344 L 49.347656 40.027344 L 51.320312 28.996094 C 51.421875 28.425781 51.265625 27.84375 50.890625 27.394531 C 50.519531 26.949219 49.972656 26.691406 49.390625 26.691406 L 48.101562 26.691406 C 48.410156 25.78125 48.546875 24.824219 48.503906 23.832031 L 48.203125 17.191406 C 48.175781 16.527344 47.890625 15.90625 47.4375 15.449219 L 49.132812 12.183594 C 50.050781 12.332031 50.988281 11.886719 51.4375 11.019531 C 51.710938 10.496094 51.761719 9.898438 51.582031 9.335938 C 51.40625 8.773438 51.019531 8.3125 50.492188 8.042969 C 50.121094 7.847656 49.703125 7.765625 49.292969 7.800781 C 49.082031 7.445312 48.777344 7.152344 48.402344 6.957031 C 47.320312 6.398438 45.984375 6.820312 45.421875 7.902344 C 44.972656 8.769531 45.144531 9.789062 45.796875 10.453125 L 44.109375 13.695312 C 43.445312 13.5625 42.746094 13.6875 42.164062 14.058594 L 36.550781 17.636719 C 35.449219 18.339844 34.546875 19.292969 33.929688 20.40625 L 30.015625 20.40625 C 28.9375 20.40625 28.0625 21.285156 28.0625 22.359375 C 28.0625 22.410156 28.0625 22.460938 28.066406 22.507812 C 26.796875 22.6875 25.820312 23.78125 25.820312 25.097656 L 25.820312 26.691406 L 24.9375 26.691406 C 24.363281 26.691406 23.820312 26.945312 23.445312 27.382812 C 23.070312 27.820312 22.910156 28.394531 23 28.964844 L 26.398438 50.074219 C 26.621094 51.453125 27.796875 52.457031 29.199219 52.457031 L 44.75 52.457031 C 46.125 52.457031 47.300781 51.476562 47.542969 50.121094 L 48 47.578125 L 51.367188 47.578125 C 51.417969 47.589844 51.472656 47.601562 51.527344 47.601562 C 51.582031 47.601562 51.632812 47.589844 51.683594 47.578125 L 54.300781 47.578125 L 54.300781 71.984375 C 54.300781 73.535156 55.5625 74.796875 57.117188 74.796875 L 67.785156 74.796875 C 67.871094 74.832031 67.960938 74.855469 68.058594 74.855469 C 68.15625 74.855469 68.246094 74.832031 68.328125 74.796875 L 72.101562 74.796875 C 73.652344 74.796875 74.917969 73.535156 74.917969 71.984375 L 74.917969 54.707031 C 74.960938 54.621094 74.988281 54.519531 74.988281 54.414062 C 74.988281 54.308594 74.960938 54.207031 74.917969 54.121094 L 74.917969 50.8125 " fill-opacity="1" fill-rule="nonzero"/></g><path fill="#46256a" d="M 39.0625 39.539062 C 38.785156 39.816406 38.660156 40.214844 38.734375 40.597656 L 39 42.019531 L 37.707031 41.367188 C 37.359375 41.1875 36.945312 41.195312 36.597656 41.382812 L 35.328125 42.074219 L 35.550781 40.648438 C 35.613281 40.257812 35.476562 39.867188 35.191406 39.597656 L 34.140625 38.605469 L 35.570312 38.375 C 35.957031 38.3125 36.289062 38.066406 36.457031 37.710938 L 37.078125 36.40625 L 37.738281 37.691406 C 37.917969 38.039062 38.257812 38.277344 38.644531 38.328125 L 40.082031 38.515625 Z M 40.464844 37.257812 L 38.871094 37.050781 L 38.136719 35.621094 C 37.929688 35.214844 37.511719 34.964844 37.058594 34.972656 C 36.601562 34.980469 36.195312 35.238281 36 35.652344 L 35.308594 37.101562 L 33.71875 37.359375 C 33.269531 37.429688 32.90625 37.746094 32.769531 38.183594 C 32.636719 38.621094 32.757812 39.085938 33.089844 39.398438 L 34.257812 40.503906 L 34.011719 42.089844 C 33.941406 42.539062 34.128906 42.984375 34.503906 43.246094 C 34.707031 43.390625 34.949219 43.464844 35.1875 43.464844 C 35.382812 43.464844 35.578125 43.417969 35.757812 43.320312 L 37.171875 42.550781 L 38.605469 43.277344 C 39.015625 43.480469 39.496094 43.441406 39.859375 43.167969 C 40.226562 42.890625 40.402344 42.441406 40.316406 41.996094 L 40.019531 40.414062 L 41.15625 39.277344 C 41.476562 38.953125 41.585938 38.484375 41.4375 38.050781 C 41.292969 37.621094 40.917969 37.316406 40.464844 37.257812 " fill-opacity="1" fill-rule="nonzero"/><path fill="#46256a" d="M 33.039062 5.867188 L 33.195312 5.667969 C 33.777344 5.007812 34.070312 4.164062 34.019531 3.289062 C 33.972656 2.40625 33.582031 1.597656 32.921875 1.007812 C 32.652344 0.769531 32.242188 0.792969 32.003906 1.0625 C 31.765625 1.328125 31.789062 1.738281 32.054688 1.976562 C 32.457031 2.332031 32.691406 2.824219 32.722656 3.363281 C 32.753906 3.898438 32.570312 4.417969 32.210938 4.820312 C 32.203125 4.832031 32.191406 4.84375 32.183594 4.851562 L 32.027344 5.050781 C 30.824219 6.417969 30.945312 8.503906 32.304688 9.710938 C 32.425781 9.824219 32.582031 9.878906 32.734375 9.878906 C 32.914062 9.878906 33.09375 9.804688 33.222656 9.660156 C 33.460938 9.390625 33.4375 8.980469 33.167969 8.742188 C 32.339844 8.007812 32.269531 6.730469 33.011719 5.898438 C 33.023438 5.890625 33.03125 5.878906 33.039062 5.867188 " fill-opacity="1" fill-rule="nonzero"/><path fill="#46256a" d="M 36.867188 4.878906 L 36.714844 5.074219 C 35.519531 6.429688 35.652344 8.503906 37.007812 9.710938 C 37.132812 9.824219 37.285156 9.878906 37.441406 9.878906 C 37.621094 9.878906 37.796875 9.804688 37.925781 9.660156 C 38.164062 9.390625 38.140625 8.984375 37.875 8.742188 C 37.046875 8.007812 36.96875 6.742188 37.699219 5.921875 C 37.707031 5.914062 37.714844 5.902344 37.726562 5.890625 L 37.878906 5.695312 C 39.070312 4.339844 38.941406 2.265625 37.582031 1.058594 C 37.316406 0.820312 36.902344 0.84375 36.664062 1.109375 C 36.425781 1.378906 36.449219 1.789062 36.71875 2.027344 C 37.546875 2.761719 37.625 4.027344 36.894531 4.847656 C 36.882812 4.859375 36.875 4.867188 36.867188 4.878906 " fill-opacity="1" fill-rule="nonzero"/><path fill="#46256a" d="M 41.636719 4.878906 L 41.480469 5.074219 C 40.289062 6.429688 40.421875 8.503906 41.777344 9.710938 C 41.902344 9.824219 42.054688 9.878906 42.210938 9.878906 C 42.386719 9.878906 42.566406 9.804688 42.695312 9.660156 C 42.933594 9.390625 42.910156 8.984375 42.640625 8.742188 C 41.8125 8.007812 41.734375 6.742188 42.464844 5.921875 C 42.476562 5.914062 42.484375 5.902344 42.492188 5.890625 L 42.648438 5.695312 C 43.839844 4.339844 43.707031 2.265625 42.351562 1.058594 C 42.082031 0.820312 41.671875 0.84375 41.433594 1.109375 C 41.195312 1.378906 41.21875 1.789062 41.488281 2.027344 C 42.3125 2.761719 42.394531 4.027344 41.660156 4.847656 C 41.652344 4.859375 41.644531 4.867188 41.636719 4.878906 " fill-opacity="1" fill-rule="nonzero"/></svg>