<svg xmlns="http://www.w3.org/2000/svg" xmlns:xlink="http://www.w3.org/1999/xlink" width="100" zoomAndPan="magnify" viewBox="0 0 75 74.999997" height="100" preserveAspectRatio="xMidYMid meet" version="1.0"><defs><clipPath id="d896b1a95a"><path d="M 24 56 L 51 56 L 51 71.660156 L 24 71.660156 Z M 24 56 " clip-rule="nonzero"/></clipPath><clipPath id="aca20c7423"><path d="M 30 64 L 33 64 L 33 71.660156 L 30 71.660156 Z M 30 64 " clip-rule="nonzero"/></clipPath><clipPath id="0bc3a6d5fa"><path d="M 42 64 L 45 64 L 45 71.660156 L 42 71.660156 Z M 42 64 " clip-rule="nonzero"/></clipPath><clipPath id="16e57c3f0c"><path d="M 49 56 L 73 56 L 73 71.660156 L 49 71.660156 Z M 49 56 " clip-rule="nonzero"/></clipPath><clipPath id="d7e59fe36b"><path d="M 52 64 L 56 64 L 56 71.660156 L 52 71.660156 Z M 52 64 " clip-rule="nonzero"/></clipPath><clipPath id="42fc4f81db"><path d="M 64 64 L 68 64 L 68 71.660156 L 64 71.660156 Z M 64 64 " clip-rule="nonzero"/></clipPath><clipPath id="fa1588a43c"><path d="M 2 56 L 26 56 L 26 71.660156 L 2 71.660156 Z M 2 56 " clip-rule="nonzero"/></clipPath><clipPath id="52fbd70d85"><path d="M 19 64 L 23 64 L 23 71.660156 L 19 71.660156 Z M 19 64 " clip-rule="nonzero"/></clipPath><clipPath id="cf76302efb"><path d="M 7 64 L 11 64 L 11 71.660156 L 7 71.660156 Z M 7 64 " clip-rule="nonzero"/></clipPath><clipPath id="03fbc43dc2"><path d="M 29 3.410156 L 46 3.410156 L 46 19 L 29 19 Z M 29 3.410156 " clip-rule="nonzero"/></clipPath><clipPath id="08a4af3fa9"><path d="M 0 69 L 75 69 L 75 71.660156 L 0 71.660156 Z M 0 69 " clip-rule="nonzero"/></clipPath></defs><path fill="#00bf63" d="M 37.5 59.625 C 33.796875 59.625 30.796875 56.621094 30.796875 52.914062 C 30.796875 49.203125 33.796875 46.203125 37.5 46.203125 C 41.203125 46.203125 44.203125 49.203125 44.203125 52.914062 C 44.203125 56.621094 41.203125 59.625 37.5 59.625 Z M 37.5 48.839844 C 35.25 48.839844 33.433594 50.660156 33.433594 52.914062 C 33.433594 55.164062 35.25 56.984375 37.5 56.984375 C 39.75 56.984375 41.566406 55.164062 41.566406 52.914062 C 41.566406 50.660156 39.75 48.839844 37.5 48.839844 Z M 37.5 48.839844 " fill-opacity="1" fill-rule="nonzero"/><g clip-path="url(#d896b1a95a)"><path fill="#00bf63" d="M 49.113281 71.660156 L 25.886719 71.660156 C 25.160156 71.660156 24.570312 71.066406 24.570312 70.339844 L 24.570312 68.839844 C 24.570312 62.832031 28.636719 57.667969 34.476562 56.257812 C 34.816406 56.167969 35.160156 56.234375 35.453125 56.394531 C 36.75 57.167969 38.25 57.167969 39.566406 56.394531 C 39.863281 56.210938 40.203125 56.167969 40.546875 56.257812 C 46.386719 57.667969 50.453125 62.832031 50.453125 68.839844 L 50.453125 70.339844 C 50.429688 71.066406 49.839844 71.660156 49.113281 71.660156 Z M 27.203125 69.019531 L 47.796875 69.019531 L 47.796875 68.839844 C 47.796875 64.21875 44.773438 60.238281 40.386719 58.941406 C 38.566406 59.828125 36.433594 59.828125 34.613281 58.941406 C 30.226562 60.214844 27.203125 64.21875 27.203125 68.839844 Z M 27.203125 69.019531 " fill-opacity="1" fill-rule="nonzero"/></g><g clip-path="url(#aca20c7423)"><path fill="#00bf63" d="M 31.476562 71.660156 C 30.75 71.660156 30.160156 71.066406 30.160156 70.339844 L 30.160156 66.289062 C 30.160156 65.5625 30.75 64.96875 31.476562 64.96875 C 32.203125 64.96875 32.796875 65.5625 32.796875 66.289062 L 32.796875 70.339844 C 32.796875 71.066406 32.203125 71.660156 31.476562 71.660156 Z M 31.476562 71.660156 " fill-opacity="1" fill-rule="nonzero"/></g><g clip-path="url(#0bc3a6d5fa)"><path fill="#00bf63" d="M 43.5 71.660156 C 42.773438 71.660156 42.183594 71.066406 42.183594 70.339844 L 42.183594 66.289062 C 42.183594 65.5625 42.773438 64.96875 43.5 64.96875 C 44.226562 64.96875 44.816406 65.5625 44.816406 66.289062 L 44.816406 70.339844 C 44.816406 71.066406 44.226562 71.660156 43.5 71.660156 Z M 43.5 71.660156 " fill-opacity="1" fill-rule="nonzero"/></g><path fill="#00bf63" d="M 59.792969 59.625 C 56.089844 59.625 53.089844 56.621094 53.089844 52.914062 C 53.089844 49.203125 56.089844 46.203125 59.792969 46.203125 C 63.5 46.203125 66.5 49.203125 66.5 52.914062 C 66.5 56.621094 63.5 59.625 59.792969 59.625 Z M 59.792969 48.839844 C 57.542969 48.839844 55.726562 50.660156 55.726562 52.914062 C 55.726562 55.164062 57.542969 56.984375 59.792969 56.984375 C 62.042969 56.984375 63.863281 55.164062 63.863281 52.914062 C 63.863281 50.660156 62.042969 48.839844 59.792969 48.839844 Z M 59.792969 48.839844 " fill-opacity="1" fill-rule="nonzero"/><g clip-path="url(#16e57c3f0c)"><path fill="#00bf63" d="M 71.40625 71.660156 L 53.773438 71.660156 C 53.046875 71.660156 52.453125 71.066406 52.453125 70.339844 C 52.453125 69.613281 53.046875 69.019531 53.773438 69.019531 L 70.089844 69.019531 L 70.089844 68.839844 C 70.089844 64.21875 67.066406 60.238281 62.679688 58.941406 C 60.863281 59.828125 58.726562 59.828125 56.910156 58.941406 C 55.136719 59.464844 53.523438 60.441406 52.25 61.808594 C 51.75 62.332031 50.910156 62.378906 50.386719 61.875 C 49.863281 61.375 49.816406 60.535156 50.316406 60.011719 C 52.066406 58.144531 54.273438 56.847656 56.75 56.257812 C 57.089844 56.167969 57.429688 56.234375 57.726562 56.394531 C 59.023438 57.167969 60.523438 57.167969 61.839844 56.394531 C 62.136719 56.210938 62.476562 56.167969 62.816406 56.257812 C 68.65625 57.667969 72.726562 62.832031 72.726562 68.839844 L 72.726562 70.339844 C 72.726562 71.066406 72.136719 71.660156 71.40625 71.660156 Z M 71.40625 71.660156 " fill-opacity="1" fill-rule="nonzero"/></g><g clip-path="url(#d7e59fe36b)"><path fill="#00bf63" d="M 53.773438 71.660156 C 53.046875 71.660156 52.453125 71.066406 52.453125 70.339844 L 52.453125 66.289062 C 52.453125 65.5625 53.046875 64.96875 53.773438 64.96875 C 54.5 64.96875 55.089844 65.5625 55.089844 66.289062 L 55.089844 70.339844 C 55.089844 71.066406 54.523438 71.660156 53.773438 71.660156 Z M 53.773438 71.660156 " fill-opacity="1" fill-rule="nonzero"/></g><g clip-path="url(#42fc4f81db)"><path fill="#00bf63" d="M 65.816406 71.660156 C 65.089844 71.660156 64.5 71.066406 64.5 70.339844 L 64.5 66.289062 C 64.5 65.5625 65.089844 64.96875 65.816406 64.96875 C 66.542969 64.96875 67.136719 65.5625 67.136719 66.289062 L 67.136719 70.339844 C 67.136719 71.066406 66.542969 71.660156 65.816406 71.660156 Z M 65.816406 71.660156 " fill-opacity="1" fill-rule="nonzero"/></g><path fill="#00bf63" d="M 15.207031 59.625 C 11.5 59.625 8.5 56.621094 8.5 52.914062 C 8.5 49.203125 11.5 46.203125 15.207031 46.203125 C 18.910156 46.203125 21.910156 49.203125 21.910156 52.914062 C 21.910156 56.621094 18.886719 59.625 15.207031 59.625 Z M 15.207031 48.839844 C 12.957031 48.839844 11.136719 50.660156 11.136719 52.914062 C 11.136719 55.164062 12.957031 56.984375 15.207031 56.984375 C 17.457031 56.984375 19.273438 55.164062 19.273438 52.914062 C 19.273438 50.660156 17.433594 48.839844 15.207031 48.839844 Z M 15.207031 48.839844 " fill-opacity="1" fill-rule="nonzero"/><g clip-path="url(#fa1588a43c)"><path fill="#00bf63" d="M 21.203125 71.660156 L 3.570312 71.660156 C 2.84375 71.660156 2.25 71.066406 2.25 70.339844 L 2.25 68.839844 C 2.25 62.832031 6.320312 57.667969 12.160156 56.257812 C 12.5 56.167969 12.839844 56.234375 13.136719 56.394531 C 14.433594 57.167969 15.933594 57.167969 17.25 56.394531 C 17.546875 56.210938 17.886719 56.167969 18.226562 56.257812 C 20.703125 56.847656 22.933594 58.144531 24.660156 60.011719 C 25.160156 60.535156 25.136719 61.375 24.589844 61.875 C 24.070312 62.378906 23.226562 62.355469 22.726562 61.808594 C 21.453125 60.441406 19.863281 59.464844 18.070312 58.941406 C 16.25 59.828125 14.113281 59.828125 12.296875 58.941406 C 7.910156 60.214844 4.886719 64.21875 4.886719 68.839844 L 4.886719 69.019531 L 21.203125 69.019531 C 21.933594 69.019531 22.523438 69.613281 22.523438 70.339844 C 22.523438 71.066406 21.933594 71.660156 21.203125 71.660156 Z M 21.203125 71.660156 " fill-opacity="1" fill-rule="nonzero"/></g><g clip-path="url(#52fbd70d85)"><path fill="#00bf63" d="M 21.203125 71.660156 C 20.476562 71.660156 19.886719 71.066406 19.886719 70.339844 L 19.886719 66.289062 C 19.886719 65.5625 20.476562 64.96875 21.203125 64.96875 C 21.933594 64.96875 22.523438 65.5625 22.523438 66.289062 L 22.523438 70.339844 C 22.523438 71.066406 21.933594 71.660156 21.203125 71.660156 Z M 21.203125 71.660156 " fill-opacity="1" fill-rule="nonzero"/></g><g clip-path="url(#cf76302efb)"><path fill="#00bf63" d="M 9.183594 71.660156 C 8.457031 71.660156 7.863281 71.066406 7.863281 70.339844 L 7.863281 66.289062 C 7.863281 65.5625 8.457031 64.96875 9.183594 64.96875 C 9.910156 64.96875 10.5 65.5625 10.5 66.289062 L 10.5 70.339844 C 10.5 71.066406 9.910156 71.660156 9.183594 71.660156 Z M 9.183594 71.660156 " fill-opacity="1" fill-rule="nonzero"/></g><g clip-path="url(#03fbc43dc2)"><path fill="#00bf63" d="M 37.5 18.878906 C 33.25 18.878906 29.773438 15.421875 29.773438 11.144531 C 29.773438 6.867188 33.226562 3.410156 37.5 3.410156 C 41.75 3.410156 45.226562 6.867188 45.226562 11.144531 C 45.226562 15.421875 41.75 18.878906 37.5 18.878906 Z M 37.5 6.046875 C 34.703125 6.046875 32.410156 8.324219 32.410156 11.144531 C 32.410156 13.964844 34.683594 16.238281 37.5 16.238281 C 40.316406 16.238281 42.589844 13.964844 42.589844 11.144531 C 42.589844 8.324219 40.296875 6.046875 37.5 6.046875 Z M 37.5 6.046875 " fill-opacity="1" fill-rule="nonzero"/></g><path fill="#00bf63" d="M 30.339844 33.167969 C 29.613281 33.167969 29.023438 32.574219 29.023438 31.847656 L 29.023438 27.046875 C 29.023438 26.316406 29.613281 25.726562 30.339844 25.726562 C 31.070312 25.726562 31.660156 26.316406 31.660156 27.046875 L 31.660156 31.847656 C 31.660156 32.574219 31.089844 33.167969 30.339844 33.167969 Z M 30.339844 33.167969 " fill-opacity="1" fill-rule="nonzero"/><path fill="#00bf63" d="M 44.636719 33.167969 C 43.910156 33.167969 43.316406 32.574219 43.316406 31.847656 L 43.316406 27.046875 C 43.316406 26.316406 43.910156 25.726562 44.636719 25.726562 C 45.363281 25.726562 45.953125 26.316406 45.953125 27.046875 L 45.953125 31.847656 C 45.953125 32.574219 45.363281 33.167969 44.636719 33.167969 Z M 44.636719 33.167969 " fill-opacity="1" fill-rule="nonzero"/><path fill="#00bf63" d="M 51.296875 33.167969 L 23.703125 33.167969 C 22.976562 33.167969 22.386719 32.574219 22.386719 31.847656 L 22.386719 30.050781 C 22.386719 24.726562 25.113281 19.878906 29.683594 17.128906 C 30.296875 16.761719 31.113281 16.945312 31.5 17.582031 C 31.886719 18.195312 31.683594 19.015625 31.046875 19.402344 C 27.273438 21.675781 25.023438 25.679688 25.023438 30.070312 L 25.023438 30.550781 L 49.976562 30.550781 L 49.976562 30.070312 C 49.976562 25.660156 47.726562 21.675781 43.953125 19.402344 C 43.339844 19.015625 43.136719 18.21875 43.5 17.582031 C 43.886719 16.96875 44.679688 16.761719 45.316406 17.128906 C 49.886719 19.902344 52.613281 24.726562 52.613281 30.070312 L 52.613281 31.871094 C 52.613281 32.574219 52.023438 33.167969 51.296875 33.167969 Z M 51.296875 33.167969 " fill-opacity="1" fill-rule="nonzero"/><path fill="#00bf63" d="M 15.207031 43.996094 C 14.476562 43.996094 13.886719 43.402344 13.886719 42.675781 L 13.886719 12.507812 C 13.886719 10.324219 15.660156 8.550781 17.839844 8.550781 L 24.660156 8.550781 C 25.386719 8.550781 25.976562 9.140625 25.976562 9.871094 C 25.976562 10.597656 25.386719 11.191406 24.660156 11.191406 L 17.839844 11.191406 C 17.113281 11.191406 16.523438 11.78125 16.523438 12.507812 L 16.523438 42.675781 C 16.5 43.402344 15.933594 43.996094 15.207031 43.996094 Z M 15.207031 43.996094 " fill-opacity="1" fill-rule="nonzero"/><path fill="#00bf63" d="M 37.5 43.996094 C 36.773438 43.996094 36.183594 43.402344 36.183594 42.675781 L 36.183594 37.261719 C 36.183594 36.53125 36.773438 35.941406 37.5 35.941406 C 38.226562 35.941406 38.816406 36.53125 38.816406 37.261719 L 38.816406 42.675781 C 38.816406 43.402344 38.226562 43.996094 37.5 43.996094 Z M 37.5 43.996094 " fill-opacity="1" fill-rule="nonzero"/><path fill="#00bf63" d="M 59.792969 43.996094 C 59.066406 43.996094 58.476562 43.402344 58.476562 42.675781 L 58.476562 12.507812 C 58.476562 11.78125 57.886719 11.191406 57.160156 11.191406 L 50.339844 11.191406 C 49.613281 11.191406 49.023438 10.597656 49.023438 9.871094 C 49.023438 9.140625 49.613281 8.550781 50.339844 8.550781 L 57.160156 8.550781 C 59.339844 8.550781 61.113281 10.324219 61.113281 12.507812 L 61.113281 42.675781 C 61.113281 43.402344 60.523438 43.996094 59.792969 43.996094 Z M 59.792969 43.996094 " fill-opacity="1" fill-rule="nonzero"/><g clip-path="url(#08a4af3fa9)"><path fill="#00bf63" d="M 73.679688 71.660156 L 1.320312 71.660156 C 0.59375 71.660156 0 71.066406 0 70.339844 C 0 69.613281 0.59375 69.019531 1.320312 69.019531 L 73.679688 69.019531 C 74.40625 69.019531 75 69.613281 75 70.339844 C 75 71.066406 74.40625 71.660156 73.679688 71.660156 Z M 73.679688 71.660156 " fill-opacity="1" fill-rule="nonzero"/></g></svg>