<svg width="62" height="62" viewBox="0 0 62 62" fill="none" xmlns="http://www.w3.org/2000/svg">
<circle cx="31" cy="31" r="31" fill="#FF3333" fill-opacity="0.08"/>
<path d="M20.0462 27.2792C19.7419 25.2074 20.9695 23.2844 22.8424 22.3479L28.371 19.5837C29.9274 18.8054 31.7594 18.8054 33.3159 19.5837L38.8444 22.3479C40.7174 23.2844 41.9449 25.2074 41.6406 27.2792C40.747 33.3635 37.5638 40.2246 32.3214 42.6724C31.386 43.1092 30.3009 43.1092 29.3655 42.6724C24.1231 40.2246 20.9399 33.3635 20.0462 27.2792Z" fill="#FF3333"/>
<path d="M34.99 28.0224L29.4615 33.551L26.697 30.7867M32.3214 42.6724C37.5638 40.2246 40.747 33.3635 41.6406 27.2792C41.9449 25.2074 40.7174 23.2844 38.8444 22.3479L33.3159 19.5837C31.7594 18.8054 29.9274 18.8054 28.371 19.5837L22.8424 22.3479C20.9695 23.2844 19.7419 25.2074 20.0462 27.2792C20.9399 33.3635 24.1231 40.2246 29.3655 42.6724C30.3009 43.1092 31.386 43.1092 32.3214 42.6724Z" stroke="#FDF2E6" stroke-width="1.5" stroke-linecap="round" stroke-linejoin="round"/>
</svg>
